<ttFont>
          <CharString index="0">
            104 0 558.949996948 732 -100.149993896 0 rlineto
            return
          </CharString>
          <CharString index="1">
            -142.899993896 -23.5 rlineto
            return
          </CharString>
          <CharString index="2">
            314 0 18.6000061035 118 -314 0 rlineto
            return
          </CharString>
          <CharString index="3">
            -2 -14 9 -9 14 0 rrcurveto
            86 hlineto
            14 0 11 5 3 18 rrcurveto
            14.5 90 rlineto
            3 16 -6 9 -18 0 rrcurveto
            -86 hlineto
            -16 0 -10 -10 -2 -15 rrcurveto
            return
          </CharString>
          <CharString index="4">
            83 -31 109.5 3 114 0 122 0 75.4499969482 52.3999938965 18.0999908447 115.600006104 rrcurveto
            7.25 42.5 rlineto
            12 76 -12.9499969482 65.6999969482 -51.8499908447 18.8000030518 51 9.89999389648 35 44 12.4499969482 76.6000061035 rrcurveto
            8.80000305176 52.5 rlineto
            17.1999969482 108.199996948 -66.75 76.8000030518 -103.699996948 2 -117 2 -118.5 1 -93 -31 rrcurveto
            -15.8000030518 -101 267 0 rlineto
            52.0000152588 0 46.1499938965 -6.75 -10.3499908447 -62.25 rrcurveto
            -5.5 -35.4499969482 rlineto
            -8.35000610352 -52.7499847412 -32.75 -15.75 -69 -3 rrcurveto
            -200 -8.89999389648 -18.8000030518 -113 198 -8.10000610352 rlineto
            58.9499816895 -3.09999084473 37 -2.34999084473 -11.049987793 -70.3000030518 rrcurveto
            -5.05000305176 -32.0500030518 rlineto
            -8.79998779297 -56 -40.3500061035 -12.25 -64.5 0 rrcurveto
            return
          </CharString>
          <CharString index="5">
            23.6000061035 -64.5 341.649993896 0 -24.6000061035 -157.5 141.350006104 0 24.6000061035 157.5 77.6000061035 24.5 16.6999969482 108.5 -73.5 0 38.9499969482 243.5 -108.5 0 -44.8500061035 -76.6499938965 -26.9499969482 -166.850006104 -177.550003052 0 288.25 439.5 -156.25 0 rlineto
            return
          </CharString>
          <CharString index="6">
            177.199996948 hlineto
            48.6999969482 0 10.3500061035 -12.8999938965 -8.35000610352 -51.1000061035 rrcurveto
            -10.75 -67.25 rlineto
            -8.25001525879 -52.3000030518 -32.5999908447 -10.3499908447 -33 0 rrcurveto
            -79.1499938965 hlineto
            -80.7500152588 0 -0.849990844727 84.299987793 17.4499969482 109.600006104 rrcurveto
            return
          </CharString>
          <CharString index="7">
            336 0 -320.199996948 -603 152.899993896 0 350.449996948 667.5 -27.25 64.5 -471.100006104 0 rlineto
            return
          </CharString>
          <CharString index="8">
            427 0 19.0500030518 118 -427 0 rlineto
            return
          </CharString>
          <CharString index="9">
            18.3500061035 115.75 rlineto
            return
          </CharString>
          <CharString index="10">
            140 0 116 732 -140 0 rlineto
            return
          </CharString>
          <CharString index="11">
            36.549987793 233 48.3999938965 14 108.25 0 105.850006104 0 44.9499969482 -18.9499969482 -36 -228.050003052 -31.3000030518 -197.300003052 -49.25 -38.6999969482 -111.199996948 0 -121.399993896 0 -26.5 36.1999969482 31.6499938965 199.800003052 rrcurveto
            return
          </CharString>
          <CharString index="12">
            105.300003052 -138.5 91 0 -77.3999938965 138.5 rlineto
            return
          </CharString>
          <CharString index="13">
            84.1499938965 0 -68.3999938965 -424 140 0 68.8500061035 424 rlineto
            return
          </CharString>
          <CharString index="14">
            -87.5 -17.8999938965 rlineto
            return
          </CharString>
          <CharString index="15">
            140 0 84 531 -140 0 rlineto
            return
          </CharString>
          <CharString index="16">
            -18.6000061035 56.5 -112.5 0 rlineto
            return
          </CharString>
          <CharString index="17">
            15.5500030518 -55.3000030518 rlineto
            return
          </CharString>
          <CharString index="18">
            36.3500061035 19.5 23.1999969482 15.5 39 0 rrcurveto
            return
          </CharString>
          <CharString index="19">
            39 0 24.4000091553 -35 43.8999938965 0 51.8999938965 0 44.200012207 42.6000061035 28.799987793 29.3999938965 rrcurveto
            -14.4499969482 59.6000061035 rlineto
            -27.3500061035 -19.8500061035 -33.1000061035 -21.25 -39.5500030518 1.10000610352 rrcurveto
            return
          </CharString>
          <CharString index="20">
            -40 0 -16 35 -44 0 rrcurveto
            -54.6499938965 0 -39.9000091553 -36.6500091553 -37.299987793 -34.6499938965 rrcurveto
            return
          </CharString>
          <CharString index="21">
            -5.09999084473 -32.3999938965 22.3000030518 -26.8500061035 32.3999938965 0 32.3999938965 0 30.4000091553 26.8500061035 5.09999084473 32.3999938965 5.10000610352 32.3999938965 -21.8500061035 25.8500061035 -32.3999938965 0 -32.3999938965 0 -30.8500061035 -25.8500061035 -5.10000610352 -32.3999938965 rrcurveto
            return
          </CharString>
          <CharString index="22">
            -26.4499969482 -169.699996948 36.5500030518 -209.300003052 192.550003052 0 rrcurveto
            227 hlineto
            151.000015259 0 100.349990845 122.199996948 36.5 229.300003052 27.700012207 174.050003052 -8.75 206.449996948 -198.050003052 0 rrcurveto
            -227 hlineto
            -212.349990845 0 -69.8499908447 -165.649993896 -29.200012207 -187.350006104 rrcurveto
            return
          </CharString>
          <CharString index="23">
            35.8000030518 227.149993896 82.8000030518 50.8500061035 88.5500030518 0 rrcurveto
            231.5 hlineto
            131.000015259 0 -16.1500091553 -158 -19 -120 -32 -204 -74.5 -78 -84.5999908447 0 rrcurveto
            -224.199996948 hlineto
            -114 0 -29.3000030518 130.199996948 24.0999908447 151.800003052 rrcurveto
            return
          </CharString>
          <CharString index="24">
            178 -208 84.25 64.0500030518 -116.149993896 135.300003052 157.699996948 135.100006104 -65.8000030518 76.5500030518 rlineto
            return
          </CharString>
          <CharString index="25">
            292 0 12.75 79.5 -292 0 rlineto
            return
          </CharString>
          <CharString index="26">
            340.899993896 0 16.0500030518 99.9499969482 -150.75 0 rlineto
            41.6499938965 33.3000030518 129.800003052 85.8500061035 17.6000061035 115.899993896 11.3000030518 67.8500061035 -37 85.75 -100.900009155 0 rrcurveto
            return
          </CharString>
          <CharString index="27">
            -87.3999938965 0 -47.6500091553 -8.10000610352 -62.5999908447 -10.75 -0.449996948242 0.449996948242 -13.5 -81.549987793 0.899993896484 0 rrcurveto
            return
          </CharString>
          <CharString index="28">
            158.800003052 hlineto
            55.8000183105 0 18.5 -13 -6.90000915527 -43.6500091553 -11.9499969482 -75.0500030518 -190.5 -119.649993896 -66.6499938965 -41.8999938965 rrcurveto
            return
          </CharString>
          <CharString index="29">
            55.6499938965 -21.6499938965 68.75 2 77.3000030518 0 92.1999969482 -0.449996948242 46.75 39.1000061035 12.1000061035 76.5 rrcurveto
            4 23.6000061035 rlineto
            7.09999084473 44.700012207 -9.69999694824 44.4499969482 -37.1999969482 14.25 37.3499908447 7.80000305176 24.5500030518 32.5999908447 8 48.1000061035 rrcurveto
            4.89999389648 30.0500030518 rlineto
            11.1999969482 70.4499969482 -42.1500091553 56 -77 1 -79.299987793 1.55000305176 -74.75 -0.100006103516 -62.75 -21.6499938965 rrcurveto
            -12.5 -79.3000030518 168.949996948 0 rlineto
            43.1000061035 1.52587890625e-05 21.25 -8.10000610352 -5.89999389648 -32.0999908447 rrcurveto
            -1.35000610352 -12.1000061035 rlineto
            -4.34999084473 -30.1000061035 -21.9499969482 -9.34999084473 -45.5500030518 -2 rrcurveto
            -125.399993896 -4.89999389648 -13.5 -87.0500030518 122.850006104 -4.44999694824 rlineto
            39.3999938965 -1.54998779297 23.4000091553 -8.20001220703 -5.25 -35.049987793 rrcurveto
            -2.35000610352 -13.1000061035 rlineto
            -4.80001831055 -32.4499969482 -23.8999938965 -8.19999694824 -45.6999969482 0 rrcurveto
            0 -145.550003052 -0.450012207031 -14.3999938965 vhcurveto
            return
          </CharString>
          <CharString index="30">
            91 0 144.100006104 138.5 -122.5 0 rlineto
            return
          </CharString>
          <CharString index="31">
            34.6499938965 0 54.9000091553 4.5 23.0500030518 17.9499969482 rrcurveto
            -60.0500030518 -371.100006104 108.199996948 0 76.5500030518 482.949996948 -106.199996948 0 rlineto
            -17.6000061035 -20.3499908447 -66.1000061035 -40.0500030518 -36 0 rrcurveto
            return
          </CharString>
          <CharString index="32">
            322.399993896 0 10.6499938965 69 -322.399993896 0 rlineto
            return
          </CharString>
          <CharString index="33">
            105 0 533 770 -105 0 rlineto
            return
          </CharString>
          <CharString index="34">
            105.299804688 -138.5 91 0 -77.400390625 138.5 rlineto
            return
          </CharString>
          <CharString index="35">
            154.700195312 0 79.9501953125 162.200195312 237.049804688 0 29.099609375 -162.200195312 143.200195312 0 -121.75 732 -159.25 0 rlineto
            return
          </CharString>
          <CharString index="36">
            126.549804688 265.299804688 41 -265.299804688 rlineto
            return
          </CharString>
          <CharString index="37">
            91 0 144.099609375 138.5 -122.5 0 rlineto
            return
          </CharString>
          <CharString index="38">
            103.099609375 0 72.400390625 65.400390625 42.69921875 -65.400390625 90.30078125 0 -75.30078125 135.5 -104 0 rlineto
            return
          </CharString>
          <CharString index="39">
            15.5498046875 -55.2998046875 rlineto
            33.650390625 19.5 24.5498046875 15.0498046875 41.25 0.4501953125 rrcurveto
            return
          </CharString>
          <CharString index="40">
            37.6494140625 0.4501953125 19.900390625 -34.5498046875 48.849609375 -0.4501953125 47.8505859375 -0.4501953125 42.849609375 37.650390625 34.2001953125 30.2998046875 rrcurveto
            -14.4501953125 59.599609375 rlineto
            -17 -14.4501953125 -50.2001953125 -24.3994140625 -32.7998046875 1.5498046875 rrcurveto
            return
          </CharString>
          <CharString index="41">
            -34.599609375 0.4501953125 -18.7001953125 32.75 -46.7001953125 1.349609375 rrcurveto
            -49.25 0 -45.2998046875 -34.849609375 -37.2998046875 -34.650390625 rrcurveto
            return
          </CharString>
          <CharString index="42">
            -5.099609375 -32.400390625 22.2998046875 -26.849609375 32.3994140625 0 32.400390625 0 30.400390625 26.849609375 5.099609375 32.400390625 5.099609375 32.400390625 -21.849609375 25.849609375 -32.400390625 0 -32.3994140625 0 -30.8505859375 -25.849609375 -5.099609375 -32.400390625 rrcurveto
            return
          </CharString>
          <CharString index="43">
            105.30078125 -138.5 91 0 -77.400390625 138.5 rlineto
            return
          </CharString>
          <CharString index="44">
            -19.9501953125 -126.450195312 94.517578125 -30.1328125 70.5830078125 3.0830078125 rrcurveto
            return
          </CharString>
          <CharString index="45">
            0 0 246.200195312 9.2998046875 58.2998046875 7.7001953125 rrcurveto
            18.7998046875 114.75 rlineto
            return
          </CharString>
          <CharString index="46">
            -268.5 hlineto
            -29 0 -33.5498046875 -1 8.099609375 53 rrcurveto
            18.7998046875 116.400390625 rlineto
            return
          </CharString>
          <CharString index="47">
            285.450195312 9.44921875 18.7998046875 115.100585938 rlineto
            return
          </CharString>
          <CharString index="48">
            -282.899414062 10.5498046875 17.7001953125 112 rlineto
            4 27 6.25 29 50.19921875 0 rrcurveto
            278.5 0 rlineto
            return
          </CharString>
          <CharString index="49">
            18.3505859375 115.75 rlineto
            return
          </CharString>
          <CharString index="50">
            -63.25 8.7998046875 -245.25 7.2001953125 0 0 -83.150390625 1.7998046875 -80.2998046875 -25 -19.849609375 -123.299804688 rrcurveto
            return
          </CharString>
          <CharString index="51">
            -5.099609375 -32.400390625 22.2998046875 -26.849609375 32.400390625 0 32.3994140625 0 30.400390625 26.849609375 5.099609375 32.400390625 5.1005859375 32.400390625 -21.8505859375 25.849609375 -32.3994140625 0 -32.400390625 0 -30.849609375 -25.849609375 -5.1005859375 -32.400390625 rrcurveto
            return
          </CharString>
          <CharString index="52">
            105.299804688 -138.5 91 0 -77.3994140625 138.5 rlineto
            return
          </CharString>
          <CharString index="53">
            15.5498046875 -55.2998046875 rlineto
            33.6494140625 19.5 24.55078125 15.0498046875 41.25 0.4501953125 rrcurveto
            return
          </CharString>
          <CharString index="54">
            141 0 74.2001953125 470.25 209.599609375 -470.25 138.200195312 0 116 732 -140 0 -74.75 -475.75 -208.049804688 475.75 -140.200195312 0 rlineto
            return
          </CharString>
          <CharString index="55">
            -53 -333 121.599609375 -45.75 171.900390625 0 176.849609375 0 120.549804688 28.25 50.1005859375 323 52.2001953125 337.599609375 -117.80078125 52.150390625 -173.44921875 0 -171.150390625 0 -123.799804688 -19.25 -54 -343 rrcurveto
            return
          </CharString>
          <CharString index="56">
            36.5498046875 233 48.400390625 14 108.25 0 105.849609375 0 44.9501953125 -18.9501953125 -36 -228.049804688 -31.2998046875 -197.299804688 -49.25 -38.7001953125 -111.200195312 0 -121.400390625 0 -26.5 36.2001953125 31.650390625 199.799804688 rrcurveto
            return
          </CharString>
          <CharString index="57">
            91 0 144.100585938 138.5 -122.5 0 rlineto
            return
          </CharString>
          <CharString index="58">
            103.099609375 0 72.400390625 65.400390625 42.7001953125 -65.400390625 90.2998046875 0 -75.2998046875 135.5 -104 0 rlineto
            return
          </CharString>
          <CharString index="59">
            37.650390625 0.4501953125 19.8994140625 -34.5498046875 48.8505859375 -0.4501953125 47.849609375 -0.4501953125 42.849609375 37.650390625 34.2001953125 30.2998046875 rrcurveto
            -14.4501953125 59.599609375 rlineto
            -17 -14.4501953125 -50.19921875 -24.3994140625 -32.80078125 1.5498046875 rrcurveto
            return
          </CharString>
          <CharString index="60">
            -44.900390625 -282.600585938 121.049804688 -50.7998046875 148.600585938 0 175.899414062 0 112.05078125 58.400390625 38.3994140625 242 rrcurveto
            63.6005859375 436.599609375 -141 0 -66.3505859375 -420.099609375 rlineto
            -20.2998046875 -129.600585938 -36.75 -58.2998046875 -107.450195312 0 -106.25 0 -19.5498046875 50.7001953125 21.75 137.200195312 rrcurveto
            66.349609375 420.099609375 -140.44921875 0 rlineto
            return
          </CharString>
          <CharString index="61">
            103.100585938 0 72.3994140625 65.400390625 42.7001953125 -65.400390625 90.2998046875 0 -75.2998046875 135.5 -104 0 rlineto
            return
          </CharString>
          <CharString index="62">
            -5.1005859375 -32.400390625 22.2998046875 -26.849609375 32.400390625 0 32.400390625 0 30.3994140625 26.849609375 5.1005859375 32.400390625 5.099609375 32.400390625 -21.849609375 25.849609375 -32.400390625 0 -32.400390625 0 -30.849609375 -25.849609375 -5.099609375 -32.400390625 rrcurveto
            return
          </CharString>
          <CharString index="63">
            143.150390625 -505 -36.05078125 -227 140 0 36.05078125 227 320.849609375 505 -160.049804688 0 -208.799804688 -349.650390625 -84 349.650390625 rlineto
            return
          </CharString>
          <CharString index="64">
            -41.650390625 -219 77.3505859375 -83.6005859375 103.549804688 0 63.7998046875 0 70.650390625 28.75 26.25 32.75 rrcurveto
            21.44921875 -54.5 108 0 70 477.900390625 rlineto
            -51 49 -121.149414062 17.0498046875 -76.6005859375 -4.0498046875 -94.099609375 -4.5 -114.5 -20.0498046875 -42.0498046875 -219.75 rrcurveto
            return
          </CharString>
          <CharString index="65">
            20.5498046875 133.80078125 41.599609375 14 45.2001953125 9.25 29.4501953125 6.349609375 45.7001953125 -4.7001953125 31.3994140625 -11.0498046875 rrcurveto
            -38.25 -256.150390625 rlineto
            -32.25 -31.19921875 -31.7001953125 -19 -57.75 0 -62.599609375 0 -6.75 58.099609375 15.400390625 100.599609375 rrcurveto
            return
          </CharString>
          <CharString index="66">
            103.099609375 0 72.400390625 65.3994140625 42.7001953125 -65.3994140625 90.2998046875 0 -75.2998046875 135.5 -104 0 rlineto
            return
          </CharString>
          <CharString index="67">
            37.6494140625 0.44921875 19.900390625 -34.5498046875 48.849609375 -0.4501953125 47.8505859375 -0.44921875 42.849609375 37.6494140625 34.2001953125 30.2998046875 rrcurveto
            -14.4501953125 59.6005859375 rlineto
            -17 -14.4501953125 -50.2001953125 -24.400390625 -32.7998046875 1.55078125 rrcurveto
            return
          </CharString>
          <CharString index="68">
            -34.599609375 0.44921875 -18.7001953125 32.75 -46.7001953125 1.3505859375 rrcurveto
            -49.25 0 -45.2998046875 -34.8505859375 -37.2998046875 -34.6494140625 rrcurveto
            return
          </CharString>
          <CharString index="69">
            -5.099609375 -32.400390625 22.2998046875 -26.849609375 32.400390625 0 32.3994140625 0 30.400390625 26.849609375 5.099609375 32.400390625 5.1005859375 32.3994140625 -21.8505859375 25.8505859375 -32.3994140625 0 -32.400390625 0 -30.849609375 -25.8505859375 -5.1005859375 -32.3994140625 rrcurveto
            return
          </CharString>
          <CharString index="70">
            -4.994140625 -57 43.6787109375 -43.8994140625 56 0 56 0 47.3212890625 43.8994140625 4.994140625 57 4.994140625 57 -42.0888671875 44.3505859375 -56 0 -56 0 -48.9111328125 -44.3505859375 -4.994140625 -57 rrcurveto
            return
          </CharString>
          <CharString index="71">
            -36 -194 40.6005859375 -106.950195312 127.450195312 -6.0498046875 111.049804688 -6.599609375 85.75 11.5 80.1494140625 24.099609375 rrcurveto
            16.80078125 100 rlineto
            -62.05078125 -10.4501953125 -95.5498046875 -9 -59.5 2.7001953125 -71 0.4501953125 -19.5498046875 20.9501953125 13.2998046875 81.099609375 37 -15 293.75 -46.849609375 15.3505859375 242.099609375 8.3994140625 122.049804688 -102 31.5 -114.450195312 -0.5498046875 -195 -1.099609375 -43.5 -76.900390625 -31 -163 rrcurveto
            return
          </CharString>
          <CharString index="72">
            12.3994140625 65.7001953125 9.1005859375 61.4501953125 94.6494140625 1.099609375 56 0.5498046875 27.5 -10.75 -8.7001953125 -49.5498046875 -16.94921875 -97.2998046875 -174 28.7998046875 0 0 rrcurveto
            return
          </CharString>
          <CharString index="73">
            103.100585938 0 72.3994140625 65.3994140625 42.7001953125 -65.3994140625 90.2998046875 0 -75.2998046875 135.5 -104 0 rlineto
            return
          </CharString>
          <CharString index="74">
            -5.1005859375 -32.400390625 22.30078125 -26.849609375 32.3994140625 0 32.400390625 0 30.3994140625 26.849609375 5.1005859375 32.400390625 5.099609375 32.3994140625 -21.849609375 25.8505859375 -32.400390625 0 -32.3994140625 0 -30.8505859375 -25.8505859375 -5.099609375 -32.3994140625 rrcurveto
            return
          </CharString>
          <CharString index="75">
            140 0 60.599609375 381.5 rlineto
            46.150390625 31.5 33.2001953125 14.5 56.349609375 0 35.0498046875 0 20.25 -19 -8.349609375 -52.7998046875 rrcurveto
            -56.25 -355.700195312 140 0 56.25 353.5 rlineto
            16.2001953125 101.200195312 -21.3505859375 85.2998046875 -123.599609375 0 -81 0 -47.3505859375 -32.7001953125 -51.0498046875 -32.7998046875 rrcurveto
            return
          </CharString>
          <CharString index="76">
            -18.599609375 56.5 -112.5 0 rlineto
            return
          </CharString>
          <CharString index="77">
            -30 -190 54.9501953125 -86.75 180.25 0 183.799804688 0 63.599609375 52.25 31.900390625 197 32.099609375 200.200195312 -53.7998046875 93.2001953125 -177.900390625 0 -179.5 0 -71.3994140625 -48.900390625 -34 -217 rrcurveto
            return
          </CharString>
          <CharString index="78">
            23.849609375 145.5 21.9501953125 21.650390625 82.849609375 0 83.4501953125 0 15.3505859375 -26.9501953125 -22.9501953125 -140.200195312 -23.400390625 -139.799804688 -25.2998046875 -10.7001953125 -77.5 0 -74.400390625 0 -26.2998046875 15.349609375 22.400390625 135.150390625 rrcurveto
            return
          </CharString>
          <CharString index="79">
            -5.1005859375 -32.400390625 22.2998046875 -26.849609375 32.400390625 0 32.400390625 0 30.3994140625 26.849609375 5.1005859375 32.400390625 5.099609375 32.3994140625 -21.849609375 25.8505859375 -32.400390625 0 -32.400390625 0 -30.849609375 -25.8505859375 -5.099609375 -32.3994140625 rrcurveto
            return
          </CharString>
          <CharString index="80">
            -16.6494140625 -104.349609375 21.7998046875 -82.150390625 123.599609375 0 81 0 44.7001953125 28.2998046875 53.25 37.2001953125 rrcurveto
            return
          </CharString>
          <CharString index="81">
            18.0498046875 -56.5 112.5 0 84.55078125 531 -140 0 -60.150390625 -381.5 rlineto
            return
          </CharString>
          <CharString index="82">
            -46.150390625 -31.5 -33.19921875 -14.5 -56.3505859375 0 -35.0498046875 0 -21.7001953125 14.5 9.25 57.2998046875 rrcurveto
            56.3505859375 355.700195312 -140 0 rlineto
            return
          </CharString>
          <CharString index="83">
            41.55078125 -395.700195312 rlineto
            10.0498046875 -94.5 53.1494140625 -40.7998046875 75.6005859375 0 -37 -72.650390625 -46.25 -68.8994140625 -89.25 -48.0498046875 rrcurveto
            -98.650390625 vlineto
            80.75 14.2998046875 130.649414062 43.6005859375 104.75 230.799804688 rrcurveto
            170.950195312 374.399414062 rlineto
            18.75 41.4501953125 17.2001953125 58.9501953125 -12.099609375 57.2001953125 rrcurveto
            -129.75 hlineto
            -5.4501953125 -52.9501953125 -8.2998046875 -31.400390625 -11.80078125 -27.5498046875 rrcurveto
            -134.149414062 -300.099609375 rlineto
            -8.7998046875 0.5498046875 -38 -0.650390625 -4.150390625 39.1005859375 rrcurveto
            -33.2001953125 371.549804688 rlineto
            return
          </CharString>
          <CharString index="84">
            -3 -20 10 -12 20 0 rrcurveto
            112.5 hlineto
            20 0 17 8 4 24 rrcurveto
            18.0500030518 118.5 rlineto
            3 22 -7 13 -25 0 rrcurveto
            -112.5 hlineto
            -22 0 -14 -14 -3 -21 rrcurveto
            return
          </CharString>
          <CharString index="85">
            -13.9000091553 -86.75 63.4499969482 -33.1499938965 69.25 0 rrcurveto
            118.100006104 hlineto
            79.3500061035 0 42.6999969482 33.25 13.8999938965 86.6499938965 rrcurveto
            37.8000030518 241.800003052 rlineto
            11 66.9999847412 -32.6499938965 52.9000091553 -91.5 0 rrcurveto
            -118.100006104 hlineto
            -80.1999969482 0 -48.4000091553 -38.1000061035 -13.549987793 -85.1000061035 rrcurveto
            return
          </CharString>
          <CharString index="86">
            34.0500030518 196.949996948 rlineto
            4.45001220703 25.5000152588 8.39999389648 16.5999908447 38.200012207 0 rrcurveto
            69.9499969482 hlineto
            33.7500152588 0 7.69999694824 -11.5 -5.44999694824 -30.5999908447 rrcurveto
            -34.0500030518 -197.5 rlineto
            -5.44999694824 -33.3499908447 -14.1999969482 -8.75 -32.8000030518 0 rrcurveto
            -64.4499969482 hlineto
            -30.3000030518 -1.52587890625e-05 -15.6999969482 4.69999694824 5.89999389648 37.950012207 rrcurveto
            return
          </CharString>
          <CharString index="87">
            20.75 -46.5500030518 231.899993896 0 -16.1499938965 -96.8999938965 105.350006104 0 14.0500030518 97.4499969482 52.3000030518 17.3999938965 13.5 85 -48.1000061035 0 24.25 151.949996948 -80.75 0 -32.1499938965 -49.6499938965 -16.25 -102.300003052 -109.75 0 182.75 280.199996948 -117 0 rlineto
            return
          </CharString>
          <CharString index="88">
            -32.549987793 -204.150009155 65.9499969482 -56.8500061035 75.9499969482 0 rrcurveto
            93.5 hlineto
            78.6000061035 -1.52587890625e-05 50.5500030518 22 12.6499938965 81.3500061035 rrcurveto
            11 70.25 rlineto
            9.74998474121 59.6000061035 -23.0500030518 64.950012207 -90.549987793 -0.450012207031 -52.950012207 -0.449996948242 -45.299987793 -4.25 -40.0500030518 -10.3999938965 7.80000305176 45.6499938965 9.29998779297 60.0500030518 62.3000030518 0 rrcurveto
            177.600006104 0 rlineto
            return
          </CharString>
          <CharString index="89">
            13.5 83.5500030518 rlineto
            return
          </CharString>
          <CharString index="90">
            117.449996948 hlineto
            27.25 0 7.19999694824 -6.45001220703 -4.34999084473 -27.75 rrcurveto
            -6.14999389648 -38.4499969482 rlineto
            -3.80001831055 -26.1000061035 -12.1499938965 -8.95001220703 -26.9499969482 0 rrcurveto
            -57.3000030518 hlineto
            -52 0 4.14999389648 64.25 6.65000915527 43.450012207 rrcurveto
            return
          </CharString>
          <CharString index="91">
            237.949996948 0 -221.600006104 -382.100006104 118.949996948 0 251.899993896 435.649993896 -20.6999969482 46.3999938965 -350.449996948 0 rlineto
            return
          </CharString>
          <CharString index="92">
            -7.44999694824 -46.950012207 8.75 -72.4499969482 111 0 rrcurveto
            113.350006104 hlineto
            66.950012207 1.52587890625e-05 57 6.39999389648 15.6499938965 101.449996948 rrcurveto
            8.44999694824 54.1499938965 rlineto
            4.54998779297 28.5500183105 -0.949996948242 59.3999938965 -43.8000030518 11.25 49.1000061035 7.80000305176 15.0999908447 44.8499908447 2.55000305176 16.200012207 rrcurveto
            5.44999694824 33.9499969482 rlineto
            12.549987793 79.5000152588 -43.3500061035 43 -71.5999908447 0 rrcurveto
            -113.449996948 hlineto
            -71.4000091553 1.52587890625e-05 -62 -15.6500091553 -15 -93.0999908447 rrcurveto
            -7 -42.1999969482 rlineto
            -5.55001831055 -36.0500030518 1.65000915527 -43.9499969482 46.1499938965 -23.200012207 -35.8000030518 -6.89999389648 -27.299987793 -20.9499969482 -6.35000610352 -39.75 rrcurveto
            return
          </CharString>
          <CharString index="93">
            5.80000305176 34.0500030518 rlineto
            3.80000305176 25.700012207 11.6500091553 10.8999938965 28.8999938965 0 rrcurveto
            72 hlineto
            27.3500061035 0 7.94999694824 -12.799987793 -3.80000305176 -23.8000030518 rrcurveto
            -5.35000610352 -34.0500030518 rlineto
            -3.34999084473 -23.5500030518 -11.5500030518 -9.89999389648 -28.5500030518 0 rrcurveto
            -67.9499969482 hlineto
            -33.8000030518 1.52587890625e-05 -7 9.14999389648 3.90000915527 24.3000030518 rrcurveto
            return
          </CharString>
          <CharString index="94">
            3.89999389648 22.6499938965 rlineto
            5.34999084473 33.3500061035 13.1499938965 6.39999389648 29.9000091553 0 rrcurveto
            65.1499938965 hlineto
            25.8999938965 0 14.200012207 -4.94999694824 -5.80000305176 -34.8000030518 rrcurveto
            -3.89999389648 -22.6499938965 rlineto
            -2.89999389648 -18.6000061035 -5.25 -18.25 -37.1000061035 0 rrcurveto
            -69.1999969482 hlineto
            -22.5500183105 0 -15.6499938965 6.60000610352 4.80000305176 30.25 rrcurveto
            return
          </CharString>
          <CharString index="95">
            5.14999389648 32.9499969482 rlineto
            4.35000610352 27.200012207 11.0500030518 9.5 26.9499969482 0 rrcurveto
            56.75 hlineto
            52 0 -2.60000610352 -59.3000030518 -7.19999694824 -46.1999969482 rrcurveto
            -117.449996948 hlineto
            -27.25 0 -6.64999389648 7 4.89999389648 28.8500061035 rrcurveto
            return
          </CharString>
          <CharString index="96">
            10.1999969482 67.25 rlineto
            8.24998474121 52.3000030518 32.6000061035 10.3499908447 33 0 rrcurveto
            78.6000061035 hlineto
            80.75 0 1.40000915527 -84.299987793 -17.4499969482 -109.600006104 rrcurveto
            -177.199996948 hlineto
            -48.6999969482 0 -9.80000305176 12.8999938965 8.35000610352 51.1000061035 rrcurveto
            return
          </CharString>
          <CharString index="97">
            473 0 19.1499938965 119 -473 0 rlineto
            return
          </CharString>
          <CharString index="98">
            696 0 19.1499938965 119 -696 0 rlineto
            return
          </CharString>
          <CharString index="99">
            -153.400390625 -71.7001953125 77.5498046875 -140.69921875 110.299804688 25.8994140625 rrcurveto
            12.2001953125 76.5 rlineto
            -57.7001953125 -5.099609375 -22.0498046875 55.349609375 88.6005859375 59.75 rrcurveto
            return
          </CharString>
          <CharString index="100">
            78.0498046875 -135.5 101.25 0 129.200195312 135.5 -103.100585938 0 -70.2001953125 -65.3994140625 -44.8994140625 65.3994140625 rlineto
            return
          </CharString>
          <CharString index="101">
            68 -21.849609375 84.21484375 -7.650390625 113.78515625 0 91.349609375 0 133.450195312 8.7001953125 14.650390625 171.799804688 rrcurveto
            6.0498046875 65.25 rlineto
            11.349609375 80.900390625 -18.8994140625 113.099609375 -138.950195312 0 rrcurveto
            -103.25 hlineto
            -53.5498046875 0 -25.6005859375 5.2998046875 10.400390625 65.2001953125 rrcurveto
            5.599609375 35.75 rlineto
            10.6005859375 66.2998046875 33.0498046875 6.5 63.900390625 -1.7998046875 36.2998046875 0 144.099609375 -5.7001953125 57.150390625 -3.849609375 rrcurveto
            17.25 109.599609375 rlineto
            -62.7998046875 18.4501953125 -104.450195312 11.7998046875 -105.25 -1.2998046875 -110.200195312 0.150390625 -96.2998046875 -23.80078125 -22.25 -149.94921875 rrcurveto
            -10.5498046875 -75.900390625 rlineto
            -8.79296875 -59.6630859375 -2.0576171875 -137.086914062 175.700195312 0 rrcurveto
            101.049804688 hlineto
            58.400390625 0 4.2998046875 -26.7001953125 -6.7998046875 -41.599609375 rrcurveto
            -6.0498046875 -39.400390625 rlineto
            -8.6005859375 -54.75 -49.9501953125 -8.2998046875 -42.099609375 0 -93 0 -113.200195312 5.650390625 -40.7998046875 4.8994140625 rrcurveto
            return
          </CharString>
          <CharString index="102">
            56.5 hlineto
            86.6005859375 0 31.9501953125 39.5 16 102 rrcurveto
            -94.5 hlineto
            -6 -38 -4.5 -16.400390625 -30 -12 rrcurveto
            -46.2001953125 -15 rlineto
            return
          </CharString>
          <CharString index="103">
            78.0498046875 -135.5 101.25 0 129.200195312 135.5 -103.100585938 0 -70.19921875 -65.400390625 -44.900390625 65.400390625 rlineto
            return
          </CharString>
          <CharString index="104">
            197.5 0 -95.2001953125 -603 140 0 95.2001953125 603 203.5 0 20.7998046875 129 -541 0 rlineto
            return
          </CharString>
          <CharString index="105">
            504 0 20.7998046875 129 -322.299804688 0 396.700195312 474 20.7998046875 129 -504 0 -20.7998046875 -129 332.75 0 -407.150390625 -474 rlineto
            return
          </CharString>
          <CharString index="106">
            78.05078125 -135.5 101.25 0 129.19921875 135.5 -103.099609375 0 -70.2001953125 -65.400390625 -44.8994140625 65.400390625 rlineto
            return
          </CharString>
          <CharString index="107">
            -2 -14 9 -9 14 0 rrcurveto
            72 hlineto
            14 0 10 8 2 15 rrcurveto
            12.2998046875 76 rlineto
            2 14 -6 11 -15 0 rrcurveto
            -72 hlineto
            -16 0 -10 -10 -2 -15 rrcurveto
            return
          </CharString>
          <CharString index="108">
            33.150390625 -24.3505859375 157.5 -4.5498046875 100.69921875 0 60.400390625 0 74.7998046875 14.9501953125 17 109 rrcurveto
            9 60.7998046875 rlineto
            12.5498046875 77.2001953125 -34.19921875 71.0498046875 -101.30078125 0 rrcurveto
            -122.5 hlineto
            -19.19921875 0 -23.150390625 -4.5 6.599609375 38.9501953125 rrcurveto
            4.150390625 26.25 rlineto
            3 18.8994140625 8.099609375 17.55078125 35.9501953125 0 rrcurveto
            240.100585938 0 13.94921875 88.349609375 rlineto
            -37.25 23.7001953125 -139.5 3.2998046875 -102.049804688 0 -103 0 -44.2001953125 -48.2001953125 -13.44921875 -83.7998046875 rrcurveto
            -8 -48.25 rlineto
            -16 -101.650390625 53.2998046875 -51.8994140625 94 0 rrcurveto
            118.849609375 hlineto
            28.6005859375 0 5.69921875 -12.2998046875 -3.7998046875 -22.3505859375 rrcurveto
            -4.599609375 -27.0498046875 rlineto
            -5.6005859375 -32.5 -25.94921875 -1.150390625 -9.3505859375 0 rrcurveto
            -250.349609375 hlineto
            return
          </CharString>
          <CharString index="109">
            56.5 hlineto
            86.599609375 0 31.9501953125 39.5 16 102 rrcurveto
            -94.5 hlineto
            -6 -38 -4.5 -16.400390625 -30 -12 rrcurveto
            -46.2001953125 -15 rlineto
            return
          </CharString>
          <CharString index="110">
            414 hlineto
            0 0 19.150390625 117 -1 1 rrcurveto
            -223.75 0 271.900390625 294 17.69921875 118 -429 0 -17.69921875 -118 249.349609375 0 -283.400390625 -295.099609375 rlineto
            return
          </CharString>
          <CharString index="111">
            -33.5 -211.799804688 38.099609375 -177.599609375 186.25 -1.650390625 110.650390625 -1.650390625 74.7998046875 4.9501953125 74.5498046875 24.650390625 rrcurveto
            16.7998046875 109.599609375 rlineto
            -63.8994140625 -4.5 -85.150390625 -5.3994140625 -77.5498046875 1.349609375 -108.200195312 4.0498046875 -19.75 75.8505859375 26.900390625 163.099609375 39.19921875 249 71 -4.4501953125 70.9501953125 0.4501953125 99.400390625 0.900390625 108.700195312 -15.650390625 10.44921875 -1.349609375 rrcurveto
            17.25 109.599609375 rlineto
            -75.1494140625 23.4501953125 -72.150390625 12.0498046875 -102.599609375 0 -199 0 -70.7001953125 -121.5 -37.349609375 -233.450195312 rrcurveto
            return
          </CharString>
          <CharString index="112">
            -153.400390625 -71.7001953125 77.5498046875 -140.700195312 110.299804688 25.900390625 rrcurveto
            12.2001953125 76.5 rlineto
            -57.7001953125 -5.099609375 -22.0498046875 55.349609375 88.6005859375 59.75 rrcurveto
            return
          </CharString>
          <CharString index="113">
            78.0498046875 -135.5 101.25 0 129.200195312 135.5 -103.100585938 0 -70.2001953125 -65.400390625 -44.8994140625 65.400390625 rlineto
            return
          </CharString>
          <CharString index="114">
            78.0498046875 -135.5 101.25 0 129.200195312 135.5 -103.099609375 0 -70.2001953125 -65.400390625 -44.900390625 65.400390625 rlineto
            return
          </CharString>
          <CharString index="115">
            140 0 45.7001953125 288.75 112.5 -8.5 85.7998046875 -280.25 158 0 -103.799804688 288.25 rlineto
            35.599609375 5.099609375 90.650390625 14.55078125 23.94921875 182.099609375 23.6005859375 175.25 -77 66.75 -109.75 0 rrcurveto
            -309.25 hlineto
            return
          </CharString>
          <CharString index="116">
            33.4501953125 209.650390625 154.5 0 rlineto
            47.599609375 0 16.80078125 -20.150390625 -8.80078125 -83.599609375 -8.44921875 -77.2001953125 -30.05078125 -28.7001953125 -52.7998046875 0 rrcurveto
            return
          </CharString>
          <CharString index="117">
            -6 -70.7001953125 49.0498046875 -42.2001953125 61.7998046875 0 70.099609375 0 45.4501953125 39.0498046875 8.25 73.8505859375 rrcurveto
            -57.5498046875 hlineto
            -4.7001953125 -38.3505859375 -20.75 -18.5498046875 -40.25 0.4501953125 -32.4501953125 0 -19.75 20.599609375 4.3505859375 35.8505859375 rrcurveto
            return
          </CharString>
          <CharString index="118">
            78.0498046875 -135.5 101.25 0 129.200195312 135.5 -103.099609375 0 -70.2001953125 -65.3994140625 -44.900390625 65.3994140625 rlineto
            return
          </CharString>
          <CharString index="119">
            -33.8994140625 -204.849609375 69.599609375 -82.1005859375 100.349609375 -1 109.950195312 -1.5498046875 64.2001953125 6.5498046875 78.400390625 28.5 rrcurveto
            13.94921875 87.900390625 rlineto
            0 -101.549804688 -9.3505859375 -92 vhcurveto
            -68.849609375 0 -23.75 22.3505859375 22.599609375 134.149414062 27.75 158.80078125 29.2001953125 5.25 63.9501953125 0 rrcurveto
            89 94.5498046875 -6.900390625 0 hvcurveto
            13.5 87 rlineto
            -73.5 22.900390625 -114 9.5 -52 0 -98.400390625 0 -81.099609375 -28.900390625 -37.9501953125 -228.25 rrcurveto
            return
          </CharString>
          <CharString index="120">
            -153.400390625 -71.7001953125 77.55078125 -140.700195312 110.299804688 25.900390625 rrcurveto
            12.2001953125 76.5 rlineto
            -57.7001953125 -5.099609375 -22.0498046875 55.349609375 88.599609375 59.75 rrcurveto
            return
          </CharString>
          <CharString index="121">
            22.049987793 135.5 30.6000061035 25.25 42.3999938965 0 48.4000091553 0 38.5500030518 -5.80000305176 34.0999908447 -14.1499938965 rrcurveto
            -41.6499938965 -262.850006104 rlineto
            -32.799987793 -19.2500152588 -43.4499969482 -13.5500030518 -52.6000061035 0 -46.0999908447 0 -18.3000030518 39.1000061035 18.8000030518 115.75 rrcurveto
            return
          </CharString>
          <CharString index="122">
            -18.9999847412 -96 47.5 -69 132.800003052 0 rrcurveto
            122.5 hlineto
            147 0 30.8499908447 68.0500030518 12.6500091553 80.4499969482 rrcurveto
            7.19999694824 44 rlineto
            15.200012207 95.5 -69.1999969482 45.3000030518 -67.4499969482 12.8499908447 rrcurveto
            -141.100006104 23.3500061035 rlineto
            -20.4499969482 3.55000305176 -21.1999969482 4.59999084473 4.54998779297 21.6000061035 5 23.75 24.450012207 -5 16 0 rrcurveto
            92 hlineto
            142 0 53.8999938965 102.5 11.1000061035 77 24.5999908447 163.550003052 -98.5999908447 39.3999938965 -68 0.550003051758 rrcurveto
            -99.5 2 rlineto
            -99.8500061035 2 -88.5 -35.6999969482 -21.6499938965 -138.800003052 -8 -53 0.899993896484 -75.1000061035 52.1000061035 -32.3999938965 -50 0 -22 -50 -5 -36 rrcurveto
            return
          </CharString>
          <CharString index="123">
            9 52 12.6499938965 30 53.3999938965 0 rrcurveto
            51.5 hlineto
            49.8000030518 0 4.15000915527 -27 -9 -55 -5.45001220703 -35.8000030518 -15.25 -52.1999969482 -50.799987793 0 rrcurveto
            -51.5 hlineto
            -54.450012207 0 -2.04998779297 39 8 49 rrcurveto
            return
          </CharString>
          <CharString index="124">
            -1.90299987793 -14 8.74198913574 -9 14 0 rrcurveto
            86 hlineto
            14 0 11.0940093994 5 3.06700134277 18 rrcurveto
            14.4869995117 90 rlineto
            2.75999450684 16 -5.74200439453 9 -18 0 rrcurveto
            -86 hlineto
            -16.0000152588 0 -9.73699951172 -10 -2.28099060059 -15 rrcurveto
            return
          </CharString>
          <CharString index="125">
            83.25 0 -67.0500030518 -424 140 0 67.0500030518 424 rlineto
            return
          </CharString>
          <CharString index="126">
            -86.6000061035 -17 rlineto
            return
          </CharString>
          <CharString index="127">
            177.199996948 hlineto
            48.700012207 0 10.3500061035 -12.8999938965 -8.35000610352 -51.1000061035 rrcurveto
            -10.75 -67.25 rlineto
            -8.25 -52.3000030518 -32.6000061035 -10.3499908447 -33 0 rrcurveto
            -79.1499938965 hlineto
            -80.75 0 -0.850006103516 84.299987793 17.450012207 109.600006104 rrcurveto
            return
          </CharString>
          <CharString index="128">
            -8.20001220703 -51.8500061035 -12.1000061035 -126.899993896 180.100006104 0 rrcurveto
            150.5 hlineto
            88 0 89.1000061035 6.5 24.6499938965 153.550003052 rrcurveto
            13.3500061035 85.8999938965 rlineto
            7.44999694824 42.9999847412 -2 88.9000091553 -61.1500091553 15.25 69.6000061035 11.6999969482 23.1000061035 69.4499969482 3.09999084473 24.75 rrcurveto
            8.80000305176 53.4499969482 rlineto
            18.6499938965 119.899993896 -55.1999969482 64.6499938965 -109.449996948 0 rrcurveto
            -151.5 hlineto
            -107.5 0 -84.9499969482 -24.25 -21.5500030518 -137.75 rrcurveto
            -10.4499969482 -65 rlineto
            -9.09999084473 -55.1499938965 2.35000610352 -68.8500061035 67.0999908447 -30.25 -52.9499969482 -7.19999694824 -38.8000030518 -35.75 -9.79998779297 -60.8000030518 rrcurveto
            return
          </CharString>
          <CharString index="129">
            10.9499969482 69.25 rlineto
            6.69998168945 42.7499847412 26.5500030518 19.5500030518 43.8000030518 0 rrcurveto
            101.25 hlineto
            41.25 0 18.1999969482 -22.3500061035 -6.25 -39.9499969482 rrcurveto
            -10.9499969482 -69.25 rlineto
            -6.25 -42.4000091553 -27.6999969482 -17.5500030518 -41.75 0 rrcurveto
            -93.8500061035 hlineto
            -52.1000061035 0 -17.200012207 14.6000061035 7.35000610352 45.3499908447 rrcurveto
            return
          </CharString>
          <CharString index="130">
            7.14999389648 47.1000061035 rlineto
            8.79998779297 56.799987793 20.6999969482 15.6000061035 53.8500061035 0 rrcurveto
            94.3000030518 hlineto
            42 0 22.0999908447 -10 -10.25 -62.3999938965 rrcurveto
            -7.14999389648 -47.1000061035 rlineto
            -5.44998168945 -32.6999969482 -11.75 -29.3000030518 -57.0500030518 0 rrcurveto
            -100.149993896 hlineto
            -34 0 -31.3499908447 10.3999938965 8.25 51.6000061035 rrcurveto
            return
          </CharString>
          <CharString index="131">
            -35.1494140625 -190.900390625 19.5498046875 -212.349609375 198.649414062 6.69921875 78.2001953125 2.75 48.150390625 22.3505859375 33.099609375 33.3994140625 rrcurveto
            30.3505859375 -52.599609375 101 0 65.94921875 413.5 rlineto
            -24 2 -22.5498046875 1 -21 0 -72.75 0 -60.3994140625 -6.849609375 -45.8505859375 -18.150390625 rrcurveto
            -14.0498046875 -88.5 103 0 -21.900390625 -127.650390625 rlineto
            0 -61.5498046875 -50.0498046875 -69.2001953125 vhcurveto
            -101.049804688 -0.4501953125 -13.1494140625 78.25 26 163.55078125 34.5498046875 226.899414062 63.0498046875 22.9501953125 77.7001953125 -0.4501953125 90.5498046875 -0.4501953125 115.549804688 -13.8994140625 30.2998046875 -4.0498046875 rrcurveto
            16.80078125 107.399414062 rlineto
            -101.55078125 26.2001953125 -56.7998046875 8.75 -109.5 -0.4501953125 -199 0 -60.1494140625 -115.450195312 -42.8505859375 -233.44921875 rrcurveto
            return
          </CharString>
          <CharString index="132">
            -2 -14 9 -9 14 0 rrcurveto
            72 hlineto
            14 0 10 8 2 15 rrcurveto
            12.30078125 76 rlineto
            2 14 -6 11 -15 0 rrcurveto
            -72 hlineto
            -16 0 -10 -10 -2 -15 rrcurveto
            return
          </CharString>
          <CharString index="133">
            -6 -70.7001953125 49.0498046875 -42.2001953125 61.7998046875 0 70.1005859375 0 45.4501953125 39.0498046875 8.25 73.8505859375 rrcurveto
            -57.55078125 hlineto
            -4.69921875 -38.3505859375 -20.75 -18.5498046875 -40.25 0.4501953125 -32.4501953125 0 -19.75 20.599609375 4.349609375 35.8505859375 rrcurveto
            return
          </CharString>
          <CharString index="134">
            237.5 -24 rlineto
            139.849609375 -14.599609375 79.5 74 21.650390625 136.099609375 rrcurveto
            93.0498046875 586.650390625 rlineto
            -48.75 13.8994140625 -122.450195312 16.25 -106 0 -119.150390625 0 -85.3994140625 -64.849609375 -28.650390625 -179.549804688 -27.75 -176.700195312 27.4501953125 -119.950195312 156.150390625 0 45 0 48.19921875 10.900390625 44.900390625 27.099609375 rrcurveto
            -15.5 -97.25 rlineto
            -10 -64 -39.7001953125 -31 -50.2998046875 0 rrcurveto
            -225 hlineto
            return
          </CharString>
          <CharString index="135">
            8.650390625 53.25 19.900390625 99.3994140625 80.0498046875 0 rrcurveto
            107.75 0 -48.4501953125 -302.5 rlineto
            -46.400390625 -17.7001953125 -23.849609375 -4 -44.2998046875 0 -79.900390625 0 12.150390625 78 14.3994140625 93.55078125 rrcurveto
            return
          </CharString>
          <CharString index="136">
            -6 -70.7001953125 49.0498046875 -42.19921875 61.7998046875 0 70.1005859375 0 45.44921875 39.0498046875 8.25 73.849609375 rrcurveto
            -57.5498046875 hlineto
            -4.7001953125 -38.349609375 -20.75 -18.5498046875 -40.25 0.44921875 -32.44921875 0 -19.75 20.6005859375 4.349609375 35.849609375 rrcurveto
            return
          </CharString>
          <CharString index="137">
            -19 -96 47.5 -69 132.799804688 0 rrcurveto
            122.5 hlineto
            147 0 30.8505859375 68.0498046875 12.6494140625 80.4501953125 rrcurveto
            7.2001953125 44 rlineto
            15.2001953125 95.5 -69.2001953125 45.2998046875 -67.4501953125 12.8505859375 rrcurveto
            -141.099609375 23.349609375 rlineto
            -20.4501953125 3.5498046875 -21.2001953125 4.6005859375 4.55078125 21.599609375 5 23.75 24.44921875 -5 16 0 rrcurveto
            92 hlineto
            142 0 53.900390625 102.5 11.099609375 77 24.6005859375 163.549804688 -98.6005859375 39.400390625 -68 0.5498046875 rrcurveto
            -99.5 2 rlineto
            -99.849609375 2 -88.5 -35.7001953125 -21.650390625 -138.799804688 -8 -53 0.900390625 -75.099609375 52.099609375 -32.400390625 -50 0 -22 -50 -5 -36 rrcurveto
            return
          </CharString>
          <CharString index="138">
            17.4501953125 87.5 132.350585938 -20 rlineto
            36.69921875 -6.349609375 16.6005859375 -11.4501953125 -5.3505859375 -36.5498046875 rrcurveto
            -2.7998046875 -18.650390625 rlineto
            -4.7998046875 -31.0498046875 -11.650390625 -19.3505859375 -39.75 0 rrcurveto
            -89.5 hlineto
            -36 0 -22.6494140625 8.05078125 9.3994140625 47.849609375 rrcurveto
            return
          </CharString>
          <CharString index="139">
            9 52 12.650390625 30 53.400390625 0 rrcurveto
            51.5 hlineto
            49.7998046875 0 4.1494140625 -27 -9 -55 -5.44921875 -35.7998046875 -15.25 -52.2001953125 -50.80078125 0 rrcurveto
            -51.5 hlineto
            -54.44921875 0 -2.05078125 39 8 49 rrcurveto
            return
          </CharString>
          <CharString index="140">
            67.0500030518 424 rlineto
            return
          </CharString>
          <CharString index="141">
            -101.449996948 -17 rlineto
            return
          </CharString>
          <CharString index="142">
            97 0 -67.0500030518 -424 140.550003052 0 rlineto
            return
          </CharString>
          <CharString index="143">
            0 0 110.025390625 -30.5546875 15.974609375 99.8544921875 rrcurveto
            17.5498046875 110.700195312 rlineto
            1.80078125 13.5 -3.1953125 10.7998046875 -16.2001953125 0 rrcurveto
            -75.599609375 hlineto
            -14.400390625 0 -9.4052734375 -8.099609375 -2.69921875 -16.2001953125 rrcurveto
            -12.150390625 -78.2998046875 rlineto
            -2.7001953125 -15.2998046875 9 -7.2001953125 12.6005859375 0 rrcurveto
            9.8994140625 0 -2.115234375 -12.599609375 rlineto
            -1.7998046875 -9.4052734375 -2.609375 -14.4453125 -27 0.900390625 rrcurveto
            return
          </CharString>
          <CharString index="144">
            0 0 110.024414062 -30.5546875 15.9755859375 99.8544921875 rrcurveto
            17.5498046875 110.700195312 rlineto
            1.7998046875 13.5 -3.1943359375 10.7998046875 -16.2001953125 0 rrcurveto
            -75.6005859375 hlineto
            -14.3994140625 0 -9.4052734375 -8.099609375 -2.7001953125 -16.2001953125 rrcurveto
            -12.1494140625 -78.2998046875 rlineto
            -2.7001953125 -15.2998046875 9 -7.2001953125 12.599609375 0 rrcurveto
            9.900390625 0 -2.115234375 -12.599609375 rlineto
            -1.7998046875 -9.4052734375 -2.6103515625 -14.4453125 -27 0.900390625 rrcurveto
            return
          </CharString>
          <CharString index="145">
            37.650390625 0.44921875 19.8994140625 -34.5498046875 48.8505859375 -0.4501953125 47.849609375 -0.44921875 42.8505859375 37.6494140625 34.19921875 30.2998046875 rrcurveto
            -14.44921875 59.6005859375 rlineto
            -17 -14.4501953125 -50.2001953125 -24.400390625 -32.7998046875 1.55078125 rrcurveto
            return
          </CharString>
          <CharString index="146">
            -34.6005859375 0.44921875 -18.7001953125 32.75 -46.69921875 1.3505859375 rrcurveto
            -49.25 0 -45.30078125 -34.8505859375 -37.2998046875 -34.6494140625 rrcurveto
            return
          </CharString>
          <CharString index="147">
            0 0 110.025390625 -30.5546875 15.974609375 99.8544921875 rrcurveto
            17.5498046875 110.700195312 rlineto
            1.7998046875 13.5 -3.1943359375 10.7998046875 -16.2001953125 0 rrcurveto
            -75.599609375 hlineto
            -14.400390625 0 -9.4052734375 -8.099609375 -2.7001953125 -16.2001953125 rrcurveto
            -12.1494140625 -78.2998046875 rlineto
            -2.7001953125 -15.2998046875 9 -7.2001953125 12.599609375 0 rrcurveto
            9.900390625 0 -2.115234375 -12.599609375 rlineto
            -1.7998046875 -9.4052734375 -2.6103515625 -14.4453125 -27 0.900390625 rrcurveto
            return
          </CharString>
          <CharString index="148">
            37.650390625 0.4501953125 19.8994140625 -34.5498046875 48.8505859375 -0.4501953125 47.849609375 -0.4501953125 42.8505859375 37.650390625 34.19921875 30.2998046875 rrcurveto
            -14.44921875 59.599609375 rlineto
            -17 -14.4501953125 -50.2001953125 -24.3994140625 -32.7998046875 1.5498046875 rrcurveto
            return
          </CharString>
          <CharString index="149">
            -34.6005859375 0.4501953125 -18.7001953125 32.75 -46.69921875 1.349609375 rrcurveto
            -49.25 0 -45.30078125 -34.849609375 -37.2998046875 -34.650390625 rrcurveto
            return
          </CharString>
          <CharString index="150">
            -153.399414062 -71.7001953125 77.5498046875 -140.69921875 110.299804688 25.8994140625 rrcurveto
            12.2001953125 76.5 rlineto
            -57.7001953125 -5.099609375 -22.0498046875 55.349609375 88.599609375 59.75 rrcurveto
            return
          </CharString>
          <CharString index="151">
            104 0 384.300003052 570 -100.699996948 0 rlineto
            return
          </CharString>
          <CharString index="152">
            17.1499938965 107.75 rlineto
            return
          </CharString>
          <CharString index="153">
            -7.99998474121 -50 -43.4499969482 -270.300003052 201.5 0.449996948242 70.4499969482 0 47.5999908447 15.8999938965 40.950012207 35.1000061035 rrcurveto
            24.5 -44 105.5 0 51.75 327.25 rlineto
            -24 2 -21 1 -21 0 rrcurveto
            return
          </CharString>
          <CharString index="154">
            -81 0 -54.450012207 -8.5 -42 -11 rrcurveto
            -11.8500061035 -76.5 rlineto
            return
          </CharString>
          <CharString index="155">
            101 0 -10.75 -66.75 rlineto
            -13.4499816895 -23.0500030518 -50 -23.4499969482 -53.5 0 -92.25 0.550003051758 13.6499938965 102.099990845 10.3500061035 64.3500061035 25.25 159.5 28.1999969482 19 91.5 0 72.6499938965 0 62.4499969482 -3.69999694824 76.4000091553 -9.30000305176 rrcurveto
            16.0500030518 100.5 rlineto
            -59.8500061035 19.25 -130.300003052 9.05000305176 -74.3499908447 -3.30000305176 rrcurveto
            -161 -4.94999694824 -58.5500030518 -77.1999969482 -29 -184 rrcurveto
            return
          </CharString>
          <CharString index="156">
            140 0 90 570 -140 0 rlineto
            return
          </CharString>
          <CharString index="157">
            24.549987793 155 43.8000030518 6 74.1000061035 0 86.1499938965 0 31 -7.80000305176 -24.0999908447 -151.199996948 -23.5500030518 -149.350006104 -43.9499969482 -13.6499938965 -76.950012207 0 -90.3999938965 0 -22.8500061035 21.3000030518 22.200012207 139.699996948 rrcurveto
            return
          </CharString>
          <CharString index="158">
            149.700195312 0 57.7998046875 116.25 187.200195312 0 22.7998046875 -116.25 136.5 0 -96.5 570 -167.5 0 rlineto
            return
          </CharString>
          <CharString index="159">
            89.4501953125 171.5 31.2001953125 -171.5 rlineto
            return
          </CharString>
          <CharString index="160">
            140 0 33.0498046875 210.299804688 rlineto
            0.4501953125 -0.8994140625 77.1494140625 -7.6005859375 13.5 -0.8994140625 rrcurveto
            61.650390625 -200.900390625 148.200195312 0 -78.1005859375 213.200195312 rlineto
            58.150390625 11.9501953125 42.0498046875 40.0498046875 13.0498046875 107.450195312 17.25 145.44921875 -80.7998046875 51.80078125 -89.099609375 0 rrcurveto
            -266.5 hlineto
            return
          </CharString>
          <CharString index="161">
            23.75 148.950195312 113.75 0 rlineto
            20.2001953125 0 31.650390625 -16.150390625 -9.9501953125 -56.5 -11.8505859375 -64.5498046875 -25.3994140625 -11.75 -28.400390625 0 rrcurveto
            return
          </CharString>
          <CharString index="162">
            -12.8505859375 -81.9501953125 45.6005859375 -37.0498046875 67.2998046875 0 rrcurveto
            296 0 20.25 129 -215 0 rlineto
            -36.650390625 0 -23.7998046875 -0.099609375 8.2998046875 49.099609375 rrcurveto
            61.900390625 392 -140 0 rlineto
            return
          </CharString>
          <CharString index="163">
            -5.09999084473 -32.3999938965 22.3000030518 -26.8499908447 32.3999938965 0 32.3999938965 0 30.4000091553 26.8499908447 5.09999084473 32.4000091553 5.10000610352 32.3999938965 -21.8500061035 26.3000030518 -32.3999938965 0 -32.3999938965 0 -30.8500061035 -26.3000030518 -5.10000610352 -32.3999938965 rrcurveto
            return
          </CharString>
          <CharString index="164">
            36.650390625 -20.7998046875 205.5 -3.400390625 46.7998046875 0 75.3505859375 0 70.2998046875 22.849609375 18.6494140625 118.900390625 rrcurveto
            7.7001953125 48 rlineto
            13.1005859375 83.25 -20.150390625 78.75 -109.549804688 0 rrcurveto
            -132.5 hlineto
            -27.1005859375 0 -14.7998046875 3.0498046875 5.6005859375 34.7001953125 rrcurveto
            5.599609375 33.150390625 rlineto
            3.349609375 23 13.150390625 20.349609375 32.2001953125 0 rrcurveto
            106.799804688 139.150390625 -6.75 0 hvcurveto
            15.599609375 101 rlineto
            -76.4501953125 16.150390625 -142 6.599609375 -52 0 -121.149414062 0 -45.4501953125 -62.9501953125 -13.5498046875 -85.849609375 rrcurveto
            -6.900390625 -46.900390625 rlineto
            -14.099609375 -98.7001953125 35.0498046875 -60.349609375 104.75 0 rrcurveto
            127 hlineto
            29.5 0 9.099609375 -6.150390625 -4.7998046875 -29.599609375 rrcurveto
            -6.599609375 -39.2001953125 rlineto
            -2.25 -14.3994140625 -10.75 -20.900390625 -32.2001953125 0 rrcurveto
            -100.400390625 -152.599609375 5.2001953125 0 hvcurveto
            return
          </CharString>
          <CharString index="165">
            -11.2998046875 -71.25 37.25 -34.650390625 63.2001953125 -1.099609375 rrcurveto
            return
          </CharString>
          <CharString index="166">
            0 0 250.150390625 1.900390625 64.8994140625 14.2998046875 rrcurveto
            17.150390625 107.299804688 rlineto
            return
          </CharString>
          <CharString index="167">
            -242.5 hlineto
            -21 0 -15 3 5 29 rrcurveto
            11 70.9501953125 rlineto
            return
          </CharString>
          <CharString index="168">
            243 7 16.599609375 105 rlineto
            return
          </CharString>
          <CharString index="169">
            -241 8 11.4501953125 71.0498046875 rlineto
            4 24 3.5498046875 9 30 0 rrcurveto
            246.5 0 rlineto
            return
          </CharString>
          <CharString index="170">
            17.150390625 107.75 rlineto
            return
          </CharString>
          <CharString index="171">
            -49.5 9.349609375 -241 5.400390625 0 0 -73.3505859375 -0.5498046875 -58.099609375 -32 -12.2998046875 -79.4501953125 rrcurveto
            return
          </CharString>
          <CharString index="172">
            448 0 20.7998046875 129 -258 0 307.400390625 312 19.7998046875 129 -448 0 -19.7998046875 -129 267.5 0 -316.900390625 -312 rlineto
            return
          </CharString>
          <CharString index="173">
            3.35000610352 23.9499969482 21.3999938965 19.0500030518 23.950012207 0 23.9499969482 0 16.1499938965 -19.0500030518 -3.34999084473 -23.9499969482 -3.35000610352 -23.9499969482 -19.8500061035 -18.5 -23.9499969482 0 -23.9499969482 0 -17.6999969482 18.5 3.34999084473 23.9499969482 rrcurveto
            return
          </CharString>
          <CharString index="174">
            -5.1005859375 -32.400390625 22.30078125 -26.849609375 32.3994140625 0 32.400390625 0 30.3994140625 26.849609375 5.1005859375 32.400390625 5.099609375 32.400390625 -21.849609375 25.849609375 -32.400390625 0 -32.3994140625 0 -30.8505859375 -25.849609375 -5.099609375 -32.400390625 rrcurveto
            return
          </CharString>
          <CharString index="175">
            -4.994140625 -57 43.677734375 -43.8994140625 56 0 56 0 47.322265625 43.8994140625 4.994140625 57 4.994140625 57 -42.0888671875 44.3505859375 -56 0 -56 0 -48.9111328125 -44.3505859375 -4.994140625 -57 rrcurveto
            return
          </CharString>
          <CharString index="176">
            2.28125 23.9501953125 21.0341796875 19.5 23.9501953125 0 23.94921875 0 16.966796875 -19.5 -2.28125 -23.9501953125 -2.28125 -23.9501953125 -19.9951171875 -18.5 -23.9501953125 0 -23.94921875 0 -18.005859375 18.5 2.28125 23.9501953125 rrcurveto
            return
          </CharString>
          <CharString index="177">
            -25.2998046875 -158.899414062 2.9501953125 -164.700195312 195.849609375 0 98.4501953125 0 62.2001953125 6.650390625 69.8994140625 25.2998046875 rrcurveto
            15.05078125 95.5 rlineto
            0 0 -116.05078125 -14.0498046875 -79.0498046875 -0.900390625 -115 2 15.75 88.5498046875 15.25 95.9501953125 17.25 111.5 21.2001953125 59 102 0 65 0 110.900390625 -12.5 15 -3 rrcurveto
            15.0498046875 97.5 rlineto
            -60 23 -85.4501953125 7.5 -75.4501953125 0 -177.700195312 0 -61.5 -91.9501953125 -26.2998046875 -166.450195312 rrcurveto
            return
          </CharString>
          <CharString index="178">
            -5.099609375 -32.3994140625 22.2998046875 -26.8505859375 32.400390625 0 32.3994140625 0 30.400390625 26.8505859375 5.099609375 32.3994140625 5.1005859375 32.400390625 -21.8505859375 25.849609375 -32.3994140625 0 -32.400390625 0 -30.849609375 -25.849609375 -5.1005859375 -32.400390625 rrcurveto
            return
          </CharString>
          <CharString index="179">
            140 0 52.75 331.950195312 167.25 -331.950195312 136 0 90 571 -139 0 -51.2001953125 -332.900390625 -168.799804688 332.900390625 -137 0 rlineto
            return
          </CharString>
          <CharString index="180">
            -39 -249 96.1005859375 -49.75 161 0 168 0 91.3994140625 33.25 39 245 41 256 -96.6494140625 45.75 -163 0 -166 0 -92.8505859375 -37.25 -39 -244 rrcurveto
            return
          </CharString>
          <CharString index="181">
            24.55078125 155 43.7998046875 6 74.099609375 0 86.150390625 0 31 -7.7998046875 -24.1005859375 -151.200195312 -23.5498046875 -149.349609375 -43.9501953125 -13.650390625 -76.94921875 0 -90.400390625 0 -22.849609375 21.2998046875 22.19921875 139.700195312 rrcurveto
            return
          </CharString>
          <CharString index="182">
            -39 -239 119.700195312 -42.5 136 0 121 0 120.299804688 15.5 37 233 rrcurveto
            49 326.5 -141 0 -49 -310 rlineto
            -18.2998046875 -114.700195312 -40.80078125 -21.2998046875 -66.5498046875 0 -72.4501953125 0 -34.19921875 19.099609375 19.2998046875 116.900390625 rrcurveto
            49 310 -141 0 rlineto
            return
          </CharString>
          <CharString index="183">
            141.549804688 -374.5 -30.5498046875 -196.5 140 0 30.5498046875 196.5 252.950195312 374.5 -156.599609375 0 -149.100585938 -222.299804688 -82.0498046875 222.299804688 rlineto
            return
          </CharString>
          <CharString index="184">
            164 0 -70.2001953125 -441 140 0 70.2001953125 441 164 0 20.7998046875 129 -468 0 rlineto
            return
          </CharString>
          <CharString index="185">
            -8 -50 -43.4501953125 -270.299804688 201.5 0.4501953125 70.4501953125 0 47.6005859375 15.900390625 40.94921875 35.099609375 rrcurveto
            24.5 -44 105.5 0 51.75 327.25 rlineto
            -24 2 -21 1 -21 0 rrcurveto
            return
          </CharString>
          <CharString index="186">
            -81 0 -54.44921875 -8.5 -42 -11 rrcurveto
            -11.8505859375 -76.5 rlineto
            return
          </CharString>
          <CharString index="187">
            101 0 -10.75 -66.75 rlineto
            -13.4501953125 -23.0498046875 -50 -23.4501953125 -53.5 0 -92.25 0.5498046875 13.650390625 102.100585938 10.349609375 64.349609375 25.25 159.5 28.2001953125 19 91.5 0 72.650390625 0 62.4501953125 -3.7001953125 76.3994140625 -9.2998046875 rrcurveto
            16.0498046875 100.5 rlineto
            -59.849609375 19.25 -130.299804688 9.0498046875 -74.3505859375 -3.2998046875 rrcurveto
            -161 -4.9501953125 -58.5498046875 -77.2001953125 -29 -184 rrcurveto
            return
          </CharString>
          <CharString index="188">
            113.5 -732 165.849609375 0 139.25 300.849609375 46.7001953125 -300.849609375 157.600585938 0 335.5 732 -148.650390625 0 -242.150390625 -543.849609375 -50.75 341.349609375 93.7001953125 202.5 -150 0 -239.399414062 -541.150390625 -75.2001953125 541.150390625 rlineto
            return
          </CharString>
          <CharString index="189">
            101.350585938 -531 165.599609375 0 98.0498046875 204.099609375 38.75 -204.099609375 154.950195312 0 201.349609375 376.299804688 rlineto
            21.400390625 39.900390625 18.7998046875 58.7001953125 -12.099609375 57.19921875 rrcurveto
            -127.049804688 hlineto
            -5.4501953125 -52.94921875 -13.6005859375 -31.9501953125 -13 -27 rrcurveto
            -130.19921875 -259.350585938 -39.7001953125 209.600585938 16.349609375 38.0498046875 rlineto
            15.5498046875 38.150390625 7.05078125 41.75 -9.3505859375 42.349609375 rrcurveto
            -126.599609375 hlineto
            -5.4501953125 -52.9501953125 -13.599609375 -31.9501953125 -13 -27 rrcurveto
            -127.05078125 -260.69921875 -56.44921875 372.849609375 rlineto
            return
          </CharString>
          <CharString index="190">
            85.849609375 -570 168.400390625 0 86.349609375 186.150390625 33 -186.150390625 167.5 0 256.400390625 570 -146.549804688 0 -169.049804688 -396.650390625 -44.8505859375 236.75 72.7001953125 159.900390625 -146.549804688 0 -168.950195312 -396.650390625 -49.5 396.650390625 rlineto
            return
          </CharString>
          <CharString index="191">
            140.549804688 0 94.8505859375 599.349609375 rlineto
            3 17 21.75 5.55078125 1.25 -15.55078125 rrcurveto
            65.2998046875 -485.19921875 rlineto
            7.25 -173.350585938 267.700195312 7.7998046875 25.8994140625 165.650390625 rrcurveto
            94.5 610.75 -140 0 -93.75 -590.200195312 rlineto
            -2.8994140625 -18.599609375 -19.8505859375 -3.5 -1.7001953125 19.099609375 rrcurveto
            -67.099609375 487.850585938 rlineto
            -4.75 147.44921875 -271.400390625 9.400390625 -25.6494140625 -171.650390625 rrcurveto
            return
          </CharString>
          <CharString index="192">
            88.299987793 -16.1000061035 42.6000061035 0.350006103516 84.3000030518 -0.449996948242 67.5500030518 -0.449996948242 65.4499969482 18.5999908447 11.1499938965 93.1000061035 rrcurveto
            10.4499969482 71.1499938965 rlineto
            8.25 59.4499816895 -20.8499908447 67.1500091553 -82.9000091553 4.39999389648 -33.0999908447 1.65000915527 -52.1000061035 4.5 -32.3499908447 -22.950012207 rrcurveto
            19 88.5 208.149993896 0 16.0500030518 99.9499969482 -309.850006104 0 -63.1000061035 -301.899993896 93.3999938965 0 rlineto
            4.35000610352 24.549987793 13.8499908447 10.1499938965 22.8000030518 0 rrcurveto
            65.8999938965 hlineto
            38.1500091553 0 -1.85000610352 -23.5 -2.44999694824 -19.25 rrcurveto
            -4.60000610352 -33.4499969482 rlineto
            -3.34999084473 -27.5000152588 -11.8500061035 -12.5500030518 -36.0999908447 0 rrcurveto
            -191.75 hlineto
            return
          </CharString>
          <CharString index="193">
            140 0 61.9501953125 390.5 rlineto
            53.2998046875 28.599609375 33.7001953125 2.900390625 45.1494140625 0 41.1005859375 0 14.75 -22.2998046875 -7.80078125 -51.7001953125 rrcurveto
            -55.1494140625 -348 140 0 59 370 rlineto
            14.5498046875 92.400390625 -51.0498046875 77.599609375 -106 0 -139.900390625 0 -61.1494140625 -10.7998046875 -108.100585938 -57.2001953125 rrcurveto
            return
          </CharString>
          <CharString index="194">
            140 0 62.5 396 rlineto
            68.1494140625 26 73.4501953125 2.7001953125 75.25 -11.2001953125 rrcurveto
            19.7001953125 124.5 rlineto
            -161 14 -102.549804688 -14.9501953125 -100.049804688 -59.5498046875 rrcurveto
            return
          </CharString>
          <CharString index="195">
            -32.4501953125 -210.799804688 69.6005859375 -79.75 140.149414062 0 51.150390625 0 175.799804688 8.2001953125 31.3505859375 19.25 rrcurveto
            61.5498046875 455.099609375 rlineto
            -52.2998046875 34.4501953125 -87.30078125 27.2998046875 -110.299804688 0 -144.25 0 -74.7998046875 -58.150390625 -28.2001953125 -195.599609375 rrcurveto
            return
          </CharString>
          <CharString index="196">
            19.349609375 136.299804688 24.2998046875 35.349609375 74.2998046875 0 32.400390625 0 33.4501953125 -7.7001953125 28.7001953125 -8.25 rrcurveto
            -45.150390625 -310.25 rlineto
            0 -78.0498046875 -2.69921875 -33.2998046875 vhcurveto
            -64.650390625 0 -5.400390625 56.2998046875 14.05078125 100.950195312 rrcurveto
            return
          </CharString>
          <CharString index="197">
            -14.55078125 -92.3994140625 46 -94.1005859375 125.80078125 0 139.899414062 0 57.7001953125 4.2998046875 94 44.7001953125 rrcurveto
            74.400390625 491 -140 0 -63.2001953125 -401.75 rlineto
            -32.6005859375 -16.8994140625 -53.1494140625 -3.3505859375 -45.150390625 0 -41.099609375 0 -14.75 22.2998046875 7.7998046875 51.7001953125 rrcurveto
            55.150390625 348 -140 0 rlineto
            return
          </CharString>
        <CharString name=".notdef">
          256 0 13 505 13 hstem
          100 14 530 14 vstem
          100 hmoveto
          558 531 -558 hlineto
          14 -509 rmoveto
          0 485 256 -241 rlineto
          -246 252 rmoveto
          511 0 -254 -242 rlineto
          -254 -263 rmoveto
          254 243 253 -243 rlineto
          -242 253 rmoveto
          252 240 0 -481 rlineto
          endchar
        </CharString>
        <CharString name="A">
          186 21 -21 21 -21 162.199996948 124.050003052 445.75 -20 hstemhm
          hintmask 10110000
          34 hmoveto
          154.699996948 0 79.9499969482 162.199996948 237.050003052 0 29.1000061035 -162.199996948 143.199996948 0 -121.75 732 -159.25 0 rlineto
          -72.3000030518 -445.75 rmoveto
          126.550003052 265.300003052 41 -265.300003052 rlineto
          endchar
        </CharString>
        <CharString name="AE">
          514 -3.89999389648 131.75 -114.75 114.75 67.5 123.5 -26.1500091553 135.100006104 -125.650009155 115.100006104 182.550003052 132.199996948 -132.199996948 116.199996948 hstemhm
          hintmask 10100000
          22.8500061035 hmoveto
          156.5 0 128.449996948 195.350006104 171.300003052 0 -11.0500030518 -72.6999969482 rlineto
          -16.1999816895 -104.449996948 98.6499938965 -26.0999908447 68.75 4 rrcurveto
          hintmask 01000000
          0 0 244.550003052 9.29998779297 57.75 7.70001220703 rrcurveto
          18.8000030518 114.75 rlineto
          hintmask 10010000
          -268.5 hlineto
          -29 0 -33.450012207 -1 8 53 rrcurveto
          17.8000030518 112.850006104 rlineto
          hintmask 00001000
          287.449996948 9.44999694824 17.8000030518 115.100006104 rlineto
          hintmask 00010100
          -283.449996948 10.5500030518 18.6999969482 117.350006104 rlineto
          4.89999389648 27 4.54998779297 27.6500091553 50.200012207 0 rrcurveto
          hintmask 00000010
          279.850006104 0 17.8000030518 116.199996948 rlineto
          hintmask 10100100
          -62.6999969482 8.80000305176 -247.150009155 7.19999694824 0 0 -113.25 3.85000610352 -111.25 -4.90000915527 -101.599990845 -155.550003052 rrcurveto
          -10.9000091553 -256.549987793 rmoveto
          151.5 234.25 -38.3999938965 -234.25 rlineto
          endchar
        </CharString>
        <CharString name="Aacute">
          186 0 21 141.199996948 124.050003052 425.75 20 65 138.5 hstem
          441.332000732 235.100006104 vstem
          441.33203125 797 rmoveto
          -70 callsubr
          -519.931640625 -935.5 rmoveto
          -72 callsubr
          -72.2998046875 -445.75 rmoveto
          -71 callsubr
          endchar
        </CharString>
        <CharString name="Abreve">
          186 0 21 141.199996948 124.050003052 425.75 20 65 56.4499969482 hstem
          390.811004639 57.5500030518 113.549987793 57.5500030518 vstem
          390.810546875 909.900390625 rmoveto
          -6 -70.7001953125 49.05078125 -42.2001953125 61.7998046875 0 70.099609375 0 45.4501953125 39.0498046875 8.25 73.8505859375 rrcurveto
          -57.5498046875 hlineto
          -4.7001953125 -38.3505859375 -20.75 -18.5498046875 -40.25 0.4501953125 -32.4501953125 0 -19.75 20.599609375 4.3505859375 35.8505859375 rrcurveto
          -414.361328125 -909.900390625 rmoveto
          -72 callsubr
          -72.2998046875 -445.75 rmoveto
          -71 callsubr
          endchar
        </CharString>
        <CharString name="Acircumflex">
          186 0 21 141.199996948 124.050003052 425.75 20 65 135.5 hstem
          332.856994629 308.5 vstem
          332.857421875 797 rmoveto
          -69 callsubr
          -428.056640625 -932.5 rmoveto
          -72 callsubr
          -72.2998046875 -445.75 rmoveto
          -71 callsubr
          endchar
        </CharString>
        <CharString name="Adieresis">
          186 0 21 141.199996948 124.050003052 425.75 20 65 117.5 hstem
          310.542999268 117.5 137.5 117.5 vstem
          310.54296875 856.25 rmoveto
          -65 callsubr
          255 hmoveto
          -65 callsubr
          -531.54296875 -856.25 rmoveto
          -72 callsubr
          -72.2998046875 -445.75 rmoveto
          -71 callsubr
          endchar
        </CharString>
        <CharString name="Agrave">
          186 0 21 141.199996948 124.050003052 425.75 20 65 138.5 hstem
          336.031997681 196.300003052 vstem
          336.032226562 935.5 rmoveto
          -73 callsubr
          -420.931640625 -935.5 rmoveto
          -72 callsubr
          -72.2998046875 -445.75 rmoveto
          -71 callsubr
          endchar
        </CharString>
        <CharString name="Amacron">
          186 0 21 141.199996948 124.050003052 425.75 20 65 79.5 hstem
          341.102996826 304.75 vstem
          341.102539062 797 rmoveto
          -82 callsubr
          -319.852539062 -876.5 rmoveto
          -72 callsubr
          -72.2998046875 -445.75 rmoveto
          -71 callsubr
          endchar
        </CharString>
        <CharString name="Aogonek">
          230 -185.949996948 76.5 90 20 -0.550003051758 21 141.199996948 124.050003052 425.75 20 hstemhm
          hintmask 11000000
          628.650390625 0.5498046875 rmoveto
          -8 callsubr
          hintmask 00111000
          -604.25 -0.5498046875 rmoveto
          154.69921875 0 79.9501953125 162.200195312 237.049804688 0 29.1005859375 -162.200195312 143.200195312 0 -121.75 732 -159.25 0 rlineto
          -72.30078125 -445.75 rmoveto
          126.55078125 265.299804688 41 -265.299804688 rlineto
          endchar
        </CharString>
        <CharString name="Aring">
          186 0 21 141.199996948 124.050003052 425.75 20 -1.92500305176 58.4499969482 85.9000091553 57.8999938965 hstemhm
          387.35899353 203 hintmask 00011100
          387.359375 830.974609375 rmoveto
          -4.994140625 -57 43.677734375 -43.8994140625 56 0 56 0 47.322265625 43.8994140625 4.994140625 57 4.9931640625 57 -42.0888671875 44.3505859375 -56 0 -56 0 -48.9111328125 -44.3505859375 -4.9931640625 -57 rrcurveto
          58.5498046875 hmoveto
          2.28125 23.9501953125 21.033203125 19.5 23.9501953125 0 23.9501953125 0 16.9658203125 -19.5 -2.28125 -23.9501953125 -2.2802734375 -23.94921875 -19.9951171875 -18.5 -23.9501953125 0 -23.9501953125 0 -18.0048828125 18.5 2.28125 23.94921875 rrcurveto
          hintmask 11100000
          -411.909179688 -830.974609375 rmoveto
          -72 callsubr
          -72.2998046875 -445.75 rmoveto
          -71 callsubr
          endchar
        </CharString>
        <CharString name="Atilde">
          186 0 21 141.199996948 124.050003052 425.75 20 65.4499969482 89.8000030518 -55.25 89.8000030518 hstemhm
          hintmask 00001000
          323.990234375 852.299804688 rmoveto
          -68 callsubr
          hintmask 00010000
          -67 callsubr
          hintmask 00001000
          -66 callsubr
          hintmask 11100000
          -289.990234375 -852.299804688 rmoveto
          -72 callsubr
          -72.2998046875 -445.75 rmoveto
          -71 callsubr
          endchar
        </CharString>
        <CharString name="B">
          97 0 123.5 200.949996948 118 166.050003052 123.5 hstem
          60.75 hmoveto
          299.5 hlineto
          154 0 74.3999938965 42.4499969482 21.1500091553 155.800003052 13.4499969482 104 -46.3000030518 68.8999938965 -53.1999969482 8.85000610352 65.8000030518 10.5 48.8999938965 54.5500030518 10.9000091553 79.0999908447 15.5 106 -39.8500061035 101.850006104 -151.5 0 rrcurveto
          -296.75 hlineto
          44.1499938965 -608.5 rmoveto
          31.4499969482 200.949996948 153.550003052 0 rlineto
          59.25 -1.52587890625e-05 14 -49.3999938965 -8.69999694824 -53.6500091553 -12.3999938965 -77.75 -41.1000061035 -20.1499938965 -42.5 0 rrcurveto
          -102.949996948 318.949996948 rmoveto
          26.4499969482 166.050003052 148.5 0 rlineto
          40.8999938965 0 32.6999969482 -15.6999969482 -10.6000061035 -67.8500061035 -8.05000305176 -52.3000030518 -31.5999908447 -30.1999969482 -50.25 0 rrcurveto
          endchar
        </CharString>
        <CharString name="C">
          69 -6 129 488 129 hstem
          100.149993896 385.050003052 rmoveto
          -33.5 -211.799987793 38.1000061035 -177.600006104 186.25 -1.64999389648 110.649993896 -1.64999389648 74.8000030518 4.94999694824 74.5500030518 24.6499938965 rrcurveto
          16.8000030518 109.600006104 rlineto
          -63.8999938965 -4.49998474121 -85.1499938965 -5.40000915527 -77.5500030518 1.35000610352 -108.199996948 4.05000305176 -19.75 75.8499908447 26.8999938965 163.100006104 39.200012207 249 71 -4.44999694824 70.9499969482 0.449996948242 99.3999938965 0.899993896484 108.699996948 -15.6499938965 10.450012207 -1.35000610352 rrcurveto
          17.25 109.600006104 rlineto
          -75.1500091553 23.4499969482 -72.1499938965 12.0500030518 -102.600006104 0 -199 0 -70.6999969482 -121.5 -37.3500061035 -233.449996948 rrcurveto
          endchar
        </CharString>
        <CharString name="Cacute">
          69 -6 129 488 129 60 138.5 hstem
          406.875 235.100006104 vstem
          406.875 800 rmoveto
          -70 callsubr
          -419.32421875 -553.450195312 rmoveto
          4 callsubr
          endchar
        </CharString>
        <CharString name="Ccaron">
          69 -6 129 488 129 60 135.5 hstem
          326.570999146 308.5 vstem
          326.571289062 935.5 rmoveto
          -4 callsubr
          -316.720703125 -550.450195312 rmoveto
          4 callsubr
          endchar
        </CharString>
        <CharString name="Ccedilla">
          69 -177.949996948 60.1000061035 111.849990845 129 488 129 hstem
          272.899993896 94.5 vstem
          100.149993896 385.050003052 rmoveto
          -33.5 -211.799987793 38.1000061035 -177.600006104 186.25 -1.64999389648 110.649993896 -1.64999389648 74.8000030518 4.94999694824 74.5500030518 24.6499938965 rrcurveto
          16.8000030518 109.600006104 rlineto
          -63.8999938965 -4.49998474121 -85.1499938965 -5.40000915527 -77.5500030518 1.35000610352 -108.199996948 4.05000305176 -18.8500061035 75.8499908447 26.9000091553 163.100006104 39.1999969482 249 70.1000061035 -4.44999694824 70.9499969482 0.449996948242 99.3999938965 0.899993896484 108.699996948 -15.6499938965 10.450012207 -1.35000610352 rrcurveto
          17.25 109.600006104 rlineto
          -75.1500091553 23.4499969482 -72.1499938965 12.0500030518 -102.600006104 0 -199 0 -70.6999969482 -121.5 -37.3500061035 -233.449996948 rrcurveto
          75.6500091553 -563 rmoveto
          56.5 hlineto
          86.6000061035 1.52587890625e-05 32.5 39.5 16 102 0 0 -81.8999938965 -0.449996948242 -12.6000061035 0.449996948242 -6 -38 -4.59999084473 -18.1999969482 -30.4499969482 -10.200012207 rrcurveto
          -46.1999969482 -15 rlineto
          endchar
        </CharString>
        <CharString name="Ccircumflex">
          69 -6 129 488 129 60 135.5 hstem
          288.300003052 308.5 vstem
          288.299804688 800 rmoveto
          -46 callsubr
          -317.349609375 -550.450195312 rmoveto
          4 callsubr
          endchar
        </CharString>
        <CharString name="Cdotaccent">
          69 -6 129 488 129 60 124 hstem
          383.01499939 131.300003052 vstem
          383.014648438 823 rmoveto
          25 callsubr
          -295.165039062 -513.950195312 rmoveto
          4 callsubr
          endchar
        </CharString>
        <CharString name="D">
          153 0 124.850006104 483.649993896 123.5 hstem
          60.75 hmoveto
          306 hlineto
          176.899993896 0 89.8000030518 96.6499938965 39.1999969482 249.850006104 28.0500030518 178.100006104 -16.5999908447 207.399993896 -210.700012207 0 rrcurveto
          -27 -269.649993896 0 -0.449996948242 hvcurveto
          43.6999969482 -606.699996948 rmoveto
          76.6000061035 483.649993896 141.25 0 rlineto
          88.6000061035 0 36.6500091553 -54.0500030518 -30.3500061035 -190.449996948 -22.8999938965 -144.600006104 -49.4000091553 -94.549987793 -93.6999969482 0 rrcurveto
          endchar
        </CharString>
        <CharString name="Dcaron">
          153 0 124.850006104 483.649993896 123.5 62.75 135.5 hstem
          313.050003052 308.5 vstem
          313.049804688 930.25 rmoveto
          7 callsubr
          -335.399414062 -930.25 rmoveto
          306 hlineto
          176.899414062 0 89.80078125 96.650390625 39.19921875 249.849609375 28.05078125 178.099609375 -16.6005859375 207.400390625 -210.700195312 0 rrcurveto
          -27 -269.649414062 0 -0.4501953125 hvcurveto
          43.7001953125 -606.700195312 rmoveto
          76.599609375 483.650390625 141.25 0 rlineto
          88.599609375 0 36.650390625 -54.0498046875 -30.349609375 -190.450195312 -22.900390625 -144.599609375 -49.400390625 -94.55078125 -93.69921875 0 rrcurveto
          endchar
        </CharString>
        <CharString name="Dcroat">
          150 0 124.850006104 215.649993896 65 203 123.5 hstem
          66.0498046875 340.5 rmoveto
          65 0 -53.8994140625 -340.5 311.5 0 rlineto
          176.899414062 0 84.75 109.849609375 39.2001953125 236.650390625 28.0498046875 168.75 -13.2001953125 216.75 -210.69921875 0 rrcurveto
          -27 -273.5 0 -0.4501953125 hvcurveto
          -51.4501953125 -326.049804688 -65 0 rlineto
          160.149414062 -280.650390625 rmoveto
          34.2001953125 215.650390625 111.5 0 10.650390625 65 -111.5 0 31.75 203 149.5 0 rlineto
          82.5498046875 0 33.900390625 -54.0498046875 -30.3505859375 -190.450195312 -22.8994140625 -144.599609375 -49.9501953125 -94.55078125 -89.8505859375 0 rrcurveto
          endchar
        </CharString>
        <CharString name="E">
          58 -3 131.75 -114.75 114.75 168.399993896 135.100006104 -125.649993896 115.100006104 178.549987793 131.75 -131.75 115.75 hstemhm
          hintmask 10000000
          79.3000030518 150.5 rmoveto
          -19.9499816895 -126.449996948 94.516998291 -30.1333312988 70.5829925537 3.08332824707 rrcurveto
          hintmask 01000000
          0 0 246.199996948 9.30000305176 58.3000030518 7.69999694824 rrcurveto
          18.8000030518 114.75 rlineto
          hintmask 10100000
          -268.5 hlineto
          -29 0 -33.5500030518 -1 8.10000610352 53 rrcurveto
          18.8000030518 116.399993896 rlineto
          hintmask 00010000
          285.449996948 9.44999694824 18.8000030518 115.100006104 rlineto
          hintmask 00101000
          -282.899993896 10.5500030518 17.6999969482 112 rlineto
          4 27 6.25 29 50.200012207 0 rrcurveto
          278.5 0 rlineto
          hintmask 00000100
          -98 callsubr
          hintmask 10001000
          -63.2500152588 8.80000305176 -245.25 7.19999694824 0 0 -83.1499938965 1.80000305176 -80.3000030518 -25 -19.8500061035 -123.300003052 rrcurveto
          endchar
        </CharString>
        <CharString name="Eacute">
          58 -3 131.75 -114.75 114.75 168.399993896 135.100006104 -125.649993896 115.100006104 178.549987793 115.75 -115.75 131.75 60 138.5 hstemhm
          381.5 235.100006104 hintmask 00000011
          381.5 792 rmoveto
          -70 callsubr
          hintmask 10000000
          -414.799804688 -780 rmoveto
          -63 callsubr
          hintmask 01000000
          -62 callsubr
          hintmask 10100000
          -61 callsubr
          hintmask 00010000
          -60 callsubr
          hintmask 00100100
          -59 callsubr
          hintmask 00001000
          -58 callsubr
          hintmask 10000100
          -57 callsubr
          endchar
        </CharString>
        <CharString name="Ecaron">
          58 -3 131.75 -114.75 114.75 168.399993896 135.100006104 -125.649993896 115.100006104 178.549987793 115.75 -115.75 131.75 65 135.5 hstemhm
          301.563995361 308.5 hintmask 00000011
          301.564453125 932.5 rmoveto
          6 callsubr
          hintmask 10000000
          -312.564453125 -782 rmoveto
          -63 callsubr
          hintmask 01000000
          -62 callsubr
          hintmask 10100000
          -61 callsubr
          hintmask 00010000
          -60 callsubr
          hintmask 00100100
          -59 callsubr
          hintmask 00001000
          -58 callsubr
          hintmask 10000100
          -57 callsubr
          endchar
        </CharString>
        <CharString name="Ecircumflex">
          58 -3 131.75 -114.75 114.75 168.399993896 135.100006104 -125.649993896 115.100006104 178.549987793 115.75 -115.75 131.75 60 135.949996948 hstemhm
          275.100006104 308.5 hintmask 00000011
          275.099609375 792 rmoveto
          110.400390625 0 65.5498046875 64.0498046875 40.4501953125 -64.0498046875 92.099609375 0 -75.2998046875 135.950195312 -104 0 rlineto
          hintmask 10000000
          -325 -777.450195312 rmoveto
          -63 callsubr
          hintmask 01000000
          -62 callsubr
          hintmask 10100000
          -61 callsubr
          hintmask 00010000
          -60 callsubr
          hintmask 00100100
          -59 callsubr
          hintmask 00001000
          -58 callsubr
          hintmask 10000100
          -57 callsubr
          endchar
        </CharString>
        <CharString name="Edieresis">
          58 -3 131.75 -114.75 114.75 168.399993896 135.100006104 -125.649993896 115.100006104 178.549987793 115.75 -115.75 131.75 51.75 117.5 hstemhm
          241.350006104 117.5 137.5 117.5 hintmask 0000001110000000
          241.349609375 843 rmoveto
          -56 callsubr
          255 hmoveto
          -56 callsubr
          hintmask 1000000000000000
          -417.049804688 -692.5 rmoveto
          -63 callsubr
          hintmask 0100000000000000
          -62 callsubr
          hintmask 1010000000000000
          -61 callsubr
          hintmask 0001000000000000
          -60 callsubr
          hintmask 0010010000000000
          -59 callsubr
          hintmask 0000100000000000
          -58 callsubr
          hintmask 1000010000000000
          -57 callsubr
          endchar
        </CharString>
        <CharString name="Edotaccent">
          58 -3 131.75 -114.75 114.75 168.399993896 135.100006104 -125.649993896 115.100006104 178.549987793 115.75 -115.75 131.75 65 124 hstemhm
          377.509002686 131.300003052 hintmask 00000011
          377.508789062 820 rmoveto
          0 callsubr
          hintmask 10000000
          -310.508789062 -745.5 rmoveto
          -63 callsubr
          hintmask 01000000
          -62 callsubr
          hintmask 10100000
          -61 callsubr
          hintmask 00010000
          -60 callsubr
          hintmask 00100100
          -59 callsubr
          hintmask 00001000
          -58 callsubr
          hintmask 10000100
          -57 callsubr
          endchar
        </CharString>
        <CharString name="Egrave">
          58 -3 131.75 -114.75 114.75 168.399993896 135.100006104 -125.649993896 115.100006104 178.549987793 115.75 -115.75 131.75 60 138.5 hstemhm
          274.600006104 196.300003052 hintmask 00000011
          274.599609375 930.5 rmoveto
          -64 callsubr
          hintmask 10000000
          -314.200195312 -780 rmoveto
          -63 callsubr
          hintmask 01000000
          -62 callsubr
          hintmask 10100000
          -61 callsubr
          hintmask 00010000
          -60 callsubr
          hintmask 00100100
          -59 callsubr
          hintmask 00001000
          -58 callsubr
          hintmask 10000100
          -57 callsubr
          endchar
        </CharString>
        <CharString name="Emacron">
          58 -3 131.75 -114.75 114.75 168.399993896 135.100006104 -125.649993896 115.100006104 178.549987793 115.75 -115.75 131.75 60 79.5 hstemhm
          276.350006104 304.75 hintmask 00000011
          276.349609375 792 rmoveto
          -82 callsubr
          hintmask 10000000
          -209.799804688 -721 rmoveto
          -63 callsubr
          hintmask 01000000
          -62 callsubr
          hintmask 10100000
          -61 callsubr
          hintmask 00010000
          -60 callsubr
          hintmask 00100100
          -59 callsubr
          hintmask 00001000
          -58 callsubr
          hintmask 10000100
          -57 callsubr
          endchar
        </CharString>
        <CharString name="Eng">
          167 -257 101 177 -21 21 -21 732 -20 hstemhm
          hintmask 11010000
          60.75 hmoveto
          141 0 74.1999969482 467.5 208.25 -464.800003052 -10.8999938965 -67.1999969482 rlineto
          -13.4999847412 -85.8999938965 -57.9000091553 2.14999389648 -55.5 -7.75 rrcurveto
          -16.1499938965 -101 rlineto
          118 -7.14999389648 136.300003052 16.5999908447 27.8499908447 174.550003052 rrcurveto
          11.8000030518 74.8000030518 115.550003052 730.199996948 -140 0 -74.75 -473 -208.050003052 473 -140.199996948 0 rlineto
          endchar
        </CharString>
        <CharString name="Eogonek">
          56 -172.5 76.5 90 20 -17 131.75 -114.75 114.75 168.399993896 135.100006104 -125.649993896 115.100006104 178.549987793 115.75 -115.75 131.75 hstemhm
          hintmask 11000000
          475.150390625 14 rmoveto
          5 callsubr
          hintmask 00100000
          -449.100585938 136.5 rmoveto
          -63 callsubr
          hintmask 00010000
          -62 callsubr
          hintmask 00101000
          -61 callsubr
          hintmask 00000100
          -60 callsubr
          hintmask 00001001
          -59 callsubr
          hintmask 00000010
          -58 callsubr
          hintmask 00100001
          -57 callsubr
          endchar
        </CharString>
        <CharString name="Eth">
          150 0 124.850006104 215.649993896 65 203 123.5 hstem
          49.1999969482 340.5 rmoveto
          65 0 -53.8999938965 -340.5 311.5 0 rlineto
          176.900009155 0 84.75 109.850006104 39.1999969482 236.649993896 28.0500030518 168.75 -13.1999969482 216.75 -210.699996948 0 rrcurveto
          -27 -273.5 0 -0.449996948242 hvcurveto
          -51.4499969482 -326.050003052 -65 0 rlineto
          160.149993896 -280.649993896 rmoveto
          34.1999969482 215.649993896 111.5 0 10.6499938965 65 -111.5 0 31.75 203 149.5 0 rlineto
          82.549987793 0 33.9000091553 -54.0500030518 -30.3500061035 -190.449996948 -22.8999938965 -144.600006104 -49.9499969482 -94.549987793 -89.8500061035 0 rrcurveto
          endchar
        </CharString>
        <CharString name="Euro">
          202 -6 118 137.5 69 75 82 -74 65 150 123.5 hstemhm
          hintmask 11101000
          56.25 249.5 rmoveto
          76 -7 rlineto
          -36 -226 164.550003052 -22.5 77 0 105 0 87.6499938965 8.69999694824 78.9499969482 31.8000030518 rrcurveto
          16.1499938965 100 rlineto
          1.52587890625e-05 0 -145.100006104 -22.5 -90.9499969482 0 -74.1999969482 0 -62 15.1999969482 18.9499969482 115.300003052 -3 2 238 5 0 0 rrcurveto
          10.8500061035 69 -232.550003052 7 10.5 68 235 7 10.8500061035 68 -233 7 rlineto
          14.1500091553 81.8500061035 12.4499969482 59.1499938965 133.600006104 0 rrcurveto
          82 144.5 -15 0 hvcurveto
          16.1499938965 103 rlineto
          -75.1499938965 23.4499969482 -128.800003052 12.0500030518 -52 0 -244 0 -31.9000091553 -192.5 -11 -72 rrcurveto
          hintmask 11011000
          -78 -9 -10.3000030518 -65 rlineto
          hintmask 11101000
          75.4499969482 -8 -10.5 -68 -78.4499969482 -7 rlineto
          endchar
        </CharString>
        <CharString name="Euro.smcp">
          16 -5 120.100006104 81.1499938965 63.5 48 60.5 90.75 118 hstem
          42.6000061035 196.25 rmoveto
          56.4499969482 -6 rlineto
          -23.049987793 -164.449996948 113.449996948 -30.8000030518 82.1500091553 0 65 0 102.849990845 7.25 57.1999969482 20.75 rrcurveto
          16.6000061035 105.550003052 rlineto
          1.52587890625e-05 -120.199996948 -13.4499969482 -77.5 vhcurveto
          -42.4000091553 0 -45.3999938965 5.79998779297 11.8500061035 69.3500061035 -2 2 177.449996948 4 0 0 rrcurveto
          9.75 63.5 -173 5 5.69999694824 37 175 5 10.1999969482 62.5 -173.449996948 6 rlineto
          7.89999389648 44.8000030518 22.0500030518 38.9499969482 73.3000030518 0 rrcurveto
          64 125 -11 0 hvcurveto
          16.1499938965 106 rlineto
          -70.5999908447 13.3000030518 -101.900009155 9.69999694824 -41 0 -199.399993896 0 -25.8500061035 -128.699996948 -10.6499938965 -73.0500030518 rrcurveto
          -58.4499969482 -7 -9.30000305176 -60.5 56 -6 -5.69999694824 -37 -58.4499969482 -5 rlineto
          endchar
        </CharString>
        <CharString name="F">
          59 21 -21 21 -21 294.949996948 135.100006104 -125.650009155 115.100006104 180.75 131.75 -131.75 115.75 hstemhm
          hintmask 10100000
          58 hmoveto
          140 0 46.6000061035 294.949996948 rlineto
          hintmask 00010000
          287 9.44999694824 17.8000030518 115.100006104 rlineto
          hintmask 00101000
          -283 10.5500030518 17.8000030518 114.199996948 rlineto
          3.99998474121 27 6.80000305176 29 50.1999969482 0 rrcurveto
          hintmask 00000100
          278.5 0 17.8000030518 115.75 rlineto
          hintmask 10101000
          -63.25 8.80000305176 -245.25 7.19999694824 0 0 -83.6999969482 1.80000305176 -80.8500061035 -36 -19.8499908447 -123.300003052 rrcurveto
          endchar
        </CharString>
        <CharString name="G">
          111 -5.89999389648 131.199996948 177.699996948 113.5 199.550003052 123.5 hstem
          103.800003052 390.649993896 rmoveto
          -35.1499938965 -190.899993896 19.5500030518 -212.350006104 198.650009155 6.70001220703 78.1999969482 2.75 48.1499938965 22.3499908447 33.1000061035 33.4000091553 rrcurveto
          30.3500061035 -52.6000061035 101 0 65.9499969482 413.5 rlineto
          -24 2 -22.5500030518 1 -21 0 -72.75 0 -60.4000091553 -6.85000610352 -45.8499908447 -18.1499938965 rrcurveto
          -14.0500030518 -88.5 103 0 -21.8999938965 -127.649993896 rlineto
          0 -61.5500030518 -50.0500030518 -69.1999969482 vhcurveto
          -101.050003052 -0.449996948242 -13.1500091553 78.25 26 163.549987793 34.5500030518 226.900009155 63.0500030518 22.9499969482 77.6999969482 -0.449996948242 90.5500030518 -0.449996948242 115.550003052 -13.9000091553 30.3000030518 -4.05000305176 rrcurveto
          16.8000030518 107.399993896 rlineto
          -101.549987793 26.200012207 -56.8000030518 8.75 -109.5 -0.449996948242 -199 0 -60.1500091553 -115.449996948 -42.8499908447 -233.450012207 rrcurveto
          endchar
        </CharString>
        <CharString name="Gbreve">
          111 -5.89999389648 131.199996948 177.699996948 113.5 199.550003052 123.5 60.0189971924 56.4499969482 hstem
          340.677001953 57.5500030518 113.549987793 57.5500030518 vstem
          340.676757812 912.46875 rmoveto
          -6 -70.7001953125 49.0498046875 -42.19921875 61.80078125 0 70.099609375 0 45.4501953125 39.0498046875 8.25 73.849609375 rrcurveto
          -57.5498046875 hlineto
          -4.7001953125 -38.349609375 -20.75 -18.5498046875 -40.25 0.44921875 -32.4501953125 0 -19.75 20.6005859375 4.349609375 35.849609375 rrcurveto
          -294.426757812 -521.818359375 rmoveto
          24 callsubr
          endchar
        </CharString>
        <CharString name="Gcircumflex">
          111 -5.89999389648 131.199996948 177.699996948 113.5 199.550003052 123.5 60.0189971924 135.5 hstem
          283.822998047 308.5 vstem
          283.823242188 799.569335938 rmoveto
          -41 callsubr
          -309.223632812 -544.418945312 rmoveto
          24 callsubr
          endchar
        </CharString>
        <CharString name="Gcommaaccent">
          111 -271.199996948 43.6499938965 221.650009155 131.199996948 177.699996948 113.5 199.550003052 123.5 hstem
          247.23500061 143.550003052 vstem
          hintmask 00000000
          247.235351562 -271.200195312 rmoveto
          0 0 110.024414062 -30.5546875 15.9755859375 99.8544921875 rrcurveto
          17.5498046875 110.700195312 rlineto
          1.7998046875 13.5 -3.1953125 10.7998046875 -16.19921875 0 rrcurveto
          -75.6005859375 hlineto
          -14.3994140625 0 -9.4052734375 -8.099609375 -2.7001953125 -16.2001953125 rrcurveto
          -12.150390625 -78.2998046875 rlineto
          -2.69921875 -15.2998046875 9 -7.2001953125 12.599609375 0 rrcurveto
          9.900390625 0 -2.115234375 -12.599609375 rlineto
          -1.7998046875 -9.4052734375 -2.6103515625 -14.4453125 -27 0.900390625 rrcurveto
          -150.41015625 618.200195312 rmoveto
          24 callsubr
          endchar
        </CharString>
        <CharString name="Gdotaccent">
          111 -5.89999389648 131.199996948 177.699996948 113.5 199.550003052 123.5 60.4499969482 124 hstem
          386.050003052 131.300003052 vstem
          386.049804688 823 rmoveto
          0 callsubr
          -294.549804688 -508.349609375 rmoveto
          24 callsubr
          endchar
        </CharString>
        <CharString name="H">
          135 21 -21 21 -21 289.5 129 313.5 -20 hstemhm
          hintmask 10110000
          63 hmoveto
          140 0 46.0500030518 289.5 251 0 -46.0500030518 -289.5 140 0 116 732 -140 0 -50.0500030518 -313.5 -251 0 50.0500030518 313.5 -140 0 rlineto
          endchar
        </CharString>
        <CharString name="Hbar">
          159 21 -21 21 -21 289.949996948 129.449996948 97.0500030518 65.4499969482 150.100006104 -20 hstemhm
          hintmask 10111000
          63.5500030518 hmoveto
          140 0 46.5 289.949996948 251 0 -46.5 -289.949996948 140 0 82 516.449996948 62.3000030518 0 9.64999389648 65.4499969482 -62.3000030518 0 24.3500061035 150.100006104 -140 0 -24.3500061035 -150.100006104 -251 0 24.3500061035 150.100006104 -140 0 rlineto
          -24.3500061035 -150.100006104 -63.1999969482 0 -9.64999389648 -65.4499969482 63.1999969482 0 rlineto
          124.400009155 -97.0500183105 rmoveto
          15.6000061035 97.0500030518 251 0 -15.6000061035 -97.0500030518 rlineto
          endchar
        </CharString>
        <CharString name="Hcircumflex">
          135 0 21 268.5 129 293.5 20 65 135.5 hstem
          300.457000732 308.5 vstem
          300.45703125 797 rmoveto
          -49 callsubr
          -366.657226562 -932.5 rmoveto
          140 0 46.0498046875 289.5 251 0 -46.0498046875 -289.5 140 0 116 732 -140 0 -50.0498046875 -313.5 -251 0 50.0498046875 313.5 -140 0 rlineto
          endchar
        </CharString>
        <CharString name="I">
          -246 21 -21 21 -21 732 -20 hstemhm
          65.25 256 hintmask 10110000
          65.25 hmoveto
          -97 callsubr
          endchar
        </CharString>
        <CharString name="Iacute">
          -246 0 21 691 20 65 138.5 hstemhm
          65.25 256 -105.018005371 235.100006104 hintmask 00101000
          216.232421875 797 rmoveto
          -70 callsubr
          hintmask 11010000
          -263.58203125 -935.5 rmoveto
          -97 callsubr
          endchar
        </CharString>
        <CharString name="Icircumflex">
          -246 0 21 691 20 65 135.5 hstemhm
          65.25 256 -214.043395996 308.5 hintmask 00101000
          107.20703125 797 rmoveto
          -69 callsubr
          hintmask 11010000
          -171.15625 -932.5 rmoveto
          -97 callsubr
          endchar
        </CharString>
        <CharString name="Idieresis">
          -246 0 21 691 20 65 117.5 hstemhm
          65.25 256 -236.356506348 117.5 137.5 117.5 hintmask 00101100
          84.8935546875 856.25 rmoveto
          -65 callsubr
          255 hmoveto
          -65 callsubr
          hintmask 11010000
          -274.643554688 -856.25 rmoveto
          -97 callsubr
          endchar
        </CharString>
        <CharString name="Idotaccent">
          -246 0 21 691 20 65 124 hstemhm
          65.25 256 -115.82800293 131.300003052 hintmask 00101000
          205.421875 820 rmoveto
          0 callsubr
          hintmask 11010000
          -152.471679688 -896 rmoveto
          -97 callsubr
          endchar
        </CharString>
        <CharString name="Idotaccent.smcp">
          -259 21 -21 21 -21 621 124 hstemhm
          155.399993896 131.300003052 hintmask 10110000
          42.9499969482 hmoveto
          49 callsubr
          hintmask 00110000
          22.450378418 74 rmoveto
          0 callsubr
          endchar
        </CharString>
        <CharString name="Igrave">
          -246 0 21 691 20 65 138.5 hstemhm
          65.25 256 -210.318450928 196.300003052 hintmask 00101000
          110.931640625 935.5 rmoveto
          -55 callsubr
          hintmask 11010000
          -164.58203125 -935.5 rmoveto
          -97 callsubr
          endchar
        </CharString>
        <CharString name="Imacron">
          -246 0 21 691 20 62.75 79.5 hstemhm
          43.6499938965 256 -210.949996948 304.75 hintmask 00101000
          88.7001953125 794.75 rmoveto
          -82 callsubr
          hintmask 11010000
          -57.7998046875 -874.25 rmoveto
          -97 callsubr
          endchar
        </CharString>
        <CharString name="Iogonek">
          -246 -185.915130615 76.5 90 20 -0.584869384766 21 691 20 hstemhm
          65.25 256 hintmask 00000000
          hintmask 11000000
          112.91796875 0.5849609375 rmoveto
          -152.8125 -71.7001953125 77.2529296875 -140.700195312 109.876953125 25.900390625 rrcurveto
          12.1533203125 76.5 rlineto
          -57.478515625 -5.099609375 -21.9658203125 55.349609375 88.2607421875 59.75 rrcurveto
          hintmask 00111000
          -102.955078125 -0.5849609375 rmoveto
          -97 callsubr
          endchar
        </CharString>
        <CharString name="Itilde">
          -246 0 21 691 20 65.4499969482 89.8000030518 -55.25 89.8000030518 hstemhm
          65.25 256 hintmask 00010000
          98.33984375 852.299804688 rmoveto
          -68 callsubr
          hintmask 00100000
          -48 callsubr
          hintmask 00010000
          -66 callsubr
          hintmask 11001000
          -33.08984375 -852.299804688 rmoveto
          -97 callsubr
          endchar
        </CharString>
        <CharString name="J">
          -146 732 -20 hstem
          29.75 23.1999969482 rmoveto
          47 -34.0000152588 126.25 -5.19999694824 58 34 55 32 14.1000061035 68 7 47 rrcurveto
          90 567 -140 0 -80.1000061035 -505.949996948 rlineto
          -16.0500030518 -102.649993896 -52.4499969482 0.700012207031 -89.6999969482 8.09999084473 rrcurveto
          endchar
        </CharString>
        <CharString name="Jcircumflex">
          -146 712 20 65 135.5 hstem
          213.057006836 308.5 vstem
          213.056640625 797 rmoveto
          -46 callsubr
          -312.506835938 -909.299804688 rmoveto
          47 -34 126.25 -5.2001953125 58 34 55 32 14.099609375 68 7 47 rrcurveto
          90 567 -140 0 -80.099609375 -505.950195312 rlineto
          -16.0498046875 -102.649414062 -52.4501953125 0.69921875 -89.7001953125 8.1005859375 rrcurveto
          endchar
        </CharString>
        <CharString name="K">
          118 21 -21 21 -21 732 -20 hstemhm
          hintmask 10100000
          60.75 hmoveto
          135.5 0 47.6000061035 302.5 67.8999938965 0 131.050003052 -302.5 159.949996948 0 -163.25 354.850006104 279.25 377.149993896 -169.550003052 0 -231 -306 -55.6499938965 0 48.6999969482 306 -134.5 0 rlineto
          endchar
        </CharString>
        <CharString name="Kcommaaccent">
          118 -266.199996948 43.6499938965 222.550003052 21 691 20 hstem
          224.335006714 143.550003052 vstem
          hintmask 00000000
          224.334960938 -266.200195312 rmoveto
          40 callsubr
          -170.559570312 222.549804688 rmoveto
          135.5 0 47.599609375 302.5 67.900390625 0 131.049804688 -302.5 159.950195312 0 -163.25 354.849609375 279.25 377.150390625 -169.549804688 0 -231 -306 -55.650390625 0 48.7001953125 306 -134.5 0 rlineto
          endchar
        </CharString>
        <CharString name="L">
          27 0 129 603 -20 hstem
          82.5 142.5 rmoveto
          -16.6499938965 -104.449996948 66.1999969482 -38.0500030518 80.1999969482 0 rrcurveto
          301.399993896 0 20.3500061035 129 -251 0 rlineto
          -29 0 -33.4499969482 -1 8 53 rrcurveto
          87.6499938965 551 -139.550003052 0 rlineto
          endchar
        </CharString>
        <CharString name="Lacute">
          27 0 129 583 20 60 138.5 hstem
          156.25 235.100006104 vstem
          156.25 792 rmoveto
          -70 callsubr
          -236.799804688 -788 rmoveto
          -16.6494140625 -104.450195312 66.19921875 -38.0498046875 80.2001953125 0 rrcurveto
          301.400390625 0 20.349609375 129 -251 0 rlineto
          -29 0 -33.4501953125 -1 8 53 rrcurveto
          87.650390625 551 -139.549804688 0 rlineto
          endchar
        </CharString>
        <CharString name="Lcaron">
          27 0 129 603 -20 hstem
          361.649993896 75 vstem
          82.5 142.5 rmoveto
          -16.6499938965 -104.449996948 66.1959991455 -38.0500030518 80.203994751 0 rrcurveto
          301.399993896 0 20.3500061035 129 -251 0 rlineto
          -29 0 -33.4499969482 -1 8 53 rrcurveto
          87.6499938965 551 -139.550003052 0 rlineto
          185 -161 rmoveto
          75 0 31 134 10.4499969482 67 -96 0 -10.4499969482 -67 rlineto
          endchar
        </CharString>
        <CharString name="Lcommaaccent">
          27 -266.199996948 43.6499938965 222.550003052 129 583 20 hstem
          205.134994507 143.550003052 vstem
          hintmask 00000000
          205.134765625 -266.200195312 rmoveto
          36 callsubr
          -129.610351562 365.049804688 rmoveto
          -16.650390625 -104.450195312 66.2001953125 -38.0498046875 80.2001953125 0 rrcurveto
          301.400390625 0 20.349609375 129 -251 0 rlineto
          -29 0 -33.4501953125 -1 8 53 rrcurveto
          87.650390625 551 -139.549804688 0 rlineto
          endchar
        </CharString>
        <CharString name="Lslash">
          28 0 129 603 -20 hstem
          29.6999969482 305.149993896 rmoveto
          83.9499969482 33.6999969482 -31.5 -196.350006104 rlineto
          -16.6499938965 -104.449996948 66.7460021973 -38.0500030518 80.203994751 0 rrcurveto
          300.949996948 0 20.25 129 -251.449996948 0 rlineto
          -29.0000152588 0 -33 -1 8 53 rrcurveto
          34.8500061035 217.899993896 118.949996948 47.8999938965 12.1000061035 71.5500030518 -119.850006104 -47.8999938965 41.1499938965 261.550003052 -139.550003052 0 -50.5500030518 -321.600006104 -83.9499969482 -33.25 rlineto
          endchar
        </CharString>
        <CharString name="M">
          325 21 -21 21 -21 732 -20 hstemhm
          hintmask 10100000
          49 hmoveto
          141.100006104 0 117.949996948 488.550003052 45.1000061035 -488.550003052 159.050003052 0 197.550003052 489 -34.3999938965 -489 138.350006104 0 47.3500061035 732 -196.699996948 0 -198.899993896 -500.100006104 -44.25 500.100006104 -191.699996948 0 rlineto
          endchar
        </CharString>
        <CharString name="M.salt">
          356 21 -21 21 -21 hstemhm
          324.199996948 131.300003052 -123.800003052 129 hintmask 10100000
          41.8000030518 hmoveto
          139 0 115.949996948 563.050003052 rlineto
          3.89999389648 20.1500091553 23.75 1.15000915527 -0.199996948242 -16.5500030518 rrcurveto
          hintmask 10010000
          7.5 -300.199996948 rlineto
          -0.500015258789 -138.25 240.300003052 6.19999694824 36 122.300003052 rrcurveto
          98.3000030518 306.600006104 rlineto
          4.80001831055 15.9999847412 25.0999908447 1.15000915527 -2.44999694824 -17 rrcurveto
          -56.8500061035 -564.600006104 142 0 57.5 627.75 rlineto
          12.950012207 139.300003052 -265.5 10.4499969482 -36.5 -150.949996948 rrcurveto
          -97.8500061035 -318.050003052 rlineto
          -3.80000305176 -15.5500030518 -24.8000030518 -4 0.300003051758 19.5500030518 rrcurveto
          hintmask 10100000
          -5.19999694824 306.399993896 rlineto
          9.5 160.800003052 -263.100006104 -6.30000305176 -27.549987793 -146 rrcurveto
          endchar
        </CharString>
        <CharString name="N">
          167 21 -21 21 -21 732 -20 hstemhm
          hintmask 10100000
          60.75 hmoveto
          141 0 74.1999969482 470.25 209.600006104 -470.25 138.199996948 0 116 732 -140 0 -74.75 -475.75 -208.050003052 475.75 -140.199996948 0 rlineto
          endchar
        </CharString>
        <CharString name="N.salt">
          210 21 -21 21 -21 732 -20 hstemhm
          hintmask 10100000
          60.75 hmoveto
          140.550003052 0 94.8500061035 599.350006104 rlineto
          3 17 21.75 5.54998779297 1.25 -15.549987793 rrcurveto
          65.3000030518 -485.199996948 rlineto
          7.24998474121 -173.349990845 267.699996948 7.80000305176 25.9000091553 165.649993896 rrcurveto
          94.5 610.75 -140 0 -93.75 -590.199996948 rlineto
          -2.89999389648 -18.5999908447 -19.8499908447 -3.5 -1.69999694824 19.1000061035 rrcurveto
          -67.1000061035 487.850006104 rlineto
          -4.75 147.450012207 -271.399993896 9.39999389648 -25.6500091553 -171.649993896 rrcurveto
          endchar
        </CharString>
        <CharString name="Nacute">
          167 0 21 691 20 65 138.5 hstem
          422.957000732 235.100006104 vstem
          422.95703125 797 rmoveto
          -70 callsubr
          -474.806640625 -935.5 rmoveto
          -53 callsubr
          endchar
        </CharString>
        <CharString name="Nacute.salt">
          210 0 21 691 20 67.1999969482 138.5 hstem
          467.899993896 235.100006104 vstem
          467.900390625 799.200195312 rmoveto
          -70 callsubr
          -519.75 -937.700195312 rmoveto
          84 callsubr
          endchar
        </CharString>
        <CharString name="Ncaron">
          167 0 21 691 20 65 135.5 hstem
          335.852005005 308.5 vstem
          335.8515625 932.5 rmoveto
          -1 callsubr
          -365.40234375 -932.5 rmoveto
          -53 callsubr
          endchar
        </CharString>
        <CharString name="Ncaron.salt">
          210 0 21 691 20 67.1999969482 135.5 hstem
          366.850006104 308.5 vstem
          366.849609375 934.700195312 rmoveto
          -1 callsubr
          -396.400390625 -934.700195312 rmoveto
          84 callsubr
          endchar
        </CharString>
        <CharString name="Ncommaaccent">
          167 -266.199996948 43.6499938965 222.550003052 21 691 20 hstem
          258.785003662 143.550003052 vstem
          hintmask 00000000
          258.78515625 -266.200195312 rmoveto
          37 callsubr
          -205.009765625 222.549804688 rmoveto
          -53 callsubr
          endchar
        </CharString>
        <CharString name="Ncommaaccent.salt">
          210 -288.490005493 46.3175048828 242.17250061 21 691 20 hstem
          276.095748901 152.322494507 vstem
          hintmask 00000000
          276.095703125 -288.490234375 rmoveto
          0 0 116.749023438 -32.421875 16.951171875 105.95703125 rrcurveto
          18.6220703125 117.46484375 rlineto
          1.91015625 14.3251953125 -3.3896484375 11.4599609375 -17.1904296875 0 rrcurveto
          -80.2197265625 hlineto
          -15.2802734375 0 -9.9794921875 -8.5947265625 -2.865234375 -17.1904296875 rrcurveto
          -12.892578125 -83.0849609375 rlineto
          -2.865234375 -16.234375 9.5498046875 -7.640625 13.3701171875 0 rrcurveto
          10.5048828125 0 -2.244140625 -13.3701171875 rlineto
          -1.91015625 -9.9794921875 -2.7685546875 -15.328125 -28.650390625 0.955078125 rrcurveto
          -222.747070312 242.172851562 rmoveto
          84 callsubr
          endchar
        </CharString>
        <CharString name="Ntilde">
          167 0 21 691 20 63.1999969482 89.8000030518 -55.25 89.8000030518 hstemhm
          hintmask 00010000
          302.150390625 850.049804688 rmoveto
          -54 callsubr
          hintmask 00100000
          -67 callsubr
          hintmask 00010000
          -66 callsubr
          hintmask 11000000
          -241.400390625 -850.049804688 rmoveto
          -53 callsubr
          endchar
        </CharString>
        <CharString name="Ntilde.salt">
          210 0 21 691 20 65.4499969482 89.8000030518 -55.25 89.8000030518 hstemhm
          hintmask 00010000
          303.900390625 852.299804688 rmoveto
          -54 callsubr
          hintmask 00100000
          -67 callsubr
          hintmask 00010000
          -66 callsubr
          hintmask 11000000
          -243.150390625 -852.299804688 rmoveto
          84 callsubr
          endchar
        </CharString>
        <CharString name="O">
          164 -4 129 483 129 hstem
          103.449996948 374.75 rmoveto
          -53.0000152588 -333 121.600006104 -45.75 171.899993896 0 176.850006104 0 120.550003052 28.25 50.0999908447 323 52.1999969482 337.600006104 -117.799987793 52.1499938965 -173.450012207 0 -171.149993896 0 -123.800003052 -19.25 -54 -343 rrcurveto
          140 -13.75 rmoveto
          -96 callsubr
          endchar
        </CharString>
        <CharString name="OE">
          536 -4 129 -111 114.75 168.399993896 135.100006104 -125.649993896 115.100006104 178.549987793 131.75 -131.75 115.75 -108 129 hstemhm
          hintmask 10000000
          86.9499969482 374.75 rmoveto
          -53.0000152588 -333 121.600006104 -45.75 171.899993896 0 82.6500091553 0 69.5999908447 7.05000305176 56 41.3999938965 26.6500091553 -37.1499938965 49.4499969482 -12.75 41.0999908447 2.44999694824 rrcurveto
          hintmask 01100000
          0 0 245.75 9.30000305176 58.3000030518 7.69999694824 rrcurveto
          18.25 114.75 -268.5 0 rlineto
          -29.0000152588 0 -33 -1 8.10000610352 53 rrcurveto
          18.8000030518 116.399993896 rlineto
          hintmask 00010000
          285.899993896 9.44999694824 17.8000030518 115.100006104 rlineto
          hintmask 00101000
          -282.449996948 10.5500030518 17.25 112 rlineto
          4 27 6.79998779297 29 50.200012207 0 rrcurveto
          278.5 0 rlineto
          hintmask 00000100
          -98 callsubr
          hintmask 00001000
          -63.2500152588 8.80000305176 -245.800003052 7.19999694824 0 0 -53.3999938965 3 -49.6499938965 -9.5 -33.3500061035 -44.6499938965 rrcurveto
          hintmask 10000010
          -42.6499938965 45.4499969482 -65.5500030518 10.6999969482 -78.4000091553 0 rrcurveto
          -171.149993896 0 -123.800003052 -19.25 -54 -343 rrcurveto
          140 -13.75 rmoveto
          -96 callsubr
          endchar
        </CharString>
        <CharString name="Oacute">
          164 -4 129 483 129 60 138.5 hstem
          416.475006104 235.100006104 vstem
          416.474609375 797 rmoveto
          -50 callsubr
          -425.625 -560.75 rmoveto
          -52 callsubr
          140 -13.75 rmoveto
          -51 callsubr
          endchar
        </CharString>
        <CharString name="Ocircumflex">
          164 -4 129 483 129 60 135.5 hstem
          308 308.5 vstem
          308 797 rmoveto
          -49 callsubr
          -333.75 -557.75 rmoveto
          -52 callsubr
          140 -13.75 rmoveto
          -51 callsubr
          endchar
        </CharString>
        <CharString name="Odieresis">
          164 -4 129 483 129 60 117.5 hstem
          285.68699646 117.5 137.5 117.5 vstem
          285.686523438 856.25 rmoveto
          -56 callsubr
          255 hmoveto
          -56 callsubr
          -437.236328125 -481.5 rmoveto
          -52 callsubr
          140 -13.75 rmoveto
          -51 callsubr
          endchar
        </CharString>
        <CharString name="Ograve">
          164 -4 129 483 129 60 138.5 hstem
          311.175003052 196.300003052 vstem
          311.174804688 935.5 rmoveto
          -55 callsubr
          -326.625 -560.75 rmoveto
          -52 callsubr
          140 -13.75 rmoveto
          -51 callsubr
          endchar
        </CharString>
        <CharString name="Ohungarumlaut">
          164 -4 129 483 129 60 138.5 hstem
          338.799804688 797 rmoveto
          -50 callsubr
          43.2998046875 -138.5 rmoveto
          -70 callsubr
          -503.849609375 -560.75 rmoveto
          -52 callsubr
          140 -13.75 rmoveto
          -51 callsubr
          endchar
        </CharString>
        <CharString name="Omacron">
          164 -4 129 483 129 57.75 79.5 hstem
          319.550003052 304.75 vstem
          319.549804688 794.75 rmoveto
          -82 callsubr
          -228.849609375 -499.5 rmoveto
          -52 callsubr
          140 -13.75 rmoveto
          -51 callsubr
          endchar
        </CharString>
        <CharString name="Omega">
          260 0 116.5 493.5 129 hstem
          55.0500030518 hmoveto
          242 0 20.6999969482 127.5 rlineto
          -87.1000061035 86.3000030518 1.25 58.9499969482 17.1500091553 107.25 16.3999938965 105.100006104 56.9499969482 124.899993896 156.100006104 0 156 0 11.8999938965 -124 -15.8499908447 -101 -17.1500091553 -108.800003052 -21.75 -75.5999908447 -106.399993896 -73.1000061035 rrcurveto
          -20.6999969482 -127.5 250 0 18.6999969482 116.5 -105 10 rlineto
          90.3000030518 69.8000030518 33.5500030518 75.1999969482 19 117 29 182 -68.200012207 168.5 -238.099990845 0 -262 0 -92.8500061035 -169.949996948 -26.25 -153.550003052 -16.1999969482 -94.4499969482 1.30000305176 -124.350006104 88.9499969482 -69.1999969482 rrcurveto
          -113 -10 rlineto
          endchar
        </CharString>
        <CharString name="Oslash">
          164 -4 129 483 129 hstem
          42.6000061035 hmoveto
          74.75 0 34.1000061035 40.4499969482 rlineto
          45.549987793 -38.0000152588 67.6499938965 -6.44999694824 77.4000091553 0 176.849990845 0 120.550003052 25.5 50.1000061035 323 23 149.350006104 -10 106.949996948 -32.9000091553 55 rrcurveto
          63.9499969482 76.1999969482 -74.75 0 -28.3500061035 -34.1499938965 rlineto
          -44.1000061035 32.25 -63 6.89999389648 -72.3499908447 0 -171.150009155 0 -124.349990845 -16.5 -54 -343 -21.9000091553 -135.399993896 8.35000610352 -102.300003052 27.6000061035 -53.5500030518 rrcurveto
          125.949996948 274.75 rmoveto
          36.5500183105 233 48.3999938965 14 108.25 0 42.8999938965 0 34.25 -2.64999389648 21.6500091553 -19.8500061035 rrcurveto
          -298.399993896 -359.550003052 rlineto
          -5.64999389648 30.3499908447 2.19999694824 42.6999969482 9.85000610352 62 rrcurveto
          9.59999084473 -204 rmoveto
          305.449996948 367.800003052 rlineto
          7.19999694824 -35.1999816895 -2.30000305176 -51.200012207 -11.9499969482 -77.3999938965 -31.3000030518 -197.300003052 -48.6999969482 -38.6999969482 -111.199996948 0 -53.1000061035 0 -34.4499969482 7.10000610352 -19.6500091553 24.8999938965 rrcurveto
          endchar
        </CharString>
        <CharString name="Otilde">
          164 -4 129 483 129 60.4499969482 89.8000030518 -55.25 89.8000030518 hstemhm
          hintmask 00010000
          298.583007812 852.299804688 rmoveto
          -68 callsubr
          hintmask 00100000
          -48 callsubr
          hintmask 00010000
          -66 callsubr
          hintmask 11000000
          -195.1328125 -477.549804688 rmoveto
          -52 callsubr
          140 -13.75 rmoveto
          -51 callsubr
          endchar
        </CharString>
        <CharString name="P">
          95 21 -21 21 -21 270.5 123.5 -104.850006104 104.850006104 213.5 124.5 hstemhm
          hintmask 10011000
          57.9499969482 hmoveto
          140 0 46.0500030518 289.149993896 rlineto
          hintmask 10101000
          5 -3 118 -14 40 -1.64999389648 83.3500061035 -3.85000610352 122.599990845 -7.39999389648 34.3000030518 230.5 28.6000061035 190.399993896 -104.25 51.8500061035 -91.6500091553 0 rrcurveto
          -306 hlineto
          hintmask 00011000
          86.299987793 -338 rmoveto
          34 213.5 155 0 rlineto
          36.8000030518 0 33.1499938965 -16.4499969482 -12.9499969482 -86.4499969482 rrcurveto
          hintmask 00101000
          -13.8500061035 -87.9000091553 -33.299987793 -22.6999969482 -44.3000030518 0 rrcurveto
          endchar
        </CharString>
        <CharString name="Q">
          166 -174.25 113 57.25 129 483 129 hstem
          105.25 377.5 rmoveto
          -53 -333 121.600006104 -48.5 171.899993896 0 176.850006104 1.10000610352 120.549987793 24.3999938965 50.1000061035 323 52.1999969482 337.600006104 -117.800003052 54.8999938965 -173.449996948 0 -171.149993896 0 -123.800003052 -16.5 -54 -343 rrcurveto
          140 -16.5 rmoveto
          36.5500030518 233 48.3999938965 14 108.25 0 105.850006104 0 44.9499969482 -18.9499969482 -36 -228.050003052 -31.3000030518 -197.300003052 -49.25 -38.6999969482 -111.199996948 0 -121.399993896 0 -26.5 36.1999969482 31.6499938965 199.800003052 rrcurveto
          47.8000030518 -394 rmoveto
          -12.6499938965 -128.050003052 128.550003052 -35.25 104.050003052 22.0500030518 rrcurveto
          17.9499969482 113 rlineto
          -61.5500183105 -16.0500030518 -74.299987793 -9.05000305176 -22.5500030518 53.3500061035 rrcurveto
          endchar
        </CharString>
        <CharString name="R">
          101 21 -21 21 -21 288.75 109.100006104 209.649993896 124.5 hstemhm
          hintmask 10110000
          57.9499969482 hmoveto
          140 0 45.6999969482 288.75 112.5 -8.5 85.8000030518 -280.25 158 0 -103.800003052 288.25 rlineto
          35.6000061035 5.10000610352 90.6499938965 14.549987793 23.950012207 182.100006104 23.5999908447 175.25 -77 66.75 -109.75 0 rrcurveto
          -309.25 hlineto
          87.8499908447 -334.149993896 rmoveto
          33.4499969482 209.649993896 154.5 0 rlineto
          47.6000061035 0 16.799987793 -20.1499938965 -8.79998779297 -83.6000061035 -8.45001220703 -77.1999969482 -30.049987793 -28.6999969482 -52.8000030518 0 rrcurveto
          endchar
        </CharString>
        <CharString name="Racute">
          101 0 21 267.75 109.100006104 209.649993896 124.5 62.25 138.5 hstem
          365.932006836 235.100006104 vstem
          365.931640625 794.25 rmoveto
          -50 callsubr
          -427.182617188 -932.75 rmoveto
          140 0 45.7001953125 288.75 112.5 -8.5 85.7998046875 -280.25 158 0 -103.799804688 288.25 rlineto
          35.6005859375 5.099609375 90.6494140625 14.55078125 23.9501953125 182.099609375 23.599609375 175.25 -77 66.75 -109.75 0 rrcurveto
          -309.25 hlineto
          87.8505859375 -334.150390625 rmoveto
          33.4501953125 209.650390625 154.5 0 rlineto
          47.599609375 0 16.7998046875 -20.150390625 -8.7998046875 -83.599609375 -8.4501953125 -77.2001953125 -30.0498046875 -28.7001953125 -52.7998046875 0 rrcurveto
          endchar
        </CharString>
        <CharString name="Rcaron">
          101 0 21 267.75 109.100006104 209.649993896 124.5 65 135.5 hstem
          291.526992798 308.5 vstem
          291.52734375 932.5 rmoveto
          6 callsubr
          -323.876953125 -932.5 rmoveto
          8 callsubr
          87.849609375 -334.150390625 rmoveto
          9 callsubr
          endchar
        </CharString>
        <CharString name="Rcommaaccent">
          101 -266.199996948 43.6499938965 222.550003052 21 267.75 109.100006104 209.649993896 124.5 hstem
          228.184997559 143.550003052 vstem
          hintmask 00000000
          228.184570312 -266.200195312 rmoveto
          0 0 110.025390625 -30.5546875 15.974609375 99.8544921875 rrcurveto
          17.55078125 110.700195312 rlineto
          1.7998046875 13.5 -3.1953125 10.7998046875 -16.2001953125 0 rrcurveto
          -75.599609375 hlineto
          -14.400390625 0 -9.404296875 -8.099609375 -2.7001953125 -16.2001953125 rrcurveto
          -12.150390625 -78.2998046875 rlineto
          -2.7001953125 -15.2998046875 9 -7.2001953125 12.6005859375 0 rrcurveto
          9.8994140625 0 -2.1142578125 -12.599609375 rlineto
          -1.80078125 -9.4052734375 -2.609375 -14.4453125 -27 0.900390625 rrcurveto
          -177.209960938 222.549804688 rmoveto
          8 callsubr
          87.849609375 -334.150390625 rmoveto
          9 callsubr
          endchar
        </CharString>
        <CharString name="S">
          77 -8 129 170.75 140 177.25 129 hstem
          70.75 21.5 rmoveto
          68 -21.8500061035 84.2149963379 -7.64999389648 113.785003662 0 91.3500061035 0 133.449996948 8.69999694824 14.6499938965 171.800003052 rrcurveto
          6.05000305176 65.25 rlineto
          11.3500061035 80.8999938965 -18.9000091553 113.100006104 -138.949996948 0 rrcurveto
          -103.25 hlineto
          -53.5500030518 0 -25.5999908447 5.30000305176 10.3999938965 65.1999969482 rrcurveto
          5.60000610352 35.75 rlineto
          10.5999908447 66.3000030518 33.0500030518 6.5 63.8999938965 -1.80000305176 36.3000030518 0 144.100006104 -5.69999694824 57.1499938965 -3.85000610352 rrcurveto
          17.25 109.600006104 rlineto
          -62.8000183105 18.450012207 -104.449996948 11.8000030518 -105.25 -1.30000305176 -110.199996948 0.149993896484 -96.3000030518 -23.799987793 -22.25 -149.950012207 rrcurveto
          -10.5500030518 -75.8999938965 rlineto
          -8.79299926758 -59.6629943848 -2.05699157715 -137.087005615 175.699996948 0 rrcurveto
          101.050003052 hlineto
          58.4000091553 0 4.30000305176 -26.6999969482 -6.80000305176 -41.6000061035 rrcurveto
          -6.05000305176 -39.3999938965 rlineto
          -8.59999084473 -54.7499847412 -49.9499969482 -8.30000305176 -42.1000061035 0 -93 0 -113.199996948 5.64999389648 -40.8000030518 4.90000915527 rrcurveto
          endchar
        </CharString>
        <CharString name="Sacute">
          77 -8 129 170.75 140 177.25 129 60.5500030518 138.5 hstem
          361.75 235.100006104 vstem
          361.75 798.549804688 rmoveto
          -70 callsubr
          -409 -915.549804688 rmoveto
          68 -21.849609375 84.2158203125 -7.650390625 113.784179688 0 91.3505859375 0 133.450195312 8.7001953125 14.6494140625 171.799804688 rrcurveto
          6.0498046875 65.25 rlineto
          11.3505859375 80.900390625 -18.900390625 113.099609375 -138.950195312 0 rrcurveto
          -103.25 hlineto
          -53.5498046875 0 -25.599609375 5.2998046875 10.3994140625 65.2001953125 rrcurveto
          5.6005859375 35.75 rlineto
          10.599609375 66.2998046875 33.0498046875 6.5 63.900390625 -1.7998046875 36.2998046875 0 144.100585938 -5.7001953125 57.1494140625 -3.849609375 rrcurveto
          17.25 109.599609375 rlineto
          -62.7998046875 18.4501953125 -104.450195312 11.7998046875 -105.25 -1.2998046875 -110.200195312 0.150390625 -96.2998046875 -23.80078125 -22.25 -149.94921875 rrcurveto
          -10.5498046875 -75.900390625 rlineto
          -8.79296875 -59.6630859375 -2.056640625 -137.086914062 175.69921875 0 rrcurveto
          101.05078125 hlineto
          58.3994140625 0 4.2998046875 -26.7001953125 -6.7998046875 -41.599609375 rrcurveto
          -6.0498046875 -39.400390625 rlineto
          -8.599609375 -54.75 -49.9501953125 -8.2998046875 -42.1005859375 0 -93 0 -113.19921875 5.650390625 -40.80078125 4.8994140625 rrcurveto
          endchar
        </CharString>
        <CharString name="Scaron">
          77 -8 129 170.75 140 177.25 129 60.7180023193 135.5 hstem
          283.520996094 308.5 vstem
          283.521484375 934.217773438 rmoveto
          -7 callsubr
          -303.071289062 -912.717773438 rmoveto
          -6 callsubr
          endchar
        </CharString>
        <CharString name="Scedilla">
          77 -186.5 60.1000061035 118.399993896 129 170.75 140 177.25 129 hstem
          276.899993896 94.5 vstem
          180.349609375 -186.5 rmoveto
          -5 callsubr
          -119.450195312 147.900390625 rmoveto
          -6 callsubr
          endchar
        </CharString>
        <CharString name="Scircumflex">
          77 -8 129 170.75 140 177.25 129 60.7180023193 135.5 hstem
          255.401000977 308.5 vstem
          255.401367188 798.717773438 rmoveto
          -69 callsubr
          -313.850585938 -912.717773438 rmoveto
          -6 callsubr
          endchar
        </CharString>
        <CharString name="T">
          86 21 -21 21 -21 603 129 hstemhm
          hintmask 10100000
          121.949996948 603 rmoveto
          197.5 0 -95.1999969482 -603 140 0 95.1999969482 603 203.5 0 20.8000030518 129 -541 0 rlineto
          endchar
        </CharString>
        <CharString name="Tbar">
          97 21 -21 21 -21 368 65 170 129 hstemhm
          hintmask 10110000
          121.949996948 603 rmoveto
          197.5 0 -26.8500061035 -170 -98 0 -10.1999969482 -65 98 0 -58.1499938965 -368 140 0 58.1499938965 368 98 0 10.1999969482 65 -98 0 26.8500061035 170 203.5 0 20.8000030518 129 -541 0 rlineto
          endchar
        </CharString>
        <CharString name="Tcaron">
          86 0 21 582 129 65 135.5 hstem
          290.57699585 308.5 vstem
          290.577148438 932.5 rmoveto
          -4 callsubr
          -258.926757812 -329.5 rmoveto
          -3 callsubr
          endchar
        </CharString>
        <CharString name="Tcommaaccent">
          86 -182.800003052 60.1000061035 122.699996948 21 582 129 hstem
          219.399993896 94.5 vstem
          122.849609375 -182.799804688 rmoveto
          -5 callsubr
          -32.400390625 725.700195312 rmoveto
          -3 callsubr
          endchar
        </CharString>
        <CharString name="Thorn">
          43 21 -21 21 -21 151.25 123.5 189.300003052 123.949996948 hstemhm
          hintmask 10110000
          45.6999969482 hmoveto
          140 0 27.4499969482 170.699996948 rlineto
          49.9000091553 -21.0000152588 52.6499938965 0.449996948242 43.3000030518 1.10000610352 79.8500061035 1.64999389648 100.5 8.25 28.8499908447 206.700012207 25.3000030518 179.449996948 -96.3999938965 40.6999969482 -70.9000091553 0 rrcurveto
          -147.5 0 22 141 -140 0 rlineto
          -38.0000152588 -243 -39 -243 -38 -243 rrcurveto
          183.699996948 274.75 rmoveto
          29.6000061035 189.300003052 103.5 0 rlineto
          35.5 1.52587890625e-05 41.6999969482 -2.80000305176 -12.9499969482 -87 -14.3999938965 -90.1000061035 -23.8500061035 -9.39999389648 -55.6000061035 0 rrcurveto
          endchar
        </CharString>
        <CharString name="U">
          151 -5 129 608 -20 hstem
          109.949996948 328.399993896 rmoveto
          -44.9000091553 -282.599990845 121.050003052 -50.8000030518 148.599990845 0 175.900009155 0 112.049987793 58.3999938965 38.4000091553 242 rrcurveto
          63.6000061035 436.600006104 -141 0 -66.3500061035 -420.100006104 rlineto
          -20.299987793 -129.599990845 -36.75 -58.3000030518 -107.449996948 0 -106.25 0 -19.5500030518 50.6999969482 21.75 137.199996948 rrcurveto
          66.3500061035 420.100006104 -140.449996948 0 rlineto
          endchar
        </CharString>
        <CharString name="Uacute">
          151 -5 129 588 20 65 138.5 hstem
          414.356994629 235.100006104 vstem
          414.357421875 797 rmoveto
          -70 callsubr
          -417.006835938 -607.099609375 rmoveto
          -47 callsubr
          endchar
        </CharString>
        <CharString name="Ubreve">
          151 -5 129 588 20 65 56.4499969482 hstem
          363.835998535 57.5500030518 113.550003052 57.5500030518 vstem
          363.8359375 909.900390625 rmoveto
          26 callsubr
          -311.435546875 -581.5 rmoveto
          -47 callsubr
          endchar
        </CharString>
        <CharString name="Ucircumflex">
          151 -5 129 588 20 65 135.5 hstem
          305.882003784 308.5 vstem
          305.881835938 797 rmoveto
          -46 callsubr
          -325.131835938 -604.099609375 rmoveto
          -47 callsubr
          endchar
        </CharString>
        <CharString name="Udieresis">
          151 -5 129 588 20 65 117.5 hstem
          283.567993164 117.5 137.5 117.5 vstem
          283.568359375 856.25 rmoveto
          -45 callsubr
          255 hmoveto
          -45 callsubr
          -428.618164062 -527.849609375 rmoveto
          -47 callsubr
          endchar
        </CharString>
        <CharString name="Ugrave">
          151 -5 129 588 20 65 138.5 hstem
          309.057006836 196.300003052 vstem
          309.056640625 935.5 rmoveto
          -64 callsubr
          -318.006835938 -607.099609375 rmoveto
          -47 callsubr
          endchar
        </CharString>
        <CharString name="Uhungarumlaut">
          151 -5 129 588 20 65 138.5 hstem
          336.681640625 797 rmoveto
          -50 callsubr
          43.2998046875 -138.5 rmoveto
          -70 callsubr
          -495.231445312 -607.099609375 rmoveto
          -47 callsubr
          endchar
        </CharString>
        <CharString name="Umacron">
          151 -5 129 588 20 65 79.5 hstem
          314.128005981 304.75 vstem
          314.127929688 797 rmoveto
          -82 callsubr
          -216.927734375 -548.099609375 rmoveto
          -47 callsubr
          endchar
        </CharString>
        <CharString name="Uogonek">
          151 -185.5 76.5 90 20 -6 129 588 20 hstemhm
          hintmask 11000000
          313.5 1 rmoveto
          13 callsubr
          hintmask 00110000
          -259.049804688 327.400390625 rmoveto
          -47 callsubr
          endchar
        </CharString>
        <CharString name="Uring">
          151 -5 129 588 20 65 58.4499969482 85.9000091553 57.8999938965 hstem
          374.430999756 203 vstem
          374.430664062 897.900390625 rmoveto
          -4.994140625 -57 43.6787109375 -43.900390625 56 0 56 0 47.3212890625 43.900390625 4.994140625 57 4.994140625 57 -42.0888671875 44.349609375 -56 0 -56 0 -48.9111328125 -44.349609375 -4.994140625 -57 rrcurveto
          58.55078125 hmoveto
          2.2802734375 23.94921875 21.0341796875 19.5 23.9501953125 0 23.9501953125 0 16.9658203125 -19.5 -2.28125 -23.94921875 -2.28125 -23.9501953125 -19.994140625 -18.5 -23.9501953125 0 -23.9501953125 0 -18.0048828125 18.5 2.28125 23.9501953125 rrcurveto
          -323.03125 -569.5 rmoveto
          -47 callsubr
          endchar
        </CharString>
        <CharString name="Utilde">
          151 -5 129 588 20 65.4499969482 89.8000030518 -55.25 89.8000030518 hstemhm
          hintmask 00010000
          296.46484375 852.299804688 rmoveto
          -68 callsubr
          hintmask 00100000
          41 callsubr
          hintmask 00010000
          42 callsubr
          hintmask 11000000
          -186.514648438 -523.899414062 rmoveto
          -47 callsubr
          endchar
        </CharString>
        <CharString name="V">
          183 21 -21 21 -21 732 -20 hstemhm
          hintmask 10100000
          139 732 rmoveto
          113.5 -732 162 0 357.5 732 -155.949996948 0 -256.100006104 -547.550003052 -73.6499938965 547.550003052 rlineto
          endchar
        </CharString>
        <CharString name="W">
          508 21 -21 21 -21 732 -20 hstemhm
          hintmask 10100000
          139 732 rmoveto
          113.5 -732 165.850006104 0 139.25 300.850006104 46.6999969482 -300.850006104 157.600006104 0 335.5 732 -148.649993896 0 -242.149993896 -543.850006104 -50.75 341.350006104 93.6999969482 202.5 -150 0 -239.399993896 -541.149993896 -75.1999969482 541.149993896 rlineto
          endchar
        </CharString>
        <CharString name="Wacute">
          508 0 21 691 20 65 138.5 hstem
          583.182006836 235.100006104 vstem
          583.181640625 797 rmoveto
          -50 callsubr
          -556.782226562 -203.5 rmoveto
          81 callsubr
          endchar
        </CharString>
        <CharString name="Wcircumflex">
          508 0 21 691 20 65 135.5 hstem
          451.057006836 308.5 vstem
          451.056640625 797 rmoveto
          -46 callsubr
          -441.256835938 -200.5 rmoveto
          81 callsubr
          endchar
        </CharString>
        <CharString name="Wdieresis">
          508 0 21 691 20 65 117.5 hstem
          457.343002319 117.5 137.5 117.5 vstem
          457.342773438 856.25 rmoveto
          -56 callsubr
          255 hmoveto
          -56 callsubr
          -573.342773438 -124.25 rmoveto
          81 callsubr
          endchar
        </CharString>
        <CharString name="Wgrave">
          508 0 21 691 20 65 138.5 hstem
          477.882003784 196.300003052 vstem
          477.881835938 935.5 rmoveto
          -55 callsubr
          -457.782226562 -203.5 rmoveto
          81 callsubr
          endchar
        </CharString>
        <CharString name="X">
          141 21 -21 21 -21 732 -20 hstemhm
          hintmask 10100000
          32.5 hmoveto
          158.300003052 0 171.600006104 238.300003052 96.1000061035 -238.300003052 153.350006104 0 -153.699996948 348.399993896 277.850006104 383.600006104 -158.300003052 0 -178.399993896 -248 -100.449996948 248 -153.350006104 0 157.5 -357.550003052 rlineto
          endchar
        </CharString>
        <CharString name="X.salt">
          155 21 -21 21 -21 732 -20 hstemhm
          hintmask 10100000
          15.0500030518 hmoveto
          161.050003052 0 174.300003052 265.850006104 rlineto
          22.950012207 30.1499938965 10.8999938965 154.5 -13.6000061035 31 rrcurveto
          -89 250.5 -150.600006104 0 102 -269.5 rlineto
          22.6000061035 -65.5 -2.04998779297 -24.3999938965 -40.0500030518 -62.1000061035 rrcurveto
          182.599990845 -44.6499938965 rmoveto
          94.75 -265.850006104 150.600006104 0 -102.5 299.5 rlineto
          -20.5 62.1000061035 6.19999694824 24.3999938965 43.25 65.5 rrcurveto
          189.550003052 280.5 -155.550003052 0 -167.550003052 -250.5 rlineto
          -23.049987793 -29.8999938965 -28.25 -155.600006104 13.049987793 -30.1499938965 rrcurveto
          endchar
        </CharString>
        <CharString name="Y">
          154 21 -21 21 -21 732 -20 hstemhm
          hintmask 10100000
          139 732 rmoveto
          143.149993896 -505 -36.0500030518 -227 140 0 36.0500030518 227 320.850006104 505 -160.050003052 0 -208.800003052 -349.649993896 -84 349.649993896 rlineto
          endchar
        </CharString>
        <CharString name="Yacute">
          154 0 21 691 20 65 138.5 hstem
          405.981994629 235.100006104 vstem
          405.982421875 797 rmoveto
          -70 callsubr
          -379.58203125 -203.5 rmoveto
          -44 callsubr
          endchar
        </CharString>
        <CharString name="Ycircumflex">
          154 0 21 691 20 65 135.5 hstem
          296.957000732 308.5 vstem
          296.95703125 797 rmoveto
          -49 callsubr
          -287.157226562 -200.5 rmoveto
          -44 callsubr
          endchar
        </CharString>
        <CharString name="Ydieresis">
          154 0 21 691 20 62.75 117.5 hstem
          255.050003052 117.5 137.5 117.5 vstem
          255.049804688 854 rmoveto
          -56 callsubr
          255 hmoveto
          -56 callsubr
          -390.399414062 -122 rmoveto
          143.149414062 -505 -36.0498046875 -227 140 0 36.0498046875 227 320.850585938 505 -160.05078125 0 -208.799804688 -349.650390625 -84 349.650390625 rlineto
          endchar
        </CharString>
        <CharString name="Ygrave">
          154 0 21 691 20 65 138.5 hstem
          300.682006836 196.300003052 vstem
          300.681640625 935.5 rmoveto
          -64 callsubr
          -280.58203125 -203.5 rmoveto
          -44 callsubr
          endchar
        </CharString>
        <CharString name="Z">
          55 0 129 474 129 hstem
          26.75 hmoveto
          504 0 20.8000030518 129 -322.300003052 0 396.699996948 474 20.8000030518 129 -504 0 -20.8000030518 -129 332.75 0 -407.149993896 -474 rlineto
          endchar
        </CharString>
        <CharString name="Zacute">
          55 0 129 474 129 62.75 138.5 hstem
          405.600006104 235.100006104 vstem
          405.599609375 794.75 rmoveto
          -50 callsubr
          -444.650390625 -933.25 rmoveto
          -2 callsubr
          endchar
        </CharString>
        <CharString name="Zcaron">
          55 0 129 474 129 65 135.5 hstem
          272.352005005 308.5 vstem
          272.3515625 932.5 rmoveto
          -1 callsubr
          -335.90234375 -932.5 rmoveto
          -2 callsubr
          endchar
        </CharString>
        <CharString name="Zdotaccent">
          55 0 129 474 129 65 124 hstem
          349.197006226 131.300003052 vstem
          349.197265625 820 rmoveto
          0 callsubr
          -334.747070312 -896 rmoveto
          -2 callsubr
          endchar
        </CharString>
        <CharString name="a">
          40 -5.900390625 118.550994873 hstem
          76.9501953125 296.699996948 rmoveto
          -41.650390625 -218.999816895 77.350189209 -83.6005859375 103.550003052 0 63.8000030518 0 70.6499938965 28.7499847412 26.25 32.75 rrcurveto
          21.4499969482 -54.4999847412 108 0 70 477.900390625 rlineto
          -51 49 -121.150009155 17.0500030518 -76.5999908447 -4.05000305176 -94.1000061035 -4.5 -114.5 -20.0500030518 -42.0498046875 -219.75 rrcurveto
          136.449798584 -25.3499908447 rmoveto
          20.5500030518 133.799987793 41.6000061035 14 45.1999969482 9.25 29.4499969482 6.35000610352 45.6999969482 -4.69999694824 31.4000091553 -11.0500030518 rrcurveto
          -38.25 -256.149993896 rlineto
          -32.2499847412 -31.200012207 -31.6999969482 -19 -57.75 0 -62.6000061035 0 -6.75 58.1000061035 15.3999938965 100.600006104 rrcurveto
          endchar
        </CharString>
        <CharString name="a.salt">
          42 -7.55000305176 107.449996948 328.900009155 107.949996948 hstem
          71.3000030518 283 rmoveto
          -32.4499816895 -210.800003052 69.5999908447 -79.75 140.150009155 0 51.1499938965 0 175.800003052 8.19999694824 31.3499908447 19.25 rrcurveto
          61.5500030518 455.100006104 rlineto
          -52.3000183105 34.4499969482 -87.299987793 27.3000030518 -110.300003052 0 -144.25 0 -74.8000030518 -58.1499938965 -28.1999969482 -195.600006104 rrcurveto
          138.349990845 -25.8500061035 rmoveto
          19.3500061035 136.300003052 24.3000030518 35.3500061035 74.3000030518 0 32.3999938965 0 33.4499969482 -7.69999694824 28.6999969482 -8.25 rrcurveto
          -45.1499938965 -310.25 rlineto
          0 -78.0500030518 -2.70001220703 -33.3000030518 vhcurveto
          -64.6499938965 0 -5.39999389648 56.3000030518 14.049987793 100.949996948 rrcurveto
          endchar
        </CharString>
        <CharString name="a.smcp">
          104 21 -21 21 -21 116.25 112.5 hstemhm
          hintmask 10100000
          26.75 hmoveto
          149.699996948 0 57.8000030518 116.25 187.199996948 0 22.8000030518 -116.25 136.5 0 -96.5 570 -167.5 0 rlineto
          -28.9499969482 -341.25 rmoveto
          89.4499969482 171.5 31.1999969482 -171.5 rlineto
          endchar
        </CharString>
        <CharString name="a.superior">
          -101 361.25 91.25 194.800003052 84.3999938965 hstem
          106.100006104 568.399993896 rmoveto
          -26.3000030518 -142.549987793 50.5500030518 -64.6000061035 76.0999908447 0 57.0500030518 0 42.3000030518 24.0500030518 18.3499908447 28.3499908447 rrcurveto
          18.3999938965 -47.3999938965 79.4499969482 0 46.8999938965 321.449996948 rlineto
          -35.0999908447 32.9999847412 -94.6500091553 12.8000030518 -55.5999908447 -1.80000305176 -62.6500091553 -1.80000305176 -86.299987793 -12.049987793 -28.5 -149.450012207 rrcurveto
          100.799987793 -15 rmoveto
          11.0500030518 78.5500030518 32.5 11.8000030518 24.0500030518 3.55000305176 20.1999969482 3 33.3500061035 -2.90000915527 26.6999969482 -7.14999389648 rrcurveto
          -22.75 -151 rlineto
          -21.8000030518 -20.8000030518 -33.5 -15.9499969482 -37 0 -39.75 0 -2.64999389648 35.9499969482 9.59999084473 64.9499969482 rrcurveto
          endchar
        </CharString>
        <CharString name="aacute">
          40 -5.900390625 118.550994873 489.236801147 138.5 hstem
          311.673995972 235.100006104 vstem
          311.673828125 601.887695312 rmoveto
          -50 callsubr
          -347.32421875 -443.6875 rmoveto
          -43 callsubr
          136.450195312 -25.3505859375 rmoveto
          -42 callsubr
          endchar
        </CharString>
        <CharString name="aacute.salt">
          42 -7.55000305176 107.449996948 328.900009155 107.949996948 63.1499938965 138.5 hstem
          308.149993896 235.100006104 vstem
          308.150390625 599.900390625 rmoveto
          -70 callsubr
          -349.450195312 -455.400390625 rmoveto
          88 callsubr
          138.350585938 -25.849609375 rmoveto
          89 callsubr
          endchar
        </CharString>
        <CharString name="aacute.smcp">
          104 0 21 95.25 112.5 401.25 138.5 hstem
          364.574996948 235.100006104 vstem
          364.575195312 630 rmoveto
          -70 callsubr
          -450.424804688 -768.5 rmoveto
          51 callsubr
          -28.9501953125 -341.25 rmoveto
          52 callsubr
          endchar
        </CharString>
        <CharString name="abreve">
          40 -5.900390625 118.550994873 490.336791992 56.4499969482 hstem
          230.152999878 57.5500030518 113.550003052 57.5500030518 vstem
          230.153320312 715.887695312 rmoveto
          10 callsubr
          -210.752929688 -419.1875 rmoveto
          -43 callsubr
          136.450195312 -25.3505859375 rmoveto
          -42 callsubr
          endchar
        </CharString>
        <CharString name="abreve.salt">
          42 -7.55000305176 107.449996948 328.900009155 107.949996948 60.8999938965 56.4499969482 hstem
          253.697006226 57.5500030518 113.549987793 57.5500030518 vstem
          253.697265625 710.549804688 rmoveto
          29 callsubr
          -239.947265625 -427.549804688 rmoveto
          88 callsubr
          138.350585938 -25.849609375 rmoveto
          89 callsubr
          endchar
        </CharString>
        <CharString name="abreve.smcp">
          104 0 21 95.25 112.5 401.25 56.4499969482 hstem
          309.554000854 57.5500030518 113.550003052 57.5500030518 vstem
          309.553710938 742.900390625 rmoveto
          -6 -70.7001953125 49.0498046875 -42.2001953125 61.80078125 0 70.099609375 0 45.4501953125 39.0498046875 8.25 73.8505859375 rrcurveto
          -57.5498046875 hlineto
          -4.7001953125 -38.3505859375 -20.75 -18.5498046875 -40.25 0.4501953125 -32.4501953125 0 -19.75 20.599609375 4.349609375 35.8505859375 rrcurveto
          -340.353515625 -742.900390625 rmoveto
          51 callsubr
          -28.9501953125 -341.25 rmoveto
          52 callsubr
          endchar
        </CharString>
        <CharString name="acircumflex">
          40 -5.900390625 118.550994873 489.236801147 135.5 hstem
          198.699005127 308.5 vstem
          198.69921875 601.887695312 rmoveto
          -41 callsubr
          -250.94921875 -440.6875 rmoveto
          -43 callsubr
          136.450195312 -25.3505859375 rmoveto
          -42 callsubr
          endchar
        </CharString>
        <CharString name="acircumflex.salt">
          42 -7.55000305176 107.449996948 328.900009155 107.949996948 60.8999938965 135.5 hstem
          203.643005371 308.5 vstem
          203.642578125 597.650390625 rmoveto
          -34 callsubr
          -261.54296875 -450.150390625 rmoveto
          88 callsubr
          138.350585938 -25.849609375 rmoveto
          89 callsubr
          endchar
        </CharString>
        <CharString name="acircumflex.smcp">
          104 0 21 95.25 112.5 401.25 135.5 hstem
          256.100006104 308.5 vstem
          256.099609375 630 rmoveto
          -46 callsubr
          -358.549804688 -765.5 rmoveto
          51 callsubr
          -28.9501953125 -341.25 rmoveto
          52 callsubr
          endchar
        </CharString>
        <CharString name="acute">
          -259 531 138.5 hstem
          99.0500030518 235.100006104 vstem
          99.0500030518 531 rmoveto
          -77 callsubr
          endchar
        </CharString>
        <CharString name="acute.smcp">
          -259 531 138.5 hstem
          99.0500030518 235.100006104 vstem
          99.0500030518 531 rmoveto
          -77 callsubr
          endchar
        </CharString>
        <CharString name="adieresis">
          40 -5.900390625 118.550994873 489.236801147 117.5 hstem
          175.835205078 117.5 137.5 117.5 vstem
          175.834960938 661.137695312 rmoveto
          -38 callsubr
          255 hmoveto
          -38 callsubr
          -353.884765625 -364.4375 rmoveto
          -43 callsubr
          136.450195312 -25.3505859375 rmoveto
          -42 callsubr
          endchar
        </CharString>
        <CharString name="adieresis.salt">
          42 -7.55000305176 107.449996948 328.900009155 107.949996948 60.8999938965 117.5 hstem
          172.879501343 117.5 137.5 117.5 vstem
          172.879882812 656.900390625 rmoveto
          -28 callsubr
          255 hmoveto
          -28 callsubr
          -356.580078125 -373.900390625 rmoveto
          88 callsubr
          138.350585938 -25.849609375 rmoveto
          89 callsubr
          endchar
        </CharString>
        <CharString name="adieresis.smcp">
          104 0 21 95.25 112.5 401.25 117.5 hstem
          233.787002563 117.5 137.5 117.5 vstem
          233.787109375 689.25 rmoveto
          67 callsubr
          255 hmoveto
          67 callsubr
          -462.037109375 -689.25 rmoveto
          51 callsubr
          -28.9501953125 -341.25 rmoveto
          52 callsubr
          endchar
        </CharString>
        <CharString name="ae">
          347 -7 118.550003052 316.949996948 112.5 hstem
          54.8500061035 298.649993896 rmoveto
          -42.1000061035 -213.149993896 76.8999938965 -92.5 104.550003052 0 56.8000030518 0 93.1499938965 20.3000030518 42.4000091553 49.1499938965 22.75 -43.1499938965 39.8999938965 -23.5500030518 57.9499969482 -2.75 111.050003052 -6.60000610352 79.8000030518 11.5 80.1499938965 24.1000061035 rrcurveto
          17.25 100 rlineto
          -62.049987793 -10.4499969482 -89.950012207 -9 -59.5 2.69999694824 -71 0.449996948242 -19.549987793 20.9499969482 13.299987793 81.1000061035 37 -15 293.200012207 -46.8500061035 15.3499908447 242.100006104 8.40000915527 122.050003052 -109.700012207 31.5 -114.449996948 -0.550003051758 -67.5500030518 -0.550003051758 -41.8999938965 -10.5 -36.4499969482 -20.0999908447 -51.6500091553 24.3499908447 -86.1499938965 10.4000091553 -54.8500061035 -3.60000610352 rrcurveto
          -94.0999908447 -4.5 -104.650009155 -13.1499938965 -44.299987793 -224.700012207 rrcurveto
          136.549987793 -28.3999938965 rmoveto
          20.5500030518 133.800003052 41.5 15.0999908447 44.75 9.25 27.9000091553 5.80000305176 49.25 -6.30000305176 33.5999908447 -10.5 -15.5500030518 -31.4499969482 -10.1499938965 -39.9499969482 -8.60000610352 -46 -10.8999938965 -58.3999938965 -3.89999389648 -50.700012207 3.34999084473 -41.8999938965 -19.3499908447 -23.3999938965 -52.4000091553 -14.5 -46.6499938965 0.449996948242 -66.6500091553 0.449996948242 -2.14999389648 57.6499938965 15.3999938965 100.600006104 rrcurveto
          326.550003052 30 rmoveto
          12.3999938965 65.6999969482 9.09999084473 61.4499969482 94.6500091553 1.10000610352 56 0.550003051758 28.049987793 -10.75 -8.69999694824 -49.5500030518 -16.9499969482 -97.3000030518 -174.550003052 28.8000030518 0 0 rrcurveto
          endchar
        </CharString>
        <CharString name="ae.smcp">
          284 -2.55000305176 123.5 -107.75 107.300003052 17.75 100.149993896 -16.75 120 -112.549987793 105 113.399993896 122.5 -122.5 107.75 hstemhm
          hintmask 10100000
          17.5 hmoveto
          154.899993896 0 82.4499969482 138.25 120.199996948 0 -5.94999694824 -40.75 rlineto
          -10.8500061035 -73 52.3999938965 -28.5 57.8000030518 1.44999694824 rrcurveto
          hintmask 01000000
          0 0 223.850006104 1.44999694824 64.8999938965 14.3000030518 rrcurveto
          17.25 107.300003052 rlineto
          hintmask 10010000
          -225.050003052 0.449996948242 rlineto
          -21.4499969482 -1.52587890625e-05 -14.8999938965 2.10000610352 5 29.4499969482 rrcurveto
          10.4499969482 69.1499938965 rlineto
          hintmask 00001000
          226.899993896 7.44999694824 16.1499938965 105 rlineto
          hintmask 00010100
          -223.899993896 7.55000305176 11.8999938965 73.3000030518 rlineto
          4.45001220703 22.6499938965 3 9.89999389648 30.4499969482 0 rrcurveto
          228.5 0 rlineto
          hintmask 00000010
          17.25 107.75 rlineto
          hintmask 10100100
          -49.5000152588 9.35000610352 -223 5.39999389648 0 0 -94 -1 -124.5 2.19999694824 -63.1999969482 -109.550003052 rrcurveto
          22.9499969482 -223.25 rmoveto
          107.949996948 181.600006104 -29.8999938965 -181.600006104 rlineto
          endchar
        </CharString>
        <CharString name="afii61289">
          -41 0.550003051758 87.3500061035 hstem
          62.3999938965 253.5 rmoveto
          13.8500061035 -65.5500030518 rlineto
          12 5.99998474121 12.6499938965 6.55000305176 11 7 rrcurveto
          -2.80000305176 -25.1000061035 rlineto
          -18.3000030518 -132.75 63.25 -49.0999908447 96.0999908447 0 rrcurveto
          128.5 0 13.9499969482 87.3500061035 rlineto
          -4.30000305176 -61.3500061035 14.1500091553 0 hvcurveto
          -78.0500030518 13.9499969482 -4.44999694824 32.3000030518 11.25 74.25 rrcurveto
          6.30000305176 49.4499969482 rlineto
          94.6499938965 62.5 129.400009155 108.300003052 18.3999938965 122.199996948 17.6000061035 112.949996948 -64 58.8000030518 -82.75 2.25 -118.300003052 2.25 -68.8999938965 -56 -15.4000091553 -97.25 rrcurveto
          -44.8500061035 -278.5 rlineto
          -22 -20 -21.450012207 -19 -22 -17 rrcurveto
          222.75 164.5 rmoveto
          29.8500061035 171.149993896 rlineto
          9 57 67.5500030518 -15.9499969482 -6.75 -39.6999969482 -0.850006103516 -48.1999969482 -39.1999969482 -61.1999969482 -59.6000061035 -63.1000061035 rrcurveto
          endchar
        </CharString>
        <CharString name="afii61352">
          604 21 -21 21 -21 381 100.5 150 102.949996948 hstemhm
          828.149993896 106 hintmask 10111000
          54.3999938965 hmoveto
          138.75 0 94.8500061035 599.350006104 rlineto
          3 17 26.6999969482 5.54998779297 1.25 -15.549987793 rrcurveto
          62.6000061035 -486.699996948 rlineto
          5.00001525879 -167.949996948 267.699996948 9.80000305176 23.8000030518 152.449996948 0 0 56.0500030518 353.150009155 13.049987793 81.4499969482 11 69.4499969482 36.1500091553 13.5 74.5999908447 0 63.75 0 80 -1 0 0 45.0500030518 -0.899993896484 10.6999969482 -6 -10.9499969482 -70.6000061035 -10.5 -67.8999938965 -16.9499969482 -3.60000610352 -33 0 rrcurveto
          -32 hlineto
          -33 0 -14.5 4.89999389648 16.6499938965 106.600006104 rrcurveto
          -106 hlineto
          -28 -176 52.5 -33.25 102.950012207 -2.75 rrcurveto
          44 hlineto
          122.449996948 2.75 22.75 51.8000030518 18.6499938965 117.449996948 20.6500091553 130.899993896 -32.200012207 50.1000061035 -97.9499969482 0 0 0 -216.199996948 0.449996948242 -33.3000030518 0 -95.0500030518 -1.09999084473 -79.3999938965 -43.3500061035 -19.5500030518 -123.649993896 -12.5999908447 -79.6500091553 -54.700012207 -345.800003052 0 0 -2 -15 -23.8999938965 -7.09999084473 -1.69999694824 19.0999908447 rrcurveto
          -63.0500030518 494.25 rlineto
          -4.75 149.25 -270.850006104 -1.54998779297 -25.8999938965 -162.5 rrcurveto
          endchar
        </CharString>
        <CharString name="agrave">
          40 -5.900390625 118.550994873 489.236801147 138.5 hstem
          201.873306274 196.300003052 vstem
          201.873046875 740.387695312 rmoveto
          -55 callsubr
          -243.823242188 -443.6875 rmoveto
          -43 callsubr
          136.450195312 -25.3505859375 rmoveto
          -42 callsubr
          endchar
        </CharString>
        <CharString name="agrave.salt">
          42 -7.55000305176 107.449996948 328.900009155 107.949996948 63.1499938965 138.5 hstem
          190.600006104 196.300003052 vstem
          190.599609375 738.400390625 rmoveto
          -64 callsubr
          -238.200195312 -455.400390625 rmoveto
          88 callsubr
          138.350585938 -25.849609375 rmoveto
          89 callsubr
          endchar
        </CharString>
        <CharString name="agrave.smcp">
          104 0 21 95.25 112.5 401.25 138.5 hstem
          259.274993896 196.300003052 vstem
          259.275390625 768.5 rmoveto
          -73 callsubr
          -351.424804688 -768.5 rmoveto
          51 callsubr
          -28.9501953125 -341.25 rmoveto
          52 callsubr
          endchar
        </CharString>
        <CharString name="amacron">
          40 -5.900390625 118.550994873 489.236801147 79.5 hstem
          207.239196777 304.75 vstem
          207.239257812 601.887695312 rmoveto
          -82 callsubr
          -143.0390625 -384.6875 rmoveto
          -43 callsubr
          136.450195312 -25.3505859375 rmoveto
          -42 callsubr
          endchar
        </CharString>
        <CharString name="amacron.salt">
          42 -7.55000305176 107.449996948 328.900009155 107.949996948 60.8999938965 79.5 hstem
          212.98890686 304.75 vstem
          212.989257812 597.650390625 rmoveto
          -82 callsubr
          -154.439453125 -394.150390625 rmoveto
          88 callsubr
          138.350585938 -25.849609375 rmoveto
          89 callsubr
          endchar
        </CharString>
        <CharString name="amacron.smcp">
          104 0 21 95.25 112.5 401.25 79.5 hstem
          262.145996094 304.75 vstem
          262.146484375 630 rmoveto
          -82 callsubr
          -248.146484375 -709.5 rmoveto
          51 callsubr
          -28.9501953125 -341.25 rmoveto
          52 callsubr
          endchar
        </CharString>
        <CharString name="ampersand">
          170 21 -21 21 -21 609.199996948 100.800003052 hstemhm
          hintmask 10100000
          85.1999969482 83.3999938965 rmoveto
          65.799987793 -110.399993896 146.850006104 2.55000305176 70.9499969482 58 rrcurveto
          75.1000061035 60.9499969482 54.5500030518 -94.5 153 0 -99.3500061035 171.800003052 46.3500061035 44.3500061035 70.4499969482 121.300003052 -41.6000061035 57.3999938965 -135.75 -117.25 -134.199996948 233.800003052 rlineto
          -44.1000061035 77.5 24.4499969482 20.3000030518 80.5 0 rrcurveto
          164.5 0 16.25 100.800003052 rlineto
          -81.6000061035 19.25 -86.3000030518 15.5500030518 -116 -16.1500091553 -86.3000030518 -11.3999938965 -82.6999969482 -104.350006104 63.3499908447 -109.25 rrcurveto
          39.6499938965 -69.6000061035 -90.6000061035 -68.6000061035 rlineto
          -105.750015259 -79.5500183105 -27.1999969482 -103.299987793 59.6999969482 -99.200012207 rrcurveto
          113.800003052 75.5 rmoveto
          -22.5 33.450012207 1.39999389648 40.9499969482 60.8500061035 46.6499938965 rrcurveto
          65.1000061035 47.8500061035 78.1999969482 -131.050003052 -61.4499969482 -52.4499969482 rlineto
          -45.450012207 -38.3499908447 -49.4499969482 12.6500091553 -26.6999969482 40.299987793 rrcurveto
          endchar
        </CharString>
        <CharString name="ampersand.salt">
          476 -1.10000610352 116.350006104 50.3999938965 104.350006104 61.1999969482 104.800003052 50.6000061035 115.899993896 -95.8999938965 94.8000030518 hstemhm
          hintmask 11101000
          84.0500030518 330.550003052 rmoveto
          -19.049987793 -120.199981689 78.25 -48.1000061035 104.800003052 0 -17.1999969482 -124.649993896 100.5 -38.1500091553 97.3499908447 -0.550003051758 rrcurveto
          162.199996948 hlineto
          133.650009155 0 132.949996948 25.1000061035 28.3999938965 177.850006104 rrcurveto
          43 285.300003052 114 19.4499969482 15.0500030518 94.8000030518 -111 0 19.6999969482 125.899993896 -122 0 rlineto
          hintmask 11110000
          -37.6999969482 -124.800003052 -430 0 rlineto
          -164.250015259 -1.10000610352 -92.1999969482 -16.3999938965 -24.1000061035 -168.75 rrcurveto
          127.100006104 -91.75 rmoveto
          12.8999938965 80.75 rlineto
          10.8000030518 66.1499938965 21.4499969482 14.3000030518 95.200012207 0.900009155273 rrcurveto
          424.5 0 -41.8999938965 -266.600006104 rlineto
          -10.3500061035 -66.1000061035 -44.0500030518 -38.6499938965 -83 0 rrcurveto
          -161.25 hlineto
          -38.6999816895 1.35000610352 -26.450012207 3.75 6.5 45.299987793 rrcurveto
          122.350006104 hlineto
          106 0 71.5 2.65000915527 19.1999969482 120.849990845 17.8500061035 121.450012207 -86.5500030518 25.3999938965 -83.9499969482 0 rrcurveto
          -74 hlineto
          -119.249984741 0 -77.6500091553 -42.6999969482 -19.549987793 -122.199996948 -37.3000030518 0.449996948242 -11.1999969482 12.0999908447 6.89999389648 40.8500061035 rrcurveto
          181.600006104 -54.5 rmoveto
          9.59999084473 57.6000061035 20.6000061035 3.59999084473 35.3499908447 0 rrcurveto
          65.75 hlineto
          30.6000061035 -1.52587890625e-05 6.64999389648 -4.25 -3.79998779297 -25.6999969482 -4.80000305176 -29.9499969482 -10.5 -1.30000305176 -28.1999969482 0 rrcurveto
          endchar
        </CharString>
        <CharString name="ampersand.smcp">
          76 21 -21 21 -21 453.699996948 97 hstemhm
          hintmask 10100000
          70.3500061035 79.6499938965 rmoveto
          55.1999969482 -113.199996948 139.649993896 19.8000030518 59.1000061035 44.8500061035 rrcurveto
          45.4499969482 37 41.6000061035 -68.1000061035 143.399993896 0 -86.6499938965 141.899993896 32.8000030518 26.3000030518 66.6499938965 93.0500030518 -45.25 60.1499938965 -113.449996948 -79.5500030518 -90.6000061035 156.75 rlineto
          -21.25 36.049987793 17.8000030518 19.0500030518 42.8999938965 0 rrcurveto
          115.100006104 0 15.6000061035 97 rlineto
          -57.299987793 16.6999816895 -84.3000030518 12.1000061035 -78.6999969482 -9.39999389648 -68.950012207 -8.40000915527 -67.1499938965 -83.0999908447 50.5 -87.200012207 rrcurveto
          20.5 -35.1999969482 -60.1499938965 -45.5500030518 rlineto
          -83.25 -64 -36.5 -71.4499969482 47.25 -95.5500030518 rrcurveto
          113.5 61 rmoveto
          -14.4000091553 23.1000061035 -2.80000305176 26.6499938965 39.75 28.9000091553 rrcurveto
          51.1999969482 36.6999969482 52.25 -88.6999969482 -47.9499969482 -38.5 rlineto
          -36.0999908447 -26.9499816895 -26.5500030518 14.799987793 -15.3999938965 24 rrcurveto
          endchar
        </CharString>
        <CharString name="aogonek">
          11 -185.949996948 76.5 90 20 -6.45039367676 118.550994873 hstemhm
          hintmask 11000000
          414 0.5498046875 rmoveto
          -153.400390625 -71.7001953125 77.55078125 -140.69921875 110.299804688 25.8994140625 rrcurveto
          12.2001953125 76.5 rlineto
          -57.7001953125 -5.099609375 -22.0498046875 55.349609375 88.599609375 59.75 rrcurveto
          hintmask 00100000
          -402.450195312 296.150390625 rmoveto
          -41.650390625 -219 77.3505859375 -83.6005859375 103.549804688 0 63.7998046875 0 70.650390625 28.75 26.25 32.75 rrcurveto
          21.4501953125 -54.5 108 0 70 477.900390625 rlineto
          -51 49 -121.150390625 17.0498046875 -76.599609375 -4.0498046875 -94.1005859375 -4.5 -114.5 -20.0498046875 -42.0498046875 -219.75 rrcurveto
          136.450195312 -25.3505859375 rmoveto
          20.5498046875 133.80078125 41.6005859375 14 45.19921875 9.25 29.4501953125 6.349609375 45.7001953125 -4.7001953125 31.400390625 -11.0498046875 rrcurveto
          -38.25 -256.150390625 rlineto
          -32.25 -31.19921875 -31.7001953125 -19 -57.75 0 -62.6005859375 0 -6.75 58.099609375 15.400390625 100.599609375 rrcurveto
          endchar
        </CharString>
        <CharString name="aogonek.salt">
          117 -166.600006104 76.5 82.5500030518 107.449996948 -100 20 408.900009155 107.949996948 hstemhm
          hintmask 10100000
          451.400390625 19.900390625 rmoveto
          -153.400390625 -71.7001953125 77.5498046875 -140.700195312 110.299804688 25.900390625 rrcurveto
          12.2001953125 76.5 rlineto
          -57.7001953125 -5.1005859375 -22.0498046875 55.3505859375 88.6005859375 59.75 rrcurveto
          hintmask 01010000
          -435.600585938 263.099609375 rmoveto
          88 callsubr
          138.350585938 -25.849609375 rmoveto
          89 callsubr
          endchar
        </CharString>
        <CharString name="aogonek.smcp">
          150 -185.949996948 76.5 90 20 -0.550003051758 21 95.25 112.5 hstemhm
          hintmask 11000000
          492.799804688 0.5498046875 rmoveto
          43 callsubr
          hintmask 00110000
          -521.549804688 -0.5498046875 rmoveto
          51 callsubr
          -28.9501953125 -341.25 rmoveto
          52 callsubr
          endchar
        </CharString>
        <CharString name="approxequal">
          7 196.899993896 97 -59 96 46.8500061035 97 -59 96 hstemhm
          hintmask 10000000
          78.5500030518 259.899993896 rmoveto
          11.1499938965 -63 rlineto
          hintmask 01000000
          50.4499816895 15 28.5500030518 23 51 0 rrcurveto
          hintmask 10000000
          60 0 31.25 -38 51.75 0 61.1000061035 0 48.3000030518 40.0500030518 41.8999938965 33.6000061035 rrcurveto
          -14.4499969482 62.3500061035 rlineto
          -46.6999816895 -22.9499969482 -26.3000030518 -16.0500030518 -47 0 rrcurveto
          hintmask 01000000
          -60 0 -23 37 -60 0 rrcurveto
          -64 0 -52.8500061035 -38.549987793 -41.1499938965 -32.450012207 rrcurveto
          28.5500030518 180.850006104 rmoveto
          hintmask 00100000
          11.1499938965 -63 rlineto
          hintmask 00010000
          50.4499969482 15 28.5500030518 23 51 0 rrcurveto
          hintmask 00100000
          60 0 31.25 -38 51.75 0 61.1000061035 0 48.299987793 40.0500030518 41.9000091553 33.5999908447 rrcurveto
          -14.4499969482 62.3500061035 rlineto
          -46.700012207 -22.9499969482 -25.75 -16.0500030518 -47 0 rrcurveto
          hintmask 00010000
          -60 0 -23.549987793 37 -60 0 -64 0 -52.8500061035 -38.5500030518 -41.1499938965 -32.4499969482 rrcurveto
          endchar
        </CharString>
        <CharString name="aring">
          40 -5.900390625 118.550994873 489.236801147 58.4499969482 85.8999938965 57.8999938965 hstem
          271.878997803 203 vstem
          271.87890625 702.787109375 rmoveto
          -37 callsubr
          58.5498046875 hmoveto
          2.28125 23.9501953125 21.0341796875 19.5 23.9501953125 0 23.94921875 0 16.966796875 -19.5 -2.28125 -23.9501953125 -2.28125 -23.9501953125 -19.9951171875 -18.5 -23.9501953125 0 -23.94921875 0 -18.0048828125 18.5 2.2802734375 23.9501953125 rrcurveto
          -253.478515625 -406.086914062 rmoveto
          -43 callsubr
          136.450195312 -25.3505859375 rmoveto
          -42 callsubr
          endchar
        </CharString>
        <CharString name="aring.salt">
          42 -7.55000305176 107.449996948 328.900009155 107.949996948 60.8999938965 58.4499969482 85.9000091553 57.8999938965 hstem
          274.292007446 203 vstem
          274.291992188 698.549804688 rmoveto
          68 callsubr
          58.5498046875 hmoveto
          69 callsubr
          -261.541992188 -415.549804688 rmoveto
          88 callsubr
          138.350585938 -25.849609375 rmoveto
          89 callsubr
          endchar
        </CharString>
        <CharString name="aring.smcp">
          104 0 21 95.25 112.5 337.649993896 58.4499969482 85.9000091553 57.8999938965 hstem
          307.832000732 203 vstem
          307.83203125 667.299804688 rmoveto
          68 callsubr
          58.5498046875 hmoveto
          69 callsubr
          -339.631835938 -667.299804688 rmoveto
          51 callsubr
          -28.9501953125 -341.25 rmoveto
          52 callsubr
          endchar
        </CharString>
        <CharString name="asciicircum">
          -118 531 135.949996948 hstem
          121.899993896 308.5 vstem
          121.899993896 531 rmoveto
          110.399993896 0 65.5500030518 64.0500030518 40.4499969482 -64.0500030518 92.1000061035 0 -75.3000030518 135.949996948 -104 0 rlineto
          endchar
        </CharString>
        <CharString name="asciitilde">
          -84 531 91.6000061035 -56.6000061035 91.6000061035 hstemhm
          hintmask 10000000
          130.100006104 586.300003052 rmoveto
          -90 callsubr
          hintmask 01000000
          -89 callsubr
          hintmask 10000000
          -88 callsubr
          hintmask 01000000
          -87 callsubr
          endchar
        </CharString>
        <CharString name="asterisk">
          -75 538 -20 43 85 -80 56.5 hstemhm
          hintmask 10100000
          126.899993896 566 rmoveto
          hintmask 11000000
          143 -5 8.64999389648 85 rlineto
          hintmask 10100000
          -106 callsubr
          24.8000030518 -206.300003052 rmoveto
          50.3999938965 -16.9499969482 75.0500030518 132.75 -79.8999938965 20.8500061035 rlineto
          57.75 -86.200012207 rmoveto
          116.149993896 -63.75 39.1999969482 45.1999969482 -97.1999969482 89.8999938965 rlineto
          -42.799987793 181.75 rmoveto
          21.1499938965 -135.75 84 32.6499938965 -48.1999969482 122.399993896 rlineto
          -6.59999084473 -168.049987793 rmoveto
          43.3999938965 -65.3500061035 112.050003052 97 -23.4499969482 47.1000061035 rlineto
          endchar
        </CharString>
        <CharString name="asterisk.smcp">
          -76 394.75 85 -80 56.5 hstemhm
          hintmask 01000000
          100.800003052 399.75 rmoveto
          hintmask 10000000
          142.550003052 -5 9.10000610352 85 rlineto
          hintmask 01000000
          -106 callsubr
          24.3500061035 -206.300003052 rmoveto
          50.3999938965 -16.9499969482 75.5 132.75 -79.8999938965 20.8500061035 rlineto
          57.75 -86.200012207 rmoveto
          116.149993896 -63.75 39.1999969482 45.1999969482 -97.1999969482 90.3500061035 rlineto
          -42.799987793 181.299987793 rmoveto
          21.1499938965 -135.300003052 84 32.1999969482 -48.1999969482 122.399993896 rlineto
          -6.60000610352 -167.599990845 rmoveto
          43.3999938965 -65.8000030518 112.050003052 97 -23.8999938965 47.1000061035 rlineto
          endchar
        </CharString>
        <CharString name="at">
          394 -190 112.5 -85.5 85.5 73.5 112.5 -105.5 112.5 318.100006104 111.5 62.3999938965 113.5 hstemhm
          hintmask 10001100
          50.8000030518 36.5 rmoveto
          -18.0999908447 -116.899993896 41.8500061035 -109.600006104 163.949996948 0 rrcurveto
          92.5 hlineto
          hintmask 01001100
          126 0 116 17 50 10 rrcurveto
          14.0500030518 85.5 rlineto
          hintmask 10011100
          -386 hlineto
          -85.9999847412 0 -9.65000915527 46 9 57 rrcurveto
          74.9499969482 473.5 rlineto
          7.19999694824 45.3000030518 17.3499908447 63.1999969482 95 0 rrcurveto
          360 hlineto
          57.0500030518 0 33.25 -9.85000610352 -14.3499908447 -98.6499938965 rrcurveto
          -43.6499938965 -293.5 rlineto
          -12.450012207 -81 -20.0500030518 -9 -48 0 rrcurveto
          52.3999938965 363.75 rlineto
          -51 49 -78.6000061035 16.8500061035 -96.8500061035 0 -90.5 0 -107 -39.200012207 -34 -221.549987793 rrcurveto
          hintmask 00101100
          -30.1499938965 -199.5 63.4499969482 -87.5500030518 118.699996948 -1.30000305176 73 -0.649993896484 38.25 34.1999969482 22.200012207 27.9499969482 rrcurveto
          hintmask 10011100
          23.5500030518 -54.5 92.5 0 rlineto
          144 0 36.700012207 76.8500061035 11.9499969482 81.6499938965 rrcurveto
          48.6000061035 326.5 rlineto
          19.75 133.899993896 -37.75 99.1000061035 -143.449996948 0 rrcurveto
          -364 hlineto
          -147.350006104 0 -84.450012207 -55.75 -23.25 -144.25 rrcurveto
          248.900009155 -256 rmoveto
          18.6000061035 136.050003052 43.0500030518 32.5500030518 54.75 0 32.1000061035 0 35.4499969482 -0.550003051758 42.9499969482 -9.40000915527 rrcurveto
          -38.8999938965 -249.649993896 rlineto
          hintmask 00101100
          -31.4499816895 -47.8999938965 -38.1500091553 -16.950012207 -55 -0.649993896484 -73.5999908447 -1.19999694824 -2.30000305176 64.9499969482 12.5 92.75 rrcurveto
          endchar
        </CharString>
        <CharString name="at.alt">
          310 -122 112.5 -85.5 85.5 73.5 112.5 -105.5 112.5 318.100006104 111.5 62.3999938965 113.5 hstemhm
          hintmask 10001100
          66.1000061035 104.5 rmoveto
          -18.1000061035 -116.899993896 41.8500061035 -109.600006104 163.949996948 0 rrcurveto
          92.5 hlineto
          hintmask 01001100
          126.000015259 0 116 17 50 10 rrcurveto
          14.0500030518 85.5 rlineto
          hintmask 10011100
          -386 hlineto
          -86 0 -9.65000915527 46 9 57 rrcurveto
          74.9499969482 473.5 rlineto
          7.20001220703 45.3000030518 17.3499908447 63.1999969482 95 0 rrcurveto
          360 hlineto
          57.049987793 0 33.25 -9.85000610352 -14.3500061035 -98.6499938965 rrcurveto
          -43.6499938965 -293.5 rlineto
          -12.4499969482 -81 -20.0500030518 -9 -48 0 rrcurveto
          52.3999938965 363.75 rlineto
          -51 49 -78.5999908447 16.8500061035 -96.8500061035 0 -90.5 0 -107 -39.200012207 -34 -221.549987793 rrcurveto
          hintmask 00101100
          -30.1499938965 -199.5 63.4499969482 -87.5500030518 118.699996948 -1.30000305176 73 -0.649993896484 38.25 34.1999969482 22.1999969482 27.9499969482 rrcurveto
          hintmask 10011100
          23.5500030518 -54.5 92.5 0 rlineto
          143.999984741 0 36.6999969482 76.8500061035 11.950012207 81.6499938965 rrcurveto
          48.6000061035 326.5 rlineto
          19.7499847412 133.899993896 -37.75 99.1000061035 -143.449996948 0 rrcurveto
          -364 hlineto
          -147.350006104 0 -84.4499969482 -55.75 -23.25 -144.25 rrcurveto
          248.900009155 -256 rmoveto
          18.5999908447 136.050003052 43.0500030518 32.5500030518 54.75 0 32.1000061035 0 35.4499969482 -0.550003051758 42.9499969482 -9.40000915527 rrcurveto
          -38.8999938965 -249.649993896 rlineto
          hintmask 00101100
          -31.450012207 -47.8999938965 -38.1499938965 -16.950012207 -55 -0.649993896484 -73.6000061035 -1.19999694824 -2.29998779297 64.9499969482 12.5 92.75 rrcurveto
          endchar
        </CharString>
        <CharString name="at.smcp">
          394 -166.050003052 112.5 -85.5 85.5 73.5 112.5 -105.5 112.5 318.100006104 111.5 62.3999938965 108 hstemhm
          hintmask 10001100
          57.25 60.4499969482 rmoveto
          -18.1000061035 -116.900009155 41.8500061035 -109.600006104 163.949996948 0 rrcurveto
          92.5 hlineto
          hintmask 01001100
          125.999984741 -1.52587890625e-05 116 17 50 10 rrcurveto
          14.0500030518 85.5 rlineto
          hintmask 10011100
          -386 hlineto
          -86 -1.52587890625e-05 -9.64999389648 46 9 57 rrcurveto
          74.9499969482 473.5 rlineto
          7.20001220703 45.299987793 17.3500061035 63.1999969482 95 0 rrcurveto
          360 hlineto
          57.049987793 -1.52587890625e-05 33.25 -9.84999084473 -14.3499908447 -98.6500091553 rrcurveto
          -43.6499938965 -293.5 rlineto
          -12.4499969482 -81.0000152588 -20.0500030518 -9 -48 0 rrcurveto
          52.3999938965 363.75 rlineto
          -50.9999847412 48.9999847412 -78.6000061035 16.8500061035 -96.8499908447 0 -90.5 0 -107 -39.1999969482 -34 -221.550003052 rrcurveto
          hintmask 00101100
          -30.1500091553 -199.5 63.4499969482 -87.5500030518 118.700012207 -1.30000305176 73 -0.649993896484 38.25 34.1999969482 22.1999969482 27.9499969482 rrcurveto
          hintmask 10011100
          23.5500030518 -54.5 92.5 0 rlineto
          144 -1.52587890625e-05 36.6999969482 76.8500061035 11.9499969482 81.6499938965 rrcurveto
          48.6000061035 326.5 rlineto
          19.75 133.899993896 -37.75 93.5999908447 -143.450012207 0 rrcurveto
          -364 hlineto
          -147.349990845 -1.52587890625e-05 -84.4499969482 -50.25 -23.25 -144.25 rrcurveto
          248.899993896 -256 rmoveto
          18.6000061035 136.049987793 43.049987793 32.5500030518 54.75 0 32.1000061035 0 35.4499969482 -0.550003051758 42.9499969482 -9.39999389648 rrcurveto
          -38.8999938965 -249.649993896 rlineto
          hintmask 00101100
          -31.4499969482 -47.9000091553 -38.1500091553 -16.9499969482 -55 -0.650009155273 -73.5999908447 -1.19999694824 -2.30000305176 64.9499969482 12.5 92.75 rrcurveto
          endchar
        </CharString>
        <CharString name="atilde">
          40 -5.900390625 118.550994873 489.686798096 89.8000030518 -55.25 89.8000030518 hstemhm
          hintmask 00100000
          192.881835938 657.1875 rmoveto
          -68 callsubr
          hintmask 01000000
          -40 callsubr
          hintmask 00100000
          -39 callsubr
          hintmask 10000000
          -115.931640625 -360.487304688 rmoveto
          -43 callsubr
          136.450195312 -25.3505859375 rmoveto
          -42 callsubr
          endchar
        </CharString>
        <CharString name="atilde.salt">
          42 -7.55000305176 107.449996948 328.900009155 107.949996948 61.3500061035 89.8000030518 -55.2500152588 89.8000030518 hstemhm
          hintmask 00010000
          196.975585938 652.950195312 rmoveto
          -68 callsubr
          hintmask 00100000
          38 callsubr
          hintmask 00010000
          39 callsubr
          hintmask 11000000
          -125.67578125 -369.950195312 rmoveto
          88 callsubr
          138.350585938 -25.849609375 rmoveto
          89 callsubr
          endchar
        </CharString>
        <CharString name="atilde.smcp">
          104 0 21 95.25 112.5 401.699996948 89.8000030518 -55.25 89.8000030518 hstemhm
          hintmask 00010000
          247.233398438 685.299804688 rmoveto
          -54 callsubr
          hintmask 00100000
          -67 callsubr
          hintmask 00010000
          -66 callsubr
          hintmask 11000000
          -220.483398438 -685.299804688 rmoveto
          51 callsubr
          -28.9501953125 -341.25 rmoveto
          52 callsubr
          endchar
        </CharString>
        <CharString name="b">
          54 -6 119.649993896 315.600006104 109.75 hstem
          45.6999969482 hmoveto
          115.149993896 0 33.3999938965 53.5 rlineto
          29.0500030518 -26.6999969482 58.6999969482 -31 63.0500030518 -1.80000305176 138.800003052 -4.5 51.049987793 90.8999938965 26.5 160.600006104 25.5 157.5 -8.25 140.5 -150.299987793 0 -45 0 -66.4000091553 -12.3500061035 -52.0500030518 -22.1499938965 rrcurveto
          43.8999938965 280.5 -139.100006104 0 rlineto
          39.049987793 -638.550003052 rmoveto
          42.1000061035 262.850006104 rlineto
          39 14.1500091553 39 5.80000305176 48.3999938965 0 55.4499969482 0 7.25 -43.25 -18 -117.5 -17.8999938965 -116.649993896 -26.4499969482 -38.200012207 -49.700012207 0 -52.5999908447 0 -39.75 13.5500030518 -26.8000030518 19.25 rrcurveto
          endchar
        </CharString>
        <CharString name="b.salt">
          52 -10.25 107 329.699996948 110.300003052 245.600006104 -20 hstem
          48.3500061035 19.8999938965 rmoveto
          50.3999938965 -21.049987793 123.149993896 -9.10000610352 98.8500061035 0 127.699996948 0 81.3500061035 58.8000030518 28.3999938965 193.699996948 25.5 177.149993896 -20.5999908447 117.350006104 -149.850006104 0 -33.4499969482 0 -70.1000061035 -11.3500061035 -45.4499969482 -27.6499938965 rrcurveto
          44.8999938965 284.600006104 -140 0 rlineto
          31.6000061035 -685.600006104 rmoveto
          48.5500030518 308 rlineto
          46.4000091553 17.6999969482 23.8500061035 4 44.3000030518 0 79.8999938965 0 -9.89999389648 -70.8000030518 -16.200012207 -100.75 -10 -61.3499908447 -16.8499908447 -96.8000030518 -80.0500030518 0 rrcurveto
          endchar
        </CharString>
        <CharString name="b.smcp">
          46 0 119 125.25 101.5 107.25 118 hstem
          60.75 hmoveto
          269.5 hlineto
          126 0 65.6499938965 33.8000030518 18.8500061035 117.199996948 12.5500030518 79.3999938965 -31.4499969482 52.8000030518 -42.6000061035 7.80000305176 47.6499938965 5.39999389648 38.200012207 35.8500061035 12.6499938965 80.25 15.3999938965 96.6999969482 -52.049987793 61.8000030518 -124 0 rrcurveto
          -266.350006104 hlineto
          69.1499938965 -452 rmoveto
          19.6499938965 125.25 rlineto
          16.200012207 -0.899993896484 102.300003052 0.899993896484 0 0 40.25 0 8 -23.9499969482 -4.44999694824 -40.1500091553 -6.45001220703 -50.8499908447 -32.4499969482 -10.3000030518 -24.5500030518 0 rrcurveto
          -82.4499969482 226.75 rmoveto
          16.6499938965 107.25 118.5 0 rlineto
          33.0999908447 0 17.4000091553 -9.75 -6.60000610352 -41.75 -6.14999389648 -39.4499969482 -12.950012207 -16.3000030518 -41.4499969482 0 rrcurveto
          endchar
        </CharString>
        <CharString name="b.superior">
          -88 366.300003052 92.8000030518 190.399993896 85.6499938965 hstem
          97.5500030518 370.300003052 rmoveto
          86.1999969482 0 28.4499969482 40.6000061035 rlineto
          21.299987793 -20.049987793 34.8500061035 -24.5500030518 46.5999908447 0 96.3500061035 0 45.6499938965 54.1499938965 15.1500091553 112.650009155 13.6999969482 101.099990845 -3.80000305176 100.949996948 -108.5 0 -32.8999938965 0 -43.4000091553 -8.89999389648 -38.3499908447 -17.25 rrcurveto
          29.3500061035 184.75 -107.649993896 0 rlineto
          42.5000152588 -414.449996948 rmoveto
          24.9499969482 156.5 rlineto
          28.6999969482 9.35000610352 17.8500061035 4.35000610352 35.4499969482 0 32.0500030518 0 13.9499969482 -12.0500030518 -11 -85.0999908447 -8.64999389648 -66.8000030518 -24.1500091553 -26.4499969482 -32.5 0 -38.0999908447 0 -18.25 8.39999389648 -20.3000030518 11.8000030518 rrcurveto
          endchar
        </CharString>
        <CharString name="backslash">
          -53 136.050003052 287.75 vstem
          136.050003052 770 rmoveto
          148 -842 139.75 0 -148 842 rlineto
          endchar
        </CharString>
        <CharString name="bar">
          -255 53.1000061035 251 vstem
          53.1000061035 -72 rmoveto
          118 0 133 842 -118 0 rlineto
          endchar
        </CharString>
        <CharString name="braceleft">
          -182 691 118 hstem
          58.75 252.25 rmoveto
          40 3 30.3999938965 -22.8999938965 -5.89999389648 -37.6000061035 rrcurveto
          -37.25 -230.800003052 rlineto
          -18.6499938965 -114.100006104 43.549987793 -92.8500061035 161.150009155 0 rrcurveto
          18.0500030518 112.5 rlineto
          -57.700012207 -1.80000305176 -16.6999969482 32.5500030518 13.6000061035 85.6999969482 rrcurveto
          35.6000061035 221.050003052 rlineto
          8.10000610352 50.25 -32.6499938965 34.3500061035 -55.8000030518 10.299987793 58.3499908447 6.80000305176 43.1000061035 27 10.1999969482 62.3000030518 rrcurveto
          28.1999969482 181 rlineto
          14 89.1999969482 27.8000030518 23.25 53.6999969482 -0.449996948242 rrcurveto
          18.6000061035 118 rlineto
          -148.699996948 0 -76.5 -50.8500061035 -19 -118.649993896 rrcurveto
          -37 -233.25 rlineto
          -6.89999389648 -43.8500061035 -41.1499938965 -2.54998779297 -33.4499969482 -2.10000610352 rrcurveto
          endchar
        </CharString>
        <CharString name="braceright">
          -184 -243 112.5 hstem
          -17.9499969482 -243 rmoveto
          155.300018311 0 67.25 47.5500030518 21.1999969482 125.25 rrcurveto
          41.3000030518 249.199996948 rlineto
          6.89999389648 41.6499938965 36.75 8.05000305176 37.3000030518 -1.19999694824 rrcurveto
          17.0500030518 105.5 rlineto
          -36.1500091553 0.300003051758 -34.25 17.3999938965 5.35000610352 39.8000030518 rrcurveto
          28.4499969482 204.399993896 rlineto
          18.1000061035 111.900009155 -43 102.199996948 -154.550003052 0 rrcurveto
          -19.1499938965 -118 rlineto
          55.5 1.80000305176 18.9000091553 -25.9499969482 -15.8000030518 -100 rrcurveto
          -29.5500030518 -186.399993896 rlineto
          -9.75001525879 -59.6000061035 33.3000030518 -31.0500030518 56.3500061035 -5.90000915527 -58.9000091553 -11.1999969482 -42.6499938965 -30.3000030518 -8.55000305176 -52.9499969482 rrcurveto
          -34.6999969482 -215.649993896 rlineto
          -11.799987793 -74.8999938965 -26.25 -29.8499908447 -55.8999938965 0.449996948242 rrcurveto
          endchar
        </CharString>
        <CharString name="bracketleft">
          -168 -243 118 816 118 hstem
          62.6000061035 -27.5500030518 rmoveto
          -13.950012207 -83.950012207 7.65000915527 -131.5 141.149993896 0 rrcurveto
          88.8000030518 0 18.6000061035 118 -55.25 0 rlineto
          -43.4000091553 0 -14.9499969482 16.1999969482 11.3500061035 70.8000030518 rrcurveto
          104.550003052 650.100006104 rlineto
          10.450012207 62.6999969482 26 16.1999969482 38 0 rrcurveto
          52.5 0 18.6000061035 118 -80 0 rlineto
          -136.950012207 0 -46.3500061035 -54.3500061035 -18.3999938965 -111.75 rrcurveto
          endchar
        </CharString>
        <CharString name="bracketright">
          -171 -243 118 816 118 hstem
          -17.9499969482 -243 rmoveto
          91 hlineto
          147.400009155 0 36.4499969482 74.1499938965 13.450012207 92.5 rrcurveto
          101.25 679.25 rlineto
          13.9499969482 98.25 -22.5 107.850006104 -131.800003052 0 rrcurveto
          -82.1999969482 0 -19.1499938965 -118 52.5 0 rlineto
          43.4000091553 0 16.5999908447 -16.1999969482 -11.3499908447 -70.8000030518 rrcurveto
          -102.899993896 -650.100006104 rlineto
          -10.4499969482 -62.6999969482 -26.5500030518 -16.1999969482 -38 0 rrcurveto
          -52.5 hlineto
          endchar
        </CharString>
        <CharString name="breve">
          -253 531.100006104 56.4499969482 hstem
          56.25 57.5500030518 113.550003052 57.5500030518 vstem
          56.25 644 rmoveto
          -6 -70.6999969482 49.0500030518 -42.1999969482 61.8000030518 0 70.0999908447 0 45.4499969482 39.049987793 8.25 73.8500061035 rrcurveto
          -57.5500030518 hlineto
          -4.70001220703 -38.3500061035 -20.75 -18.549987793 -40.25 0.449996948242 -32.4499969482 0 -19.75 20.5999908447 4.35000610352 35.8500061035 rrcurveto
          endchar
        </CharString>
        <CharString name="brokenbar">
          -254 53.1000061035 251 vstem
          53.1000061035 -72 rmoveto
          118 0 52 328 -118 0 rlineto
          27 173 rmoveto
          118 0 54 341 -118 0 rlineto
          endchar
        </CharString>
        <CharString name="bullet">
          -195 289.75 185.5 hstem
          115.350006104 198.550003052 vstem
          115.350006104 321.75 rmoveto
          -23 callsubr
          endchar
        </CharString>
        <CharString name="bullet.smcp">
          -194 231.100006104 185.5 hstem
          106.350006104 198.550003052 vstem
          106.350006104 263.100006104 rmoveto
          -23 callsubr
          endchar
        </CharString>
        <CharString name="c">
          -10 -5.44999694824 112.050003052 320.549987793 112.5 hstem
          78.5500030518 282.5 rmoveto
          -33.8999938965 -204.850006104 69.6000061035 -82.0999908447 100.350006104 -1 109.949996948 -1.55000305176 64.1999969482 6.55000305176 78.3999938965 28.5 rrcurveto
          13.9499969482 87.8999938965 rlineto
          -1.52587890625e-05 -101.550003052 -9.34999084473 -92 vhcurveto
          -68.8500061035 0 -23.75 22.3499908447 22.6000061035 134.150009155 27.75 158.799987793 29.1999969482 5.25 63.9499969482 0 rrcurveto
          89 94.5500030518 -6.89999389648 0 hvcurveto
          13.5 87 rlineto
          -73.5 22.8999938965 -114 9.5 -52 0 -98.3999938965 0 -81.1000061035 -28.8999938965 -37.9499969482 -228.25 rrcurveto
          endchar
        </CharString>
        <CharString name="c.smcp">
          12 -4 112.5 357 112.5 hstem
          88.7998046875 319.600006104 rmoveto
          -25.2998046875 -158.900009155 2.9501953125 -164.699996948 195.849807739 0 98.4499969482 0 62.1999969482 6.650390625 69.9000091553 25.2998046875 rrcurveto
          15.0500030518 95.4998016357 rlineto
          0 -1.52587890625e-05 -116.049987793 -14.0500030518 -79.0500030518 -0.899993896484 -115 2 15.75 88.5500030518 15.25 95.9499969482 17.25 111.5 21.1999969482 59 102 0 65 0 110.899993896 -12.5 15 -3 rrcurveto
          15.0500030518 97.5 rlineto
          -60.0000152588 23 -85.4499969482 7.5 -75.4499969482 0 -177.699996948 0 -61.5 -91.9499969482 -26.300201416 -166.449996948 rrcurveto
          endchar
        </CharString>
        <CharString name="c.superior">
          -146 366.399993896 87.3000030518 187.199996948 87.3000030518 hstem
          116.149993896 558.300003052 rmoveto
          -22 -135.299987793 50.1500091553 -56.0500030518 74.9499969482 -0.550003051758 79.0500030518 -0.549987792969 40.1499938965 5 57.4000091553 21.3999938965 rrcurveto
          11.3000030518 66.8000030518 rlineto
          1.52587890625e-05 -65.5999908447 -5.35000610352 -64.6000061035 vhcurveto
          -50.6999969482 0 -15.6999969482 10.5500030518 13.3499908447 81.6000061035 15.700012207 93.5999908447 22.0999908447 1.44999694824 45 0 rrcurveto
          62.6000061035 60.5999908447 -4.44999694824 0 hvcurveto
          10.8500061035 67.4499969482 rlineto
          -53.1999969482 17.1500091553 -77.9000091553 7.14999389648 -37.8999938965 0 -73.8000030518 0 -57.5500030518 -18.8499908447 -24.25 -151.050003052 rrcurveto
          endchar
        </CharString>
        <CharString name="c_h">
          564 -7 112.5 -84.5 -21 21 -21 424.399993896 112.5 246 -20 hstemhm
          hintmask 10011000
          71.6499938965 282.5 rmoveto
          -37 -233 102 -56.5 99 0 176.900009155 3.14999389648 280 -55.9499969482 44.75 283.949996948 rrcurveto
          24.8500061035 157.350006104 rlineto
          38.5 28.3500061035 36.8000030518 17.6499938965 60.4000091553 0 33.25 0 22.5999908447 -19 -8.34999084473 -52.8000030518 rrcurveto
          hintmask 01011000
          -56.25 -355.699996948 140 0 55.6999969482 353.5 rlineto
          16.200012207 101.199996948 -21.3500061035 85.3000030518 -123.599990845 0 -81.9000091553 0 -53.8999938965 -35.6000061035 -44.1499938965 -29.8999938965 rrcurveto
          48.8999938965 308.399993896 -139.449996948 0 -86.6000061035 -548.300003052 rlineto
          hintmask 10011000
          -21.6000061035 -133.950012207 -101.200012207 4.85000610352 -189 0 -72 0 -24.75 24.3999938965 20.700012207 132.100006104 25.049987793 157.649993896 31.450012207 4.75 64.3999938965 0 rrcurveto
          89 94.1000061035 -6.89999389648 0 hvcurveto
          13.9499969482 87 rlineto
          -83.3999938965 28.3999938965 -104 4 -52 0 rrcurveto
          -102 0 -81.1999969482 -35.5999908447 -34.8000030518 -218.800003052 rrcurveto
          endchar
        </CharString>
        <CharString name="c_k">
          494 -3.14999389648 109.75 317.799987793 112.5 245.100006104 -20 hstem
          72.1999969482 282.5 rmoveto
          -34.8000183105 -219.25 93 -66.3999938965 173.800003052 0 72.8000030518 0 82.4499969482 28.299987793 79.5 36.5 rrcurveto
          -10.0500030518 -61.6499938965 140 0 20.8000030518 132.600006104 rlineto
          14.8499908447 7.69999694824 47.5999908447 31.6499938965 14.3000030518 8.80000305176 rrcurveto
          111.75 -180.75 156 0 -157.5 265.300003052 rlineto
          78.3499908447 64.0500183105 88.3499908447 107.799987793 22.8000030518 93.8500061035 rrcurveto
          -149 hlineto
          -8.95001220703 -70.75 -90.1999969482 -98.0500030518 -103.650009155 -74.5500030518 rrcurveto
          78.5 494.350006104 -140 0 -93 -587.449996948 rlineto
          -96.9499969482 -52.9999847412 -95.3000030518 -36.3000030518 -58.8999938965 1.35000610352 -72.6499938965 2.25 -45.6000061035 18.299987793 21.25 135.950012207 25.0500030518 156.549987793 30.8999938965 4.75 64.4000091553 0 rrcurveto
          89 94.549987793 -6.89999389648 0 hvcurveto
          13.5 87 rlineto
          -73.5 22.8999938965 -113.449996948 9.5 -52 0 -102 0 -81.1999969482 -35.5999908447 -34.8000030518 -218.800003052 rrcurveto
          endchar
        </CharString>
        <CharString name="c_t">
          351 -6.55000305176 112.050003052 -106.149993896 87.3500061035 336.299987793 108.649993896 hstemhm
          hintmask 10100000
          70.6499938965 279.75 rmoveto
          -36.0999908447 -218.600006104 71.8000030518 -67.25 102 -0.449996948242 108.849990845 -0.449996948242 60.9000091553 6.55000305176 83.3499908447 27.3999938965 rrcurveto
          13.9499969482 87.8999938965 rlineto
          0 -101.549987793 -9.35000610352 -92 vhcurveto
          -68.8500061035 0 -26.5 16.3000030518 23.1499938965 137.449996948 29.4000091553 170.899993896 38.5500030518 -7.14999389648 59.549987793 0 rrcurveto
          311.5 0.550003051758 -37.0500030518 -234.100006104 rlineto
          hintmask 01100000
          -22 -140.550018311 52.549987793 -49.549987793 86.75 0 rrcurveto
          101.100006104 0 13.9499969482 87.3500061035 rlineto
          -4.30001831055 -1.52587890625e-05 -54.75 19.6500091553 0 0 -30.799987793 11.0999908447 -12.450012207 10.4000091553 13.25 83.5999908447 rrcurveto
          33.75 212.100006104 118.699996948 0 16.9499969482 107.899993896 -118.699996948 0 23.4499969482 148 -116.5 0 -46.9499969482 -147.550003052 -371.449996948 -0.25 rlineto
          -98.3999938965 0 -84.9499969482 -10.4499969482 -40.1500091553 -241.449996948 rrcurveto
          endchar
        </CharString>
        <CharString name="cacute">
          -10 -5.44999694824 112.050003052 320.549987793 112.5 58.9000091553 138.5 hstem
          308.850006104 235.100006104 vstem
          308.849609375 598.549804688 rmoveto
          -50 callsubr
          -342 -454.549804688 rmoveto
          -33.900390625 -204.849609375 69.6005859375 -82.1005859375 100.349609375 -1 109.950195312 -1.5498046875 64.2001953125 6.5498046875 78.3994140625 28.5 rrcurveto
          13.9501953125 87.900390625 rlineto
          0 -101.549804688 -9.3505859375 -92 vhcurveto
          -68.8505859375 0 -23.75 22.3505859375 22.6005859375 134.149414062 27.75 158.80078125 29.2001953125 5.25 63.94921875 0 rrcurveto
          89 94.55078125 -6.900390625 0 hvcurveto
          13.5 87 rlineto
          -73.5 22.900390625 -114 9.5 -52 0 -98.400390625 0 -81.099609375 -28.900390625 -37.9501953125 -228.25 rrcurveto
          endchar
        </CharString>
        <CharString name="cacute.smcp">
          12 -4 112.5 357 112.5 65 138.5 hstem
          318.375 235.100006104 vstem
          318.375 643 rmoveto
          -70 callsubr
          -342.174804688 -461.900390625 rmoveto
          70 callsubr
          endchar
        </CharString>
        <CharString name="caron">
          -128 531 135.5 hstem
          20.4499969482 308.5 vstem
          20.4499969482 666.5 rmoveto
          78.0500030518 -135.5 101.25 0 129.199996948 135.5 -103.100006104 0 -70.1999969482 -65.3999938965 -44.8999938965 65.3999938965 rlineto
          endchar
        </CharString>
        <CharString name="caron.smcp">
          -121 531 149 hstem
          145.25 305.199996948 vstem
          145.25 680 rmoveto
          73.0500030518 -149 104 0 128.149993896 149 -92.25 0 -79.3000030518 -69 -45.6000061035 69 rlineto
          endchar
        </CharString>
        <CharString name="ccaron">
          -10 -5.44999694824 112.050003052 320.549987793 112.5 58.9000091553 135.5 hstem
          230.371002197 308.5 vstem
          230.37109375 734.049804688 rmoveto
          11 callsubr
          -242.12109375 -451.549804688 rmoveto
          12 callsubr
          endchar
        </CharString>
        <CharString name="ccaron.smcp">
          12 -4 112.5 357 112.5 62.75 135.5 hstem
          244.199996948 308.5 vstem
          244.200195312 776.25 rmoveto
          -4 callsubr
          -245.700195312 -456.650390625 rmoveto
          70 callsubr
          endchar
        </CharString>
</ttFont>
